**ABCDEFGHIJKLMNOPQRSTUVWXYZabcdefghijklmnopqrstuvwxyz**************************
**PARASOLID !"#$%&'()*+,-./:;<=>?@[\]^_`{|}~0123456789**************************
**PART1;
MC=AMD64;
MC_MODEL=Intel64 Family 6 Model 15 Stepping 11, GenuineIntel;
MC_ID=unknown;
OS=Windows_NT;
OS_RELEASE=unknown;
FRU=Parasolid Version 30.0, build 226,  7-26-2017;
APPL=SOLIDWORKS 2018-2017278;
SITE=;
USER=unknown;
FORMAT=text;
GUISE=transmit;
KEY=Screw DIN 7991 - M4 x 20 --- 20N;
FILE=Screw DIN 7991 - M4 x 20 --- 20N.x_t;
DATE=Sat Apr 18 17:46:08 2020;
**PART2;
SCH=SCH_3000226_30000;
USFLD_SIZE=0;
**PART3;
**END_OF_HEADER*****************************************************************
T51 : TRANSMIT FILE created by modeller version 300022623 SCH_3000226_30000_1300
6205 0 12 33 CCCCCCI4 mesh1006 0 I8 polyline1008 0 CCCCCCCDI5 owner1040 0 CCCCCC
I13 boundary_mesh1006 0 I17 boundary_polyline1008 0 CCCA16 index_map_offset0 0 1
 dA9 index_map82 0 A17 node_id_index_map82 0 A20 schema_embedding_map82 0 A5 chi
ld12 0 A14 lowest_node_id0 0 1 dZ1 397 0 2 0 0 0 0 0 0 1e3 1e-8 0 3 0 1 0 1 1 4
 5 6 7 0 0 8 9 10 0 0 0 0 0 0 70 11 CI9 list_type0 0 1 uI10 notransmit0 0 1 lCCC
DCCDI12 finger_index0 0 1 dI12 finger_block1012 0 CZ2 0 4 T1 0 0 2 20 1 11 11 13
 255 4 41 0 1 0 12 0 0 13 0 52 255 5 335 0 14 15 0 0 +-.01965 -255654872272082e-
32 0 1 13010426069826e-29 0 .002 .707106781186547 .707106781186548 -130104260698
26e-29 1 0 31 255 6 319 0 9 16 0 0 +-.02 -260208521396521e-32 0 -1 -130104260698
2604e-31 0 1301042606982604e-31 -1 0 .00165 29 255 7 132 0 10 17 0 2449212707644
755e-34 -1192622389734054e-33 -.001443375672974064 19 8 CCCCCCCA5 owner12 0 Z8 4
5 0 1 13 0 18 V0 16 255 9 316 0 ?19 0 20 6 0 0 1 18 255 10 130 0 21 0 22 7 ?1 17
 255 21 0 23 24 25 10 26 27 0 28 +18 22 201 0 29 10 30 31 ?1 17 29 0 32 33 34 22
 25 35 0 36 -18 30 203 0 37 22 38 39 ?1 29 31 277 0 22 39 40 -.0015 -.00125 -.00
0721687836487034 29 39 278 0 30 41 31 -.0015 -.00125 .000721687836487033 29 40 2
75 0 42 31 43 -153075794227797e-33 .00125 -.000721687836487032 18 42 212 0 44 45
 0 40 ?1 29 43 274 0 45 40 46 -153075794227797e-33 .00125 .000721687836487032 18
 45 210 0 47 48 42 43 ?1 29 46 273 0 48 43 49 -564048501032818e-49 4605957655472
28e-33 .001443375672974064 18 48 208 0 50 51 45 46 ?1 29 49 272 0 51 46 17 15307
5794227797e-33 -.00125 .000721687836487033 18 51 206 0 52 53 48 49 ?1 29 17 271
 0 53 49 7 153075794227797e-33 -.00125 -.000721687836487034 18 53 204 0 25 54 51
 17 ?1 17 25 0 23 21 36 53 29 35 0 34 +18 54 211 0 24 55 53 56 ?1 17 24 0 23 36
 21 54 28 57 0 58 -18 55 209 0 59 60 54 61 ?1 29 56 282 0 54 0 61 -.0015 -105847
0041916682e-33 -.001443375672974064 29 61 281 0 55 56 62 -.0015 .00125 -.0007216
87836487032 29 62 280 0 60 61 41 -.0015 .00125 .000721687836487032 18 60 207 0 6
3 38 55 62 ?1 29 41 279 0 38 62 39 -.0015 2769048124738715e-34 .0014433756729740
64 18 38 205 0 64 30 60 41 ?1 17 64 0 65 66 67 38 50 68 0 69 -15 255 65 228 0 67
 70 0 17 66 0 65 47 64 60 71 72 0 73 -17 67 0 65 64 47 48 74 75 0 76 +17 50 0 77
 78 69 48 64 68 0 67 +16 68 174 0 ?50 79 80 81 0 0 1 17 69 0 77 50 37 38 82 83 0
 71 -15 77 224 0 78 84 0 17 37 0 77 69 78 30 52 79 0 82 -17 82 0 85 86 71 30 69
 83 0 33 +16 83 167 0 ?82 87 72 88 0 0 1 17 71 0 85 82 73 38 66 72 0 0 +15 85 23
9 0 89 90 0 17 73 0 85 71 91 60 92 93 0 0 +16 72 171 0 ?71 83 93 94 0 0 1 16 93
 175 0 ?73 72 95 96 0 0 1 30 255 94 267 0 72 96 88 0 +-.0015 .00125 .00072168783
6487032 1060540212046012e-31 -.866025403784439 .5 30 96 268 0 93 97 94 0 +-.0015
 .00125 -.000721687836487032 -16679042577485e-45 150231459873716e-30 1 30 88 266
 0 83 94 98 0 +-.0015 2769048124738715e-34 .001443375672974064 1060540212046012e
-31 -.866025403784439 -.5 30 98 265 0 87 88 99 0 +-.0015 -.00125 .00072168783648
7033 0 0 -1 16 87 163 0 ?86 57 83 98 0 0 1 30 99 264 0 27 98 100 0 +153075794227
797e-33 -.00125 -.000721687836487034 -1060540212046014e-31 .866025403784439 -.5
 16 27 183 0 ?21 101 0 99 0 0 1 30 100 263 0 101 99 102 0 +1071260030388486e-49
 -874779088843325e-33 -.001443375672974064 -1060540212046012e-31 .86602540378443
9 .5 16 101 186 0 ?103 104 27 100 0 0 1 30 102 262 0 104 100 105 0 +-15307579422
7797e-33 .00125 -.000721687836487032 -16679042577485e-45 150231459873716e-30 1 1
6 104 189 0 ?106 75 101 102 0 0 1 30 105 261 0 75 102 107 0 +-153075794227797e-3
3 .00125 .000721687836487032 1060540212046012e-31 -.866025403784439 .5 16 75 192
 0 ?67 108 104 105 0 0 1 30 107 260 0 108 105 109 0 +-564048501032818e-49 460595
765547228e-33 .001443375672974064 1060540212046012e-31 -.866025403784439 -.5 16
 108 195 0 ?78 110 75 107 0 0 1 30 109 259 0 110 107 111 0 +153075794227797e-33
 -.00125 .000721687836487033 0 0 -1 16 110 198 0 ?34 112 108 109 0 0 1 30 111 25
8 0 35 109 113 0 +-.0015 -.00125 -.000721687836487034 1 1224606353822376e-31 0 1
6 35 166 0 ?25 114 79 111 0 0 1 30 113 257 0 79 111 81 0 +-.0015 -.00125 .000721
687836487033 1 1224606353822376e-31 0 16 79 170 0 ?52 35 68 113 0 0 1 30 81 256
 0 68 113 115 0 +-.0015 2769048124738715e-34 .001443375672974064 1 1224606353822
376e-31 0 30 115 255 0 80 81 116 0 +-.0015 .00125 .000721687836487032 1 12246063
53822376e-31 0 16 80 178 0 ?47 68 117 115 0 0 1 30 116 254 0 117 115 118 0 +-.00
15 .00125 -.000721687836487032 1 1224606353822376e-31 0 16 117 182 0 ?44 80 57 1
16 0 0 1 30 118 253 0 57 116 119 0 +-.0015 -1058470041916682e-33 -.0014433756729
74064 1 1224606353822376e-31 0 16 57 162 0 ?28 117 87 118 0 0 1 31 119 84 0 114
 118 120 0 +-.00248 -322658566531686e-33 0 1 1301042606982604e-31 0 -13010426069
82604e-31 1 0 .002 16 114 54 0 ?121 122 35 119 0 0 1 31 120 85 0 122 119 123 0 +
-715e-6 -930245463992571e-34 0 1 1301042606982604e-31 0 -1301042606982604e-31 1
 0 .003765 16 122 59 0 ?124 125 114 120 0 0 1 31 123 86 0 125 120 16 0 +48984254
1528951e-33 637306017241811e-49 0 1 1301042606982604e-31 0 -1301042606982604e-31
 1 0 .003765 16 125 64 0 ?126 20 122 123 0 0 1 31 16 313 0 20 123 6 0 --.01965 -
255654872272082e-32 0 -1 -13010426069826e-29 0 13010426069826e-29 -1 0 .002 16 2
0 310 0 ?127 9 125 16 0 0 1 17 127 0 128 127 127 0 129 20 0 0 +15 128 311 0 127
 130 131 17 129 0 132 129 129 0 127 20 0 0 -15 132 330 0 129 14 0 14 255 14 328
 133 ?0 90 134 4 5 +0 0 0 90 18 81 255 1 133 385 135 14 136 0 0 137 138 14 90 23
7 137 ?14 139 85 4 140 +0 0 14 139 18 15 134 329 0 141 14 132 13 18 44 0 0 0 0 0
 0 8 12 14 12 72 142 ?143 0 144 4 15 +0 0 143 0 18 81 1 142 387 135 12 145 0 137
 146 147 14 143 67 146 ?148 12 149 4 150 +0 0 148 12 18 15 144 154 0 26 12 151 5
0 255 15 82 0 12 150 5 0 +2449212707644755e-34 3186530086209055e-50 0 1 13010426
06982604e-31 0 -1301042606982604e-31 1 0 51 255 150 81 0 143 152 15 0 +0 0 0 1 1
301042606982604e-31 0 .003765 -1301042606982604e-31 1 0 52 152 80 0 148 153 150
 0 +-715e-6 -930245463992571e-34 0 1 1301042606982604e-31 0 .003765 .70710678118
6549 .707106781186546 -1301042606982604e-31 1 0 14 148 62 154 ?130 143 155 4 152
 +0 0 130 143 18 51 153 79 0 130 156 152 0 +0 0 0 1 1301042606982604e-31 0 .002
 -1301042606982604e-31 1 0 14 130 57 157 ?158 148 128 4 153 +0 0 158 148 18 50 1
56 78 0 158 159 153 0 +-.02 .002 0 -1 -1301042606982604e-31 0 1301042606982604e-
31 -1 0 14 158 52 160 ?161 130 162 4 156 +0 0 161 130 18 50 159 245 0 161 163 15
6 0 +-.0015 -.00125 -.000721687836487034 612303176911189e-31 -.5 -.8660254037844
39 0 .866025403784439 -.5 14 161 213 164 ?165 158 23 4 159 -0 0 165 158 18 50 16
3 246 0 139 166 159 0 +-.0015 -1058470041916682e-33 -.001443375672974064 -612303
176911189e-31 .5 -.866025403784439 0 .866025403784439 .5 14 139 233 167 ?90 168
 169 4 163 -0 0 90 168 18 50 166 247 0 168 170 163 0 +-.0015 .00125 -.0007216878
36487032 -1224606353822376e-31 1 -150231459873716e-30 0 150231459873716e-30 1 14
 168 229 171 ?139 70 172 4 166 -0 0 139 70 18 50 170 248 0 70 173 166 0 +-.0015
 .00125 .000721687836487032 -612303176911189e-31 .5 .866025403784438 0 -.8660254
03784439 .5 14 70 225 174 ?168 84 65 4 170 -0 0 168 84 18 50 173 249 0 84 175 17
0 0 +-.0015 2769048124738715e-34 .001443375672974064 612303176911189e-31 -.5 .86
6025403784438 0 -.866025403784439 -.5 14 84 221 176 ?70 165 77 4 173 -0 0 70 165
 18 50 175 250 0 165 140 173 0 +-.0015 -.00125 .000721687836487033 1224606353822
376e-31 -1 0 1 1224606353822376e-31 0 14 165 217 177 ?84 161 32 4 175 -0 0 84 16
1 18 50 140 252 0 90 0 175 0 +-.0015 -821541039450912e-33 -.001443375672974064 1
 1224606353822378e-31 -1423278299945384e-47 -1224606353822378e-31 1 0 81 1 177 3
97 135 165 178 0 176 0 179 15 32 220 0 34 165 0 17 34 0 32 29 52 53 180 110 0 26
 +17 52 0 32 34 33 51 37 79 0 78 +17 180 0 144 76 26 51 34 110 0 0 -17 26 0 144
 180 181 53 21 27 0 0 -17 181 0 144 26 182 10 103 101 0 0 -17 182 0 144 181 74 4
2 106 104 0 0 -17 103 0 169 59 28 42 181 101 0 182 +15 169 236 0 103 139 0 17 59
 0 169 58 103 55 44 117 0 92 -17 28 0 169 103 58 10 24 57 0 181 +17 58 0 169 28
 59 54 91 95 0 89 -17 91 0 85 73 89 55 58 95 0 0 +16 95 179 0 ?91 93 112 97 0 0
 1 17 89 0 85 91 86 54 36 112 0 0 +17 86 0 85 89 82 22 33 87 0 0 +17 36 0 23 25
 24 22 89 112 0 86 -16 112 159 0 ?89 95 110 183 0 0 1 30 183 270 0 112 0 97 0 +-
.0015 -.00125 -.000721687836487034 -1060540212046014e-31 .866025403784439 -.5 30
 97 269 0 95 183 96 0 +-.0015 -1058470041916682e-33 -.001443375672974064 -106054
0212046012e-31 .866025403784439 .5 15 23 216 0 21 161 0 17 33 0 32 52 29 30 86 8
7 0 0 -17 44 0 172 106 92 42 59 117 0 103 +17 92 0 172 44 63 55 73 93 0 91 -15 1
72 232 0 106 168 0 17 63 0 172 92 106 60 47 80 0 66 -17 106 0 172 63 44 45 182 1
04 0 74 +17 47 0 65 67 66 45 63 80 0 106 +17 74 0 144 182 76 45 67 75 0 0 -17 76
 0 144 74 180 48 78 108 0 0 -17 78 0 77 37 50 51 76 108 0 180 +80 255 1 135 184
 185 9000 1 1 1 1 1 1 1 1 0 FFFFTFTFFFFFFF1 81 1 178 350 186 165 0 177 187 188 1
89 81 1 176 396 135 84 188 0 174 177 190 82 255 1 179 -196870028 81 1 188 351 18
6 84 0 176 178 191 192 81 1 174 395 135 70 191 0 171 176 193 82 1 190 -196738956
 81 1 191 352 186 70 0 174 188 194 195 81 1 171 394 135 168 194 0 167 174 196 82
 1 193 -196607884 81 1 194 353 186 168 0 171 191 197 198 81 1 167 393 135 139 19
7 0 164 171 199 82 1 196 -196476812 81 1 197 354 186 139 0 167 194 200 201 81 1
 164 392 135 161 187 0 160 167 202 82 1 199 -196345740 81 1 187 349 186 161 0 16
4 203 178 204 81 1 160 391 135 158 203 0 157 164 205 82 1 202 -196214668 81 1 20
3 348 186 158 0 160 206 187 207 81 1 157 390 135 130 206 0 154 160 208 82 1 205
 -231014283 81 1 206 347 186 130 0 157 209 203 210 81 1 154 389 135 148 209 0 14
6 157 211 82 1 208 -230424459 81 1 209 346 186 148 0 154 212 206 213 81 1 146 38
8 135 143 212 0 142 154 214 82 1 211 -229834638 81 1 212 345 186 143 0 146 145 2
09 215 82 1 214 -229244814 80 1 186 0 216 8001 0 0 0 0 3 5 0 0 0 FFFFTFTFFFFFFF2
 81 1 145 344 186 12 0 142 0 212 217 83 255 3 215 .647058823529412 .619607843137
255 .588235294117647 83 3 217 .647058823529412 .619607843137255 .588235294117647
 79 255 15 216 SDL/TYSA_COLOUR83 3 213 .647058823529412 .619607843137255 .588235
294117647 83 3 210 0 .501960784313726 .501960784313726 83 3 207 .647058823529412
 .619607843137255 .588235294117647 83 3 204 .647058823529412 .619607843137255 .5
88235294117647 81 1 200 355 186 90 0 137 197 136 218 83 3 201 .647058823529412 .
619607843137255 .588235294117647 81 1 137 386 135 90 200 0 133 142 219 81 1 136
 356 186 14 0 133 200 0 220 83 3 218 .647058823529412 .619607843137255 .58823529
4117647 83 3 220 .647058823529412 .619607843137255 .588235294117647 82 1 219 -20
6176140 83 3 198 .647058823529412 .619607843137255 .588235294117647 83 3 195 .64
7058823529412 .619607843137255 .588235294117647 83 3 192 .647058823529412 .61960
7843137255 .588235294117647 83 3 189 .647058823529412 .619607843137255 .58823529
4117647 79 14 185 SWEntUnchanged15 162 317 0 19 158 0 17 19 0 162 19 19 0 141 9
 0 0 +17 141 0 134 141 141 0 19 9 0 0 -15 155 109 0 121 148 221 17 121 0 155 121
 121 0 222 114 0 0 +15 221 61 0 223 148 0 17 223 0 221 223 223 0 124 122 0 0 -17
 124 0 149 124 124 0 223 122 0 0 +15 149 110 0 124 143 224 15 224 66 0 225 143 0
 17 225 0 224 225 225 0 126 125 0 0 -17 126 0 151 126 126 0 225 125 0 0 +15 151
 111 0 126 12 0 17 222 0 131 222 222 0 121 114 0 0 -15 131 56 0 222 130 0 82 1 1
47 -228654988 82 1 138 -186122123 19 13 40 0 1 0 8 4 S0 74 4 CI16 index_map_offs
et0 0 1 dCCZ20 11 2 0 0 177 136 0 0 0 0 0 0 0 0 0 0 0 0 0 0 0 0 0 0 1 0 
