**ABCDEFGHIJKLMNOPQRSTUVWXYZabcdefghijklmnopqrstuvwxyz**************************
**PARASOLID !"#$%&'()*+,-./:;<=>?@[\]^_`{|}~0123456789**************************
**PART1;
MC=AMD64;
MC_MODEL=Intel64 Family 6 Model 15 Stepping 11, GenuineIntel;
MC_ID=unknown;
OS=Windows_NT;
OS_RELEASE=unknown;
FRU=Parasolid Version 30.0, build 226,  7-26-2017;
APPL=SOLIDWORKS 2018-2017278;
SITE=;
USER=unknown;
FORMAT=text;
GUISE=transmit;
KEY=Radial ball bearing DIN 625 - 623;
FILE=Radial ball bearing DIN 625 - 623.x_t;
DATE=Fri Apr 17 17:06:47 2020;
**PART2;
SCH=SCH_3000226_30000;
USFLD_SIZE=0;
**PART3;
**END_OF_HEADER*****************************************************************
T51 : TRANSMIT FILE created by modeller version 300022623 SCH_3000226_30000_1300
6205 0 12 33 CCCCCCI4 mesh1006 0 I8 polyline1008 0 CCCCCCCDI5 owner1040 0 CCCCCC
I13 boundary_mesh1006 0 I17 boundary_polyline1008 0 CCCA16 index_map_offset0 0 1
 dA9 index_map82 0 A17 node_id_index_map82 0 A20 schema_embedding_map82 0 A5 chi
ld12 0 A14 lowest_node_id0 0 1 dZ1 408 0 2 0 0 0 0 0 0 1e3 1e-8 0 3 0 1 0 1 1 4
 5 6 0 0 0 7 8 0 0 0 0 0 0 0 70 11 CI9 list_type0 0 1 uI10 notransmit0 0 1 lCCCD
CCDI12 finger_index0 0 1 dI12 finger_block1012 0 CZ2 0 4 T1 0 0 2 20 1 9 9 13 25
5 4 147 0 1 0 10 0 0 11 0 54 255 5 128 0 12 13 0 0 -0 0 0 -1 0 0 .00325 .00105 0
 0 1 31 255 6 247 0 14 15 0 0 -.000782623792124921 0 0 -1 0 0 0 0 1 .00395 19 8
 CCCCCCCA5 owner12 0 Z7 198 0 1 11 0 16 V0 16 255 8 150 0 ?17 0 18 19 0 0 1 17 2
55 17 0 20 17 17 0 21 8 0 0 +16 18 157 0 ?22 8 23 24 0 0 1 31 19 144 0 8 24 15 0
 +.000782623792124927 0 0 -1 0 0 0 0 1 .00255 31 24 138 0 18 25 19 0 +-.00078262
3792124927 0 0 1 0 0 0 0 -1 .00255 31 15 241 0 26 19 6 0 --.000782623792124921 0
 0 1 0 0 0 0 -1 .00395 16 26 259 0 ?27 14 28 15 0 0 1 17 27 0 29 27 27 0 30 26 0
 0 +16 14 253 0 ?31 32 26 6 0 0 1 16 28 251 0 ?33 26 34 35 0 0 1 17 33 0 36 33 3
3 0 37 28 0 0 +16 34 254 0 ?38 28 39 40 0 0 1 31 35 312 0 28 40 41 0 +.002 0 0 1
 0 0 0 0 -1 .00395 31 40 313 0 34 42 35 0 +.002 0 0 1 0 0 0 0 -1 .00485 31 41 21
4 0 32 35 43 0 +-.002 0 0 1 0 0 0 0 -1 .00255 16 32 148 0 ?44 45 14 41 0 0 1 31
 43 213 0 45 41 46 0 +-.002 0 0 1 0 0 0 0 -1 .00165 16 45 156 0 ?47 48 32 43 0 0
 1 31 46 212 0 48 43 49 0 +-.00185 0 0 1 0 0 0 0 -1 .0015 16 48 155 0 ?50 51 45
 46 0 0 1 31 49 211 0 51 46 52 0 +.00185 0 0 1 0 0 0 0 -1 .0015 16 51 154 0 ?53
 54 48 49 0 0 1 31 52 210 0 54 49 25 0 +.002 0 0 1 0 0 0 0 -1 .00165 16 54 153 0
 ?55 23 51 52 0 0 1 31 25 209 0 23 52 24 0 +.002 0 0 1 0 0 0 0 -1 .00255 16 23 1
52 0 ?56 18 54 25 0 0 1 17 56 0 57 56 56 0 58 23 0 0 +15 255 57 176 0 56 59 60 1
7 58 0 61 58 58 0 56 23 0 0 -15 61 160 0 58 62 63 14 255 62 158 64 ?65 10 61 4 1
3 +0 0 65 10 16 15 63 161 0 21 62 0 17 21 0 63 21 21 0 17 8 0 0 -81 255 1 64 393
 66 62 67 0 0 68 69 14 65 162 68 ?59 62 70 4 71 +0 0 59 62 16 14 10 242 72 ?62 0
 73 4 5 -12 12 62 0 16 51 255 13 201 0 62 74 5 0 +-.0206375 0 0 1 0 0 .00255 0 0
 -1 13 16 199 0 0 0 0 0 0 7 10 50 255 74 202 0 59 75 13 0 +.002 .00165 0 1 0 0 0
 0 -1 14 59 174 76 ?77 65 57 4 74 +0 0 77 65 16 54 75 203 0 77 78 74 0 +.00185 0
 0 1 0 0 .00165 15e-5 0 0 -1 14 77 178 79 ?80 59 81 4 75 +0 0 80 59 16 51 78 204
 0 80 82 75 0 --.0206375 0 0 1 0 0 .0015 0 0 -1 14 80 182 83 ?84 77 85 4 78 +0 0
 84 77 16 54 82 205 0 84 86 78 0 +-.00185 0 0 1 0 0 .00165 15e-5 0 0 -1 14 84 18
6 87 ?88 80 89 4 82 +0 0 88 80 16 50 86 206 0 88 71 82 0 +-.002 .00255 0 -1 0 0
 0 0 1 14 88 190 90 ?12 84 91 4 86 +0 0 12 84 16 51 71 207 0 65 92 86 0 +-.02063
75 0 0 1 0 0 .00255 0 0 -1 51 92 304 0 93 94 71 0 --.0206375 0 0 1 0 0 .00395 0
 0 -1 14 93 261 95 ?96 12 36 4 92 +0 0 96 12 16 50 94 305 0 97 98 92 0 +.002 .00
485 0 1 0 0 0 0 -1 14 97 277 99 ?100 96 101 4 94 +0 0 100 96 16 54 98 306 0 100
 102 94 0 +.00185 0 0 1 0 0 .00485 15e-5 0 0 -1 14 100 281 103 ?104 97 105 4 98
 +0 0 104 97 16 51 102 307 0 104 106 98 0 +-.0206375 0 0 1 0 0 .005 0 0 -1 14 10
4 285 107 ?108 100 109 4 102 +0 0 108 100 16 54 106 308 0 108 110 102 0 +-.00185
 0 0 1 0 0 .00485 15e-5 0 0 -1 14 108 289 111 ?112 104 113 4 106 +0 0 112 104 16
 50 110 309 0 112 114 106 0 +-.002 .00395 0 -1 0 0 0 0 1 14 112 293 115 ?0 108 1
16 4 110 +0 0 0 108 16 51 114 310 0 96 0 110 0 --.0206375 0 0 1 0 0 .00395 0 0 -
1 14 96 265 117 ?97 93 118 4 114 +0 0 97 93 16 81 1 117 407 66 96 119 0 115 120
 121 15 118 267 0 122 96 123 17 122 0 118 122 122 0 124 125 0 0 -15 123 268 0 30
 96 0 17 30 0 123 30 30 0 27 26 0 0 -17 124 0 116 124 124 0 122 125 0 0 +16 125
 258 0 ?124 126 0 127 0 0 1 16 126 257 0 ?128 129 125 130 0 0 1 31 127 317 0 125
 0 130 0 +-.002 0 0 1 0 0 0 0 -1 .00395 31 130 316 0 126 127 131 0 +-.002 0 0 1
 0 0 0 0 -1 .00485 31 131 315 0 129 130 42 0 +-.00185 0 0 1 0 0 0 0 -1 .005 16 1
29 256 0 ?132 39 126 131 0 0 1 31 42 314 0 39 131 40 0 +.00185 0 0 1 0 0 0 0 -1
 .005 16 39 255 0 ?133 34 129 42 0 0 1 17 133 0 105 133 133 0 134 39 0 0 +15 105
 283 0 133 100 135 17 134 0 136 134 134 0 133 39 0 0 -15 136 288 0 134 104 0 15
 135 284 0 137 100 0 17 137 0 135 137 137 0 38 34 0 0 -17 38 0 101 38 38 0 137 3
4 0 0 +15 101 279 0 38 97 138 15 138 280 0 37 97 0 17 37 0 138 37 37 0 33 28 0 0
 -17 132 0 109 132 132 0 139 129 0 0 +15 109 287 0 132 104 136 17 139 0 140 139
 139 0 132 129 0 0 -15 140 292 0 139 108 0 17 128 0 113 128 128 0 141 126 0 0 +1
5 113 291 0 128 108 140 17 141 0 142 141 141 0 128 126 0 0 -15 142 296 0 141 112
 0 15 116 295 0 124 112 142 80 255 1 66 143 144 9000 1 1 1 1 1 1 1 1 0 FFFFTFTFF
FFFFF1 81 1 119 353 145 96 0 117 146 147 148 81 1 115 406 66 112 149 0 111 117 1
50 81 1 120 408 66 12 151 0 117 0 152 82 255 1 121 1799554478 14 12 123 120 ?93
 88 29 4 5 -10 10 93 88 16 81 1 151 351 145 12 0 120 153 146 154 82 1 152 172195
9854 80 1 145 0 155 8001 0 0 0 0 3 5 0 0 0 FFFFTFTFFFFFFF2 81 1 153 350 145 88 0
 90 156 151 157 81 1 146 352 145 93 0 95 151 119 158 83 255 3 154 .7764705882352
94 .756862745098039 .737254901960784 81 1 95 401 66 93 146 0 90 99 159 83 3 158
 .776470588235294 .756862745098039 .737254901960784 81 1 90 400 66 88 153 0 87 9
5 160 81 1 99 402 66 97 147 0 95 103 161 82 1 159 1800013230 81 1 147 354 145 97
 0 99 119 162 163 81 1 103 403 66 100 162 0 99 107 164 82 1 161 1792804270 81 1
 162 355 145 100 0 103 147 165 166 81 1 107 404 66 104 165 0 103 111 167 82 1 16
4 1792214446 81 1 165 356 145 104 0 107 162 168 169 81 1 111 405 66 108 168 0 10
7 115 170 82 1 167 1791624622 81 1 168 357 145 108 0 111 165 149 171 82 1 170 17
91034798 81 1 149 358 145 112 0 115 168 0 172 83 3 171 .776470588235294 .7568627
45098039 .737254901960784 83 3 172 .776470588235294 .756862745098039 .7372549019
60784 83 3 169 .776470588235294 .756862745098039 .737254901960784 83 3 166 .7764
70588235294 .756862745098039 .737254901960784 83 3 163 .776470588235294 .7568627
45098039 .737254901960784 81 1 87 399 66 84 156 0 83 90 173 82 1 160 1751188909
 81 1 156 349 145 84 0 87 174 153 175 81 1 83 398 66 80 174 0 79 87 176 82 1 173
 1751778733 81 1 174 348 145 80 0 83 177 156 178 81 1 79 397 66 77 177 0 76 83 1
79 82 1 176 1752368557 81 1 177 347 145 77 0 79 180 174 181 81 1 76 396 66 59 18
0 0 72 79 182 82 1 179 1752958381 81 1 180 346 145 59 0 76 183 177 184 81 1 72 3
95 66 10 185 0 68 76 186 82 1 182 1753548205 81 1 185 343 145 10 0 72 0 67 187 8
1 1 68 394 66 65 183 0 64 72 188 82 1 186 1798571438 81 1 183 345 145 65 0 68 67
 180 189 82 1 188 1760298413 81 1 67 344 145 62 0 64 185 183 190 83 3 189 .77647
0588235294 .756862745098039 .737254901960784 83 3 190 .776470588235294 .75686274
5098039 .737254901960784 83 3 187 .776470588235294 .756862745098039 .73725490196
0784 83 3 184 .776470588235294 .756862745098039 .737254901960784 83 3 181 .77647
0588235294 .756862745098039 .737254901960784 83 3 178 .776470588235294 .75686274
5098039 .737254901960784 83 3 175 .776470588235294 .756862745098039 .73725490196
0784 83 3 157 .776470588235294 .756862745098039 .737254901960784 79 255 15 155 S
DL/TYSA_COLOUR15 29 239 0 27 12 191 15 191 136 0 22 12 0 17 22 0 191 22 22 0 192
 18 0 0 +17 192 0 193 192 192 0 22 18 0 0 -15 193 165 0 192 65 0 82 1 150 179044
4974 83 3 148 .776470588235294 .756862745098039 .737254901960784 79 14 144 SWEnt
Unchanged15 36 263 0 33 93 194 15 194 264 0 195 93 0 17 195 0 194 195 195 0 31 1
4 0 0 -17 31 0 73 31 31 0 195 14 0 0 +15 73 245 0 31 10 20 15 20 142 0 17 10 0 1
5 91 192 0 47 88 196 17 47 0 91 47 47 0 197 45 0 0 +15 196 193 0 198 88 0 17 198
 0 196 198 198 0 44 32 0 0 -17 44 0 70 44 44 0 198 32 0 0 +15 70 164 0 44 65 193
 17 197 0 199 197 197 0 47 45 0 0 -15 199 189 0 197 84 0 15 89 188 0 50 84 199 1
7 50 0 89 50 50 0 200 48 0 0 +17 200 0 201 200 200 0 50 48 0 0 -15 201 185 0 200
 80 0 15 85 184 0 53 80 201 17 53 0 85 53 53 0 202 51 0 0 +17 202 0 203 202 202
 0 53 51 0 0 -15 203 181 0 202 77 0 15 81 180 0 55 77 203 17 55 0 81 55 55 0 204
 54 0 0 +17 204 0 60 204 204 0 55 54 0 0 -15 60 177 0 204 59 0 82 1 69 176075716
5 19 11 28 0 1 0 7 4 S0 74 4 CI16 index_map_offset0 0 1 dCCZ20 9 2 0 0 120 149 0
 0 0 0 0 0 0 0 0 0 0 0 0 0 0 0 0 0 1 0 
