solid OpenSCAD_Model
  facet normal 0.994461 0.105108 0
    outer loop
      vertex 2.34755 0.498987 26
      vertex 2.34918 0.483565 17.3136
      vertex 2.34755 0.498987 0
    endloop
  endfacet
  facet normal 0.994525 0.104495 1.10071e-06
    outer loop
      vertex 2.34755 0.498987 26
      vertex 2.36288 0.353169 17.9271
      vertex 2.34918 0.483565 17.3136
    endloop
  endfacet
  facet normal 0.994522 0.104524 5.55368e-07
    outer loop
      vertex 2.34755 0.498987 26
      vertex 2.38969 0.0980759 18.5
      vertex 2.36288 0.353169 17.9271
    endloop
  endfacet
  facet normal 0.994521 0.104537 -0
    outer loop
      vertex 2.4 0 18.635
      vertex 2.34755 0.498987 26
      vertex 2.4 0 26
    endloop
  endfacet
  facet normal 0.99452 0.104546 -5.98223e-07
    outer loop
      vertex 2.34755 0.498987 26
      vertex 2.4 0 18.635
      vertex 2.38969 0.0980759 18.5
    endloop
  endfacet
  facet normal 0.994461 0.105108 -0
    outer loop
      vertex 2.34918 0.483565 16.6864
      vertex 2.34755 0.498987 0
      vertex 2.34918 0.483565 17.3136
    endloop
  endfacet
  facet normal 0.994526 0.104492 -5.7528e-07
    outer loop
      vertex 2.36288 0.353169 16.0729
      vertex 2.34755 0.498987 0
      vertex 2.34918 0.483565 16.6864
    endloop
  endfacet
  facet normal 0.994522 0.104524 -2.84463e-07
    outer loop
      vertex 2.38969 0.0980759 15.5
      vertex 2.34755 0.498987 0
      vertex 2.36288 0.353169 16.0729
    endloop
  endfacet
  facet normal 0.99452 0.104546 3.00078e-07
    outer loop
      vertex 2.4 0 15.365
      vertex 2.34755 0.498987 0
      vertex 2.38969 0.0980759 15.5
    endloop
  endfacet
  facet normal 0.994521 0.104537 0
    outer loop
      vertex 2.34755 0.498987 0
      vertex 2.4 0 15.365
      vertex 2.4 0 0
    endloop
  endfacet
  facet normal -0.994521 0.104537 0
    outer loop
      vertex -2.4 0 21
      vertex -2.34755 0.498987 0
      vertex -2.4 0 0
    endloop
  endfacet
  facet normal -0.994521 0.104537 0
    outer loop
      vertex -2.34755 0.498987 0
      vertex -2.4 0 21
      vertex -2.34755 0.498987 26
    endloop
  endfacet
  facet normal -0.994521 0.104537 0
    outer loop
      vertex -2.34755 0.498987 26
      vertex -2.4 0 21
      vertex -2.4 0 26
    endloop
  endfacet
  facet normal 0 1 -0
    outer loop
      vertex 0.250868 2.38685 0
      vertex -0.250868 2.38685 26
      vertex 0.250868 2.38685 26
    endloop
  endfacet
  facet normal 0 1 0
    outer loop
      vertex -0.250868 2.38685 26
      vertex 0.250868 2.38685 0
      vertex -0.250868 2.38685 0
    endloop
  endfacet
  facet normal 0 -1 0
    outer loop
      vertex -0.250868 -2.38685 21
      vertex 0.250868 -2.38685 26
      vertex -0.250868 -2.38685 26
    endloop
  endfacet
  facet normal 0 -1 -0
    outer loop
      vertex 0.250868 -2.38685 26
      vertex -0.250868 -2.38685 21
      vertex 0.250868 -2.38685 21
    endloop
  endfacet
  facet normal 0.743148 0.669127 0
    outer loop
      vertex 1.94164 1.41068 26
      vertex 1.60591 1.78355 0
      vertex 1.60591 1.78355 26
    endloop
  endfacet
  facet normal 0.743148 0.669127 0
    outer loop
      vertex 1.60591 1.78355 0
      vertex 1.94164 1.41068 26
      vertex 1.94164 1.41068 0
    endloop
  endfacet
  facet normal 0.95106 0.309007 0
    outer loop
      vertex 2.34755 0.498987 26
      vertex 2.19251 0.976168 0
      vertex 2.19251 0.976168 26
    endloop
  endfacet
  facet normal 0.95106 0.309007 0
    outer loop
      vertex 2.19251 0.976168 0
      vertex 2.34755 0.498987 26
      vertex 2.34755 0.498987 0
    endloop
  endfacet
  facet normal -0.587784 0.809018 0
    outer loop
      vertex -1.2 2.07846 0
      vertex -1.60591 1.78355 26
      vertex -1.2 2.07846 26
    endloop
  endfacet
  facet normal -0.587784 0.809018 0
    outer loop
      vertex -1.60591 1.78355 26
      vertex -1.2 2.07846 0
      vertex -1.60591 1.78355 0
    endloop
  endfacet
  facet normal -0.207899 0.97815 0
    outer loop
      vertex -0.250868 2.38685 0
      vertex -0.74164 2.28254 26
      vertex -0.250868 2.38685 26
    endloop
  endfacet
  facet normal -0.207899 0.97815 0
    outer loop
      vertex -0.74164 2.28254 26
      vertex -0.250868 2.38685 0
      vertex -0.74164 2.28254 0
    endloop
  endfacet
  facet normal 0.866022 -0.500006 0
    outer loop
      vertex 2 -1.3096 21
      vertex 2.19251 -0.976168 19.5653
      vertex 2.19251 -0.976168 26
    endloop
  endfacet
  facet normal 0.866021 -0.500008 -8.22908e-07
    outer loop
      vertex 2.19251 -0.976168 19.5653
      vertex 2 -1.3096 21
      vertex 2.01721 -1.27979 19.7406
    endloop
  endfacet
  facet normal 0.866022 -0.500007 7.20383e-08
    outer loop
      vertex 1.94164 -1.41068 26
      vertex 2 -1.3096 21
      vertex 2.19251 -0.976168 26
    endloop
  endfacet
  facet normal 0.86602 -0.500009 0
    outer loop
      vertex 2 -1.3096 21
      vertex 1.94164 -1.41068 26
      vertex 1.94164 -1.41068 21
    endloop
  endfacet
  facet normal 0.866036 -0.499982 0
    outer loop
      vertex 2.01721 -1.27979 19.7406
      vertex 2 -1.3096 21
      vertex 2 -1.3096 19.7503
    endloop
  endfacet
  facet normal 0.866021 -0.500008 0
    outer loop
      vertex 2.01721 -1.27979 14.2594
      vertex 2.19251 -0.976168 0
      vertex 2.19251 -0.976168 14.4347
    endloop
  endfacet
  facet normal 0.866036 -0.499982 7.25133e-07
    outer loop
      vertex 2 -1.3096 14.2497
      vertex 2.19251 -0.976168 0
      vertex 2.01721 -1.27979 14.2594
    endloop
  endfacet
  facet normal 0.866022 -0.500006 0
    outer loop
      vertex 2.19251 -0.976168 0
      vertex 2 -1.3096 14.2497
      vertex 2 -1.3096 0
    endloop
  endfacet
  facet normal 0.866022 0.500007 0
    outer loop
      vertex 2.19251 0.976168 26
      vertex 1.94164 1.41068 0
      vertex 1.94164 1.41068 26
    endloop
  endfacet
  facet normal 0.866022 0.500007 0
    outer loop
      vertex 1.94164 1.41068 0
      vertex 2.19251 0.976168 26
      vertex 2.19251 0.976168 0
    endloop
  endfacet
  facet normal 0.406745 0.913542 -0
    outer loop
      vertex 1.2 2.07846 0
      vertex 0.74164 2.28254 26
      vertex 1.2 2.07846 26
    endloop
  endfacet
  facet normal 0.406745 0.913542 0
    outer loop
      vertex 0.74164 2.28254 26
      vertex 1.2 2.07846 0
      vertex 0.74164 2.28254 0
    endloop
  endfacet
  facet normal 0.207899 0.97815 -0
    outer loop
      vertex 0.74164 2.28254 0
      vertex 0.250868 2.38685 26
      vertex 0.74164 2.28254 26
    endloop
  endfacet
  facet normal 0.207899 0.97815 0
    outer loop
      vertex 0.250868 2.38685 26
      vertex 0.74164 2.28254 0
      vertex 0.250868 2.38685 0
    endloop
  endfacet
  facet normal 0.587784 0.809018 -0
    outer loop
      vertex 1.60591 1.78355 0
      vertex 1.2 2.07846 26
      vertex 1.60591 1.78355 26
    endloop
  endfacet
  facet normal 0.587784 0.809018 0
    outer loop
      vertex 1.2 2.07846 26
      vertex 1.60591 1.78355 0
      vertex 1.2 2.07846 0
    endloop
  endfacet
  facet normal -0.866022 0.500007 0
    outer loop
      vertex -2.19251 0.976168 0
      vertex -1.94164 1.41068 26
      vertex -1.94164 1.41068 0
    endloop
  endfacet
  facet normal -0.866022 0.500007 0
    outer loop
      vertex -1.94164 1.41068 26
      vertex -2.19251 0.976168 0
      vertex -2.19251 0.976168 26
    endloop
  endfacet
  facet normal -0.743148 0.669127 0
    outer loop
      vertex -1.94164 1.41068 0
      vertex -1.60591 1.78355 26
      vertex -1.60591 1.78355 0
    endloop
  endfacet
  facet normal -0.743148 0.669127 0
    outer loop
      vertex -1.60591 1.78355 26
      vertex -1.94164 1.41068 0
      vertex -1.94164 1.41068 26
    endloop
  endfacet
  facet normal -0.95106 0.309007 0
    outer loop
      vertex -2.34755 0.498987 0
      vertex -2.19251 0.976168 26
      vertex -2.19251 0.976168 0
    endloop
  endfacet
  facet normal -0.95106 0.309007 0
    outer loop
      vertex -2.19251 0.976168 26
      vertex -2.34755 0.498987 0
      vertex -2.34755 0.498987 26
    endloop
  endfacet
  facet normal -0.406745 0.913542 0
    outer loop
      vertex -0.74164 2.28254 0
      vertex -1.2 2.07846 26
      vertex -0.74164 2.28254 26
    endloop
  endfacet
  facet normal -0.406745 0.913542 0
    outer loop
      vertex -1.2 2.07846 26
      vertex -0.74164 2.28254 0
      vertex -1.2 2.07846 0
    endloop
  endfacet
  facet normal 0 0 -1
    outer loop
      vertex -2.4 0 0
      vertex 2 -1.3096 0
      vertex 2 -1.51295 0
    endloop
  endfacet
  facet normal 0 0 -1
    outer loop
      vertex 2 -1.3096 0
      vertex -2.4 0 0
      vertex 1.94164 1.41068 0
    endloop
  endfacet
  facet normal 0 0 -1
    outer loop
      vertex 1.94164 1.41068 0
      vertex 1.2 2.07846 0
      vertex 1.60591 1.78355 0
    endloop
  endfacet
  facet normal 0 0 -1
    outer loop
      vertex 1.94164 1.41068 0
      vertex 0.74164 2.28254 0
      vertex 1.2 2.07846 0
    endloop
  endfacet
  facet normal 0 0 -1
    outer loop
      vertex 1.94164 1.41068 0
      vertex 0.250868 2.38685 0
      vertex 0.74164 2.28254 0
    endloop
  endfacet
  facet normal 0 0 -1
    outer loop
      vertex 1.94164 1.41068 0
      vertex -0.250868 2.38685 0
      vertex 0.250868 2.38685 0
    endloop
  endfacet
  facet normal 0 0 -1
    outer loop
      vertex 1.94164 1.41068 0
      vertex -0.74164 2.28254 0
      vertex -0.250868 2.38685 0
    endloop
  endfacet
  facet normal 0 0 -1
    outer loop
      vertex 1.94164 1.41068 0
      vertex -1.2 2.07846 0
      vertex -0.74164 2.28254 0
    endloop
  endfacet
  facet normal 0 0 -1
    outer loop
      vertex 1.94164 1.41068 0
      vertex -1.60591 1.78355 0
      vertex -1.2 2.07846 0
    endloop
  endfacet
  facet normal 0 0 -1
    outer loop
      vertex 1.94164 1.41068 0
      vertex -1.94164 1.41068 0
      vertex -1.60591 1.78355 0
    endloop
  endfacet
  facet normal -0 0 -1
    outer loop
      vertex 1.94164 1.41068 0
      vertex -2.19251 0.976168 0
      vertex -1.94164 1.41068 0
    endloop
  endfacet
  facet normal 0 0 -1
    outer loop
      vertex 1.94164 1.41068 0
      vertex -2.34755 0.498987 0
      vertex -2.19251 0.976168 0
    endloop
  endfacet
  facet normal 0 0 -1
    outer loop
      vertex 1.94164 1.41068 0
      vertex -2.4 0 0
      vertex -2.34755 0.498987 0
    endloop
  endfacet
  facet normal 0 0 -1
    outer loop
      vertex -3.47735 -11 0
      vertex -2.4 0 0
      vertex 2 -1.51295 0
    endloop
  endfacet
  facet normal 0 0 -1
    outer loop
      vertex -5 0 0
      vertex -3.47735 -11 0
      vertex -5 -11 0
    endloop
  endfacet
  facet normal 0 0 -1
    outer loop
      vertex -3.47735 -11 0
      vertex -5 0 0
      vertex -2.4 0 0
    endloop
  endfacet
  facet normal 0 0 -1
    outer loop
      vertex 2.34755 -0.498987 0
      vertex 2.34755 0.498987 0
      vertex 2.4 0 0
    endloop
  endfacet
  facet normal 0 0 -1
    outer loop
      vertex 2 -1.3096 0
      vertex 2.34755 -0.498987 0
      vertex 2.19251 -0.976168 0
    endloop
  endfacet
  facet normal -0 0 -1
    outer loop
      vertex 2.34755 -0.498987 0
      vertex 2 -1.3096 0
      vertex 2.34755 0.498987 0
    endloop
  endfacet
  facet normal -0 0 -1
    outer loop
      vertex 2.34755 0.498987 0
      vertex 2 -1.3096 0
      vertex 2.19251 0.976168 0
    endloop
  endfacet
  facet normal -0 0 -1
    outer loop
      vertex 2.19251 0.976168 0
      vertex 2 -1.3096 0
      vertex 1.94164 1.41068 0
    endloop
  endfacet
  facet normal 0.207899 -0.97815 0
    outer loop
      vertex 0.250868 -2.38685 21
      vertex 0.74164 -2.28254 26
      vertex 0.250868 -2.38685 26
    endloop
  endfacet
  facet normal 0.207899 -0.97815 0
    outer loop
      vertex 0.74164 -2.28254 26
      vertex 0.250868 -2.38685 21
      vertex 0.74164 -2.28254 21
    endloop
  endfacet
  facet normal 0.587784 -0.809018 0
    outer loop
      vertex 1.2 -2.07846 21
      vertex 1.60591 -1.78355 26
      vertex 1.2 -2.07846 26
    endloop
  endfacet
  facet normal 0.587784 -0.809018 0
    outer loop
      vertex 1.60591 -1.78355 26
      vertex 1.2 -2.07846 21
      vertex 1.60591 -1.78355 21
    endloop
  endfacet
  facet normal 0.743148 -0.669127 0
    outer loop
      vertex 1.60591 -1.78355 26
      vertex 1.94164 -1.41068 21
      vertex 1.94164 -1.41068 26
    endloop
  endfacet
  facet normal 0.743148 -0.669127 0
    outer loop
      vertex 1.94164 -1.41068 21
      vertex 1.60591 -1.78355 26
      vertex 1.60591 -1.78355 21
    endloop
  endfacet
  facet normal 0.951056 -0.309019 0
    outer loop
      vertex 2.34755 -0.498987 26
      vertex 2.27033 -0.736644 19.4271
      vertex 2.34755 -0.498987 19.2131
    endloop
  endfacet
  facet normal 0.95106 -0.309007 0
    outer loop
      vertex 2.19251 -0.976168 19.5653
      vertex 2.34755 -0.498987 26
      vertex 2.19251 -0.976168 26
    endloop
  endfacet
  facet normal 0.951063 -0.308996 -9.32322e-07
    outer loop
      vertex 2.34755 -0.498987 26
      vertex 2.19251 -0.976168 19.5653
      vertex 2.27033 -0.736644 19.4271
    endloop
  endfacet
  facet normal 0.951056 -0.309019 0
    outer loop
      vertex 2.27033 -0.736644 14.5729
      vertex 2.34755 -0.498987 0
      vertex 2.34755 -0.498987 14.7869
    endloop
  endfacet
  facet normal 0.951064 -0.308995 4.25282e-07
    outer loop
      vertex 2.19251 -0.976168 14.4347
      vertex 2.34755 -0.498987 0
      vertex 2.27033 -0.736644 14.5729
    endloop
  endfacet
  facet normal 0.95106 -0.309007 0
    outer loop
      vertex 2.34755 -0.498987 0
      vertex 2.19251 -0.976168 14.4347
      vertex 2.19251 -0.976168 0
    endloop
  endfacet
  facet normal 0.994521 -0.104537 0
    outer loop
      vertex 2.4 0 26
      vertex 2.37156 -0.270565 19.0074
      vertex 2.4 0 18.635
    endloop
  endfacet
  facet normal 0.994521 -0.104537 0
    outer loop
      vertex 2.34755 -0.498987 19.2131
      vertex 2.4 0 26
      vertex 2.34755 -0.498987 26
    endloop
  endfacet
  facet normal 0.994521 -0.104537 -3.37119e-08
    outer loop
      vertex 2.4 0 26
      vertex 2.34755 -0.498987 19.2131
      vertex 2.37156 -0.270565 19.0074
    endloop
  endfacet
  facet normal 0.994521 -0.104537 0
    outer loop
      vertex 2.37156 -0.270565 14.9926
      vertex 2.4 0 0
      vertex 2.4 0 15.365
    endloop
  endfacet
  facet normal 0.994521 -0.104537 1.6011e-08
    outer loop
      vertex 2.34755 -0.498987 14.7869
      vertex 2.4 0 0
      vertex 2.37156 -0.270565 14.9926
    endloop
  endfacet
  facet normal 0.994521 -0.104537 0
    outer loop
      vertex 2.4 0 0
      vertex 2.34755 -0.498987 14.7869
      vertex 2.34755 -0.498987 0
    endloop
  endfacet
  facet normal -0.587784 -0.809018 0
    outer loop
      vertex -1.60591 -1.78355 21
      vertex -1.2 -2.07846 26
      vertex -1.60591 -1.78355 26
    endloop
  endfacet
  facet normal -0.587784 -0.809018 -0
    outer loop
      vertex -1.2 -2.07846 26
      vertex -1.60591 -1.78355 21
      vertex -1.2 -2.07846 21
    endloop
  endfacet
  facet normal -0.866022 -0.500007 0
    outer loop
      vertex -1.94164 -1.41068 21
      vertex -2.19251 -0.976168 26
      vertex -2.19251 -0.976168 21
    endloop
  endfacet
  facet normal -0.866022 -0.500007 0
    outer loop
      vertex -2.19251 -0.976168 26
      vertex -1.94164 -1.41068 21
      vertex -1.94164 -1.41068 26
    endloop
  endfacet
  facet normal -0.743148 -0.669127 0
    outer loop
      vertex -1.60591 -1.78355 21
      vertex -1.94164 -1.41068 26
      vertex -1.94164 -1.41068 21
    endloop
  endfacet
  facet normal -0.743148 -0.669127 0
    outer loop
      vertex -1.94164 -1.41068 26
      vertex -1.60591 -1.78355 21
      vertex -1.60591 -1.78355 26
    endloop
  endfacet
  facet normal 0.406745 -0.913542 0
    outer loop
      vertex 0.74164 -2.28254 21
      vertex 1.2 -2.07846 26
      vertex 0.74164 -2.28254 26
    endloop
  endfacet
  facet normal 0.406745 -0.913542 0
    outer loop
      vertex 1.2 -2.07846 26
      vertex 0.74164 -2.28254 21
      vertex 1.2 -2.07846 21
    endloop
  endfacet
  facet normal -0.207899 -0.97815 0
    outer loop
      vertex -0.74164 -2.28254 21
      vertex -0.250868 -2.38685 26
      vertex -0.74164 -2.28254 26
    endloop
  endfacet
  facet normal -0.207899 -0.97815 -0
    outer loop
      vertex -0.250868 -2.38685 26
      vertex -0.74164 -2.28254 21
      vertex -0.250868 -2.38685 21
    endloop
  endfacet
  facet normal -0.95106 -0.309007 0
    outer loop
      vertex -2.19251 -0.976168 21
      vertex -2.34755 -0.498987 26
      vertex -2.34755 -0.498987 21
    endloop
  endfacet
  facet normal -0.95106 -0.309007 0
    outer loop
      vertex -2.34755 -0.498987 26
      vertex -2.19251 -0.976168 21
      vertex -2.19251 -0.976168 26
    endloop
  endfacet
  facet normal -0.994521 -0.104537 0
    outer loop
      vertex -2.34755 -0.498987 21
      vertex -2.4 0 26
      vertex -2.4 0 21
    endloop
  endfacet
  facet normal -0.994521 -0.104537 0
    outer loop
      vertex -2.4 0 26
      vertex -2.34755 -0.498987 21
      vertex -2.34755 -0.498987 26
    endloop
  endfacet
  facet normal -0.406745 -0.913542 0
    outer loop
      vertex -1.2 -2.07846 21
      vertex -0.74164 -2.28254 26
      vertex -1.2 -2.07846 26
    endloop
  endfacet
  facet normal -0.406745 -0.913542 -0
    outer loop
      vertex -0.74164 -2.28254 26
      vertex -1.2 -2.07846 21
      vertex -0.74164 -2.28254 21
    endloop
  endfacet
  facet normal 0.953008 0.100174 0.285903
    outer loop
      vertex 2.34755 0.498987 26
      vertex 1.8 0 28
      vertex 2.4 0 26
    endloop
  endfacet
  facet normal 0.911361 0.296109 0.285904
    outer loop
      vertex 2.19251 0.976168 26
      vertex 1.64438 0.732125 28
      vertex 2.34755 0.498987 26
    endloop
  endfacet
  facet normal 0.712122 -0.641203 0.285904
    outer loop
      vertex 1.45623 -1.05801 28
      vertex 1.20443 -1.33766 28
      vertex 1.60591 -1.78355 26
    endloop
  endfacet
  facet normal 0.712128 0.641196 0.285903
    outer loop
      vertex 1.60591 1.78355 26
      vertex 1.45623 1.05801 28
      vertex 1.94164 1.41068 26
    endloop
  endfacet
  facet normal 0.56325 0.775249 0.285901
    outer loop
      vertex 1.2 2.07846 26
      vertex 0.9 1.55885 28
      vertex 1.60591 1.78355 26
    endloop
  endfacet
  facet normal -0.199238 0.937318 0.285901
    outer loop
      vertex -0.250868 2.38685 26
      vertex -0.556231 1.7119 28
      vertex -0.18815 1.79014 28
    endloop
  endfacet
  facet normal -0.712128 0.641196 0.285903
    outer loop
      vertex -1.60591 1.78355 26
      vertex -1.94164 1.41068 26
      vertex -1.45623 1.05801 28
    endloop
  endfacet
  facet normal -0.953008 0.100174 0.285903
    outer loop
      vertex -2.34755 0.498987 26
      vertex -2.4 0 26
      vertex -1.8 0 28
    endloop
  endfacet
  facet normal 0 -0.958259 0.285901
    outer loop
      vertex -0.250868 -2.38685 26
      vertex 0.18815 -1.79014 28
      vertex -0.18815 -1.79014 28
    endloop
  endfacet
  facet normal 0 -0.958259 0.285901
    outer loop
      vertex 0.18815 -1.79014 28
      vertex -0.250868 -2.38685 26
      vertex 0.250868 -2.38685 26
    endloop
  endfacet
  facet normal -0.829873 -0.479136 0.285903
    outer loop
      vertex -1.45623 -1.05801 28
      vertex -2.19251 -0.976168 26
      vertex -1.94164 -1.41068 26
    endloop
  endfacet
  facet normal 0.829876 0.47913 0.285904
    outer loop
      vertex 2.19251 0.976168 26
      vertex 1.45623 1.05801 28
      vertex 1.64438 0.732125 28
    endloop
  endfacet
  facet normal 0.953008 -0.100174 0.285903
    outer loop
      vertex 2.4 0 26
      vertex 1.8 0 28
      vertex 2.34755 -0.498987 26
    endloop
  endfacet
  facet normal 0.199221 0.93732 0.285905
    outer loop
      vertex 0.74164 2.28254 26
      vertex 0.250868 2.38685 26
      vertex 0.556231 1.7119 28
    endloop
  endfacet
  facet normal 0.389767 0.875409 0.285905
    outer loop
      vertex 0.74164 2.28254 26
      vertex 0.556231 1.7119 28
      vertex 1.2 2.07846 26
    endloop
  endfacet
  facet normal 0.389747 0.875419 0.2859
    outer loop
      vertex 1.2 2.07846 26
      vertex 0.556231 1.7119 28
      vertex 0.9 1.55885 28
    endloop
  endfacet
  facet normal -0.56325 0.775249 0.285901
    outer loop
      vertex -1.2 2.07846 26
      vertex -1.60591 1.78355 26
      vertex -0.9 1.55885 28
    endloop
  endfacet
  facet normal -0.199221 0.93732 0.285905
    outer loop
      vertex -0.250868 2.38685 26
      vertex -0.74164 2.28254 26
      vertex -0.556231 1.7119 28
    endloop
  endfacet
  facet normal -0.389747 0.875419 0.2859
    outer loop
      vertex -0.556231 1.7119 28
      vertex -1.2 2.07846 26
      vertex -0.9 1.55885 28
    endloop
  endfacet
  facet normal 0.199238 0.937318 0.285901
    outer loop
      vertex 0.250868 2.38685 26
      vertex 0.18815 1.79014 28
      vertex 0.556231 1.7119 28
    endloop
  endfacet
  facet normal -0.829873 0.479136 0.285903
    outer loop
      vertex -1.94164 1.41068 26
      vertex -2.19251 0.976168 26
      vertex -1.45623 1.05801 28
    endloop
  endfacet
  facet normal -0.829876 0.47913 0.285904
    outer loop
      vertex -1.45623 1.05801 28
      vertex -2.19251 0.976168 26
      vertex -1.64438 0.732125 28
    endloop
  endfacet
  facet normal 0 0 1
    outer loop
      vertex 1.76066 0.374241 28
      vertex 1.76066 -0.374241 28
      vertex 1.8 0 28
    endloop
  endfacet
  facet normal 0 0 1
    outer loop
      vertex 1.64438 0.732125 28
      vertex 1.76066 -0.374241 28
      vertex 1.76066 0.374241 28
    endloop
  endfacet
  facet normal 0 0 1
    outer loop
      vertex 1.64438 0.732125 28
      vertex 1.64438 -0.732125 28
      vertex 1.76066 -0.374241 28
    endloop
  endfacet
  facet normal 0 0 1
    outer loop
      vertex 1.45623 1.05801 28
      vertex 1.64438 -0.732125 28
      vertex 1.64438 0.732125 28
    endloop
  endfacet
  facet normal 0 0 1
    outer loop
      vertex 1.45623 1.05801 28
      vertex 1.45623 -1.05801 28
      vertex 1.64438 -0.732125 28
    endloop
  endfacet
  facet normal 0 0 1
    outer loop
      vertex 1.20443 1.33766 28
      vertex 1.45623 -1.05801 28
      vertex 1.45623 1.05801 28
    endloop
  endfacet
  facet normal 0 0 1
    outer loop
      vertex 1.20443 1.33766 28
      vertex 1.20443 -1.33766 28
      vertex 1.45623 -1.05801 28
    endloop
  endfacet
  facet normal 0 0 1
    outer loop
      vertex 0.9 1.55885 28
      vertex 1.20443 -1.33766 28
      vertex 1.20443 1.33766 28
    endloop
  endfacet
  facet normal 0 0 1
    outer loop
      vertex 0.9 1.55885 28
      vertex 0.9 -1.55885 28
      vertex 1.20443 -1.33766 28
    endloop
  endfacet
  facet normal 0 0 1
    outer loop
      vertex 0.556231 1.7119 28
      vertex 0.9 -1.55885 28
      vertex 0.9 1.55885 28
    endloop
  endfacet
  facet normal 0 0 1
    outer loop
      vertex 0.556231 1.7119 28
      vertex 0.556231 -1.7119 28
      vertex 0.9 -1.55885 28
    endloop
  endfacet
  facet normal 0 0 1
    outer loop
      vertex 0.18815 1.79014 28
      vertex 0.556231 -1.7119 28
      vertex 0.556231 1.7119 28
    endloop
  endfacet
  facet normal 0 0 1
    outer loop
      vertex 0.18815 1.79014 28
      vertex 0.18815 -1.79014 28
      vertex 0.556231 -1.7119 28
    endloop
  endfacet
  facet normal -0 0 1
    outer loop
      vertex -0.18815 1.79014 28
      vertex 0.18815 -1.79014 28
      vertex 0.18815 1.79014 28
    endloop
  endfacet
  facet normal 0 0 1
    outer loop
      vertex -0.18815 1.79014 28
      vertex -0.18815 -1.79014 28
      vertex 0.18815 -1.79014 28
    endloop
  endfacet
  facet normal -0 0 1
    outer loop
      vertex -0.556231 1.7119 28
      vertex -0.18815 -1.79014 28
      vertex -0.18815 1.79014 28
    endloop
  endfacet
  facet normal 0 0 1
    outer loop
      vertex -0.556231 1.7119 28
      vertex -0.556231 -1.7119 28
      vertex -0.18815 -1.79014 28
    endloop
  endfacet
  facet normal -0 0 1
    outer loop
      vertex -0.9 1.55885 28
      vertex -0.556231 -1.7119 28
      vertex -0.556231 1.7119 28
    endloop
  endfacet
  facet normal 0 0 1
    outer loop
      vertex -0.9 1.55885 28
      vertex -0.9 -1.55885 28
      vertex -0.556231 -1.7119 28
    endloop
  endfacet
  facet normal -0 0 1
    outer loop
      vertex -1.20443 1.33766 28
      vertex -0.9 -1.55885 28
      vertex -0.9 1.55885 28
    endloop
  endfacet
  facet normal 0 0 1
    outer loop
      vertex -1.20443 1.33766 28
      vertex -1.20443 -1.33766 28
      vertex -0.9 -1.55885 28
    endloop
  endfacet
  facet normal -0 0 1
    outer loop
      vertex -1.45623 1.05801 28
      vertex -1.20443 -1.33766 28
      vertex -1.20443 1.33766 28
    endloop
  endfacet
  facet normal 0 0 1
    outer loop
      vertex -1.45623 1.05801 28
      vertex -1.45623 -1.05801 28
      vertex -1.20443 -1.33766 28
    endloop
  endfacet
  facet normal -0 0 1
    outer loop
      vertex -1.64438 0.732125 28
      vertex -1.45623 -1.05801 28
      vertex -1.45623 1.05801 28
    endloop
  endfacet
  facet normal 0 0 1
    outer loop
      vertex -1.64438 0.732125 28
      vertex -1.64438 -0.732125 28
      vertex -1.45623 -1.05801 28
    endloop
  endfacet
  facet normal -0 0 1
    outer loop
      vertex -1.76066 0.374241 28
      vertex -1.64438 -0.732125 28
      vertex -1.64438 0.732125 28
    endloop
  endfacet
  facet normal 0 0 1
    outer loop
      vertex -1.76066 0.374241 28
      vertex -1.76066 -0.374241 28
      vertex -1.64438 -0.732125 28
    endloop
  endfacet
  facet normal 0 -0 1
    outer loop
      vertex -1.76066 -0.374241 28
      vertex -1.76066 0.374241 28
      vertex -1.8 0 28
    endloop
  endfacet
  facet normal -0.712122 -0.641203 0.285904
    outer loop
      vertex -1.45623 -1.05801 28
      vertex -1.60591 -1.78355 26
      vertex -1.20443 -1.33766 28
    endloop
  endfacet
  facet normal 0.911361 0.29611 0.285903
    outer loop
      vertex 2.34755 0.498987 26
      vertex 1.64438 0.732125 28
      vertex 1.76066 0.374241 28
    endloop
  endfacet
  facet normal 0.829873 0.479136 0.285903
    outer loop
      vertex 1.94164 1.41068 26
      vertex 1.45623 1.05801 28
      vertex 2.19251 0.976168 26
    endloop
  endfacet
  facet normal 0.563264 0.775237 0.285905
    outer loop
      vertex 1.60591 1.78355 26
      vertex 0.9 1.55885 28
      vertex 1.20443 1.33766 28
    endloop
  endfacet
  facet normal 0.199221 -0.93732 0.285905
    outer loop
      vertex 0.556231 -1.7119 28
      vertex 0.250868 -2.38685 26
      vertex 0.74164 -2.28254 26
    endloop
  endfacet
  facet normal 0.389767 -0.875409 0.285905
    outer loop
      vertex 1.2 -2.07846 26
      vertex 0.556231 -1.7119 28
      vertex 0.74164 -2.28254 26
    endloop
  endfacet
  facet normal 0.829876 -0.47913 0.285904
    outer loop
      vertex 1.64438 -0.732125 28
      vertex 1.45623 -1.05801 28
      vertex 2.19251 -0.976168 26
    endloop
  endfacet
  facet normal -0.389767 0.875409 0.285905
    outer loop
      vertex -0.74164 2.28254 26
      vertex -1.2 2.07846 26
      vertex -0.556231 1.7119 28
    endloop
  endfacet
  facet normal -0.563264 0.775237 0.285905
    outer loop
      vertex -0.9 1.55885 28
      vertex -1.60591 1.78355 26
      vertex -1.20443 1.33766 28
    endloop
  endfacet
  facet normal -0.712122 0.641203 0.285904
    outer loop
      vertex -1.20443 1.33766 28
      vertex -1.60591 1.78355 26
      vertex -1.45623 1.05801 28
    endloop
  endfacet
  facet normal 0 0.958259 0.285901
    outer loop
      vertex 0.250868 2.38685 26
      vertex -0.18815 1.79014 28
      vertex 0.18815 1.79014 28
    endloop
  endfacet
  facet normal 0 0.958259 0.285901
    outer loop
      vertex -0.18815 1.79014 28
      vertex 0.250868 2.38685 26
      vertex -0.250868 2.38685 26
    endloop
  endfacet
  facet normal -0.829876 -0.47913 0.285904
    outer loop
      vertex -1.64438 -0.732125 28
      vertex -2.19251 -0.976168 26
      vertex -1.45623 -1.05801 28
    endloop
  endfacet
  facet normal -0.911361 -0.296109 0.285904
    outer loop
      vertex -1.64438 -0.732125 28
      vertex -2.34755 -0.498987 26
      vertex -2.19251 -0.976168 26
    endloop
  endfacet
  facet normal -0.911361 -0.29611 0.285903
    outer loop
      vertex -1.76066 -0.374241 28
      vertex -2.34755 -0.498987 26
      vertex -1.64438 -0.732125 28
    endloop
  endfacet
  facet normal -0.911361 0.296109 0.285904
    outer loop
      vertex -2.19251 0.976168 26
      vertex -2.34755 0.498987 26
      vertex -1.64438 0.732125 28
    endloop
  endfacet
  facet normal -0.199221 -0.93732 0.285905
    outer loop
      vertex -0.556231 -1.7119 28
      vertex -0.74164 -2.28254 26
      vertex -0.250868 -2.38685 26
    endloop
  endfacet
  facet normal 0.953007 0.10018 0.285904
    outer loop
      vertex 2.34755 0.498987 26
      vertex 1.76066 0.374241 28
      vertex 1.8 0 28
    endloop
  endfacet
  facet normal 0.712122 0.641203 0.285904
    outer loop
      vertex 1.60591 1.78355 26
      vertex 1.20443 1.33766 28
      vertex 1.45623 1.05801 28
    endloop
  endfacet
  facet normal 0.389747 -0.875419 0.2859
    outer loop
      vertex 0.9 -1.55885 28
      vertex 0.556231 -1.7119 28
      vertex 1.2 -2.07846 26
    endloop
  endfacet
  facet normal 0.56325 -0.775249 0.285901
    outer loop
      vertex 1.60591 -1.78355 26
      vertex 0.9 -1.55885 28
      vertex 1.2 -2.07846 26
    endloop
  endfacet
  facet normal 0.829873 -0.479136 0.285903
    outer loop
      vertex 2.19251 -0.976168 26
      vertex 1.45623 -1.05801 28
      vertex 1.94164 -1.41068 26
    endloop
  endfacet
  facet normal 0.712128 -0.641196 0.285903
    outer loop
      vertex 1.94164 -1.41068 26
      vertex 1.45623 -1.05801 28
      vertex 1.60591 -1.78355 26
    endloop
  endfacet
  facet normal 0.911361 -0.296109 0.285904
    outer loop
      vertex 2.34755 -0.498987 26
      vertex 1.64438 -0.732125 28
      vertex 2.19251 -0.976168 26
    endloop
  endfacet
  facet normal -0.712128 -0.641196 0.285903
    outer loop
      vertex -1.45623 -1.05801 28
      vertex -1.94164 -1.41068 26
      vertex -1.60591 -1.78355 26
    endloop
  endfacet
  facet normal -0.953007 -0.10018 0.285904
    outer loop
      vertex -1.8 0 28
      vertex -2.34755 -0.498987 26
      vertex -1.76066 -0.374241 28
    endloop
  endfacet
  facet normal -0.953008 -0.100174 0.285903
    outer loop
      vertex -1.8 0 28
      vertex -2.4 0 26
      vertex -2.34755 -0.498987 26
    endloop
  endfacet
  facet normal -0.911361 0.29611 0.285903
    outer loop
      vertex -1.64438 0.732125 28
      vertex -2.34755 0.498987 26
      vertex -1.76066 0.374241 28
    endloop
  endfacet
  facet normal -0.953007 0.10018 0.285904
    outer loop
      vertex -1.76066 0.374241 28
      vertex -2.34755 0.498987 26
      vertex -1.8 0 28
    endloop
  endfacet
  facet normal -0.199238 -0.937318 0.285901
    outer loop
      vertex -0.18815 -1.79014 28
      vertex -0.556231 -1.7119 28
      vertex -0.250868 -2.38685 26
    endloop
  endfacet
  facet normal -0.389767 -0.875409 0.285905
    outer loop
      vertex -0.556231 -1.7119 28
      vertex -1.2 -2.07846 26
      vertex -0.74164 -2.28254 26
    endloop
  endfacet
  facet normal 0.563264 -0.775237 0.285905
    outer loop
      vertex 1.20443 -1.33766 28
      vertex 0.9 -1.55885 28
      vertex 1.60591 -1.78355 26
    endloop
  endfacet
  facet normal 0.911361 -0.29611 0.285903
    outer loop
      vertex 1.76066 -0.374241 28
      vertex 1.64438 -0.732125 28
      vertex 2.34755 -0.498987 26
    endloop
  endfacet
  facet normal 0.953007 -0.10018 0.285904
    outer loop
      vertex 1.8 0 28
      vertex 1.76066 -0.374241 28
      vertex 2.34755 -0.498987 26
    endloop
  endfacet
  facet normal 0.199238 -0.937318 0.285901
    outer loop
      vertex 0.556231 -1.7119 28
      vertex 0.18815 -1.79014 28
      vertex 0.250868 -2.38685 26
    endloop
  endfacet
  facet normal -0.563264 -0.775237 0.285905
    outer loop
      vertex -1.20443 -1.33766 28
      vertex -1.60591 -1.78355 26
      vertex -0.9 -1.55885 28
    endloop
  endfacet
  facet normal -0.389747 -0.875419 0.2859
    outer loop
      vertex -0.9 -1.55885 28
      vertex -1.2 -2.07846 26
      vertex -0.556231 -1.7119 28
    endloop
  endfacet
  facet normal -0.56325 -0.775249 0.285901
    outer loop
      vertex -0.9 -1.55885 28
      vertex -1.60591 -1.78355 26
      vertex -1.2 -2.07846 26
    endloop
  endfacet
  facet normal -1 0 0
    outer loop
      vertex -5 0 0
      vertex -5 -0.809312 16.8223
      vertex -5 0 21
    endloop
  endfacet
  facet normal -1 0 0
    outer loop
      vertex -5 0 0
      vertex -5 -0.883204 16.4747
      vertex -5 -0.809312 16.8223
    endloop
  endfacet
  facet normal -1 0 0
    outer loop
      vertex -5 0 0
      vertex -5 -1.02776 16.15
      vertex -5 -0.883204 16.4747
    endloop
  endfacet
  facet normal -1 0 0
    outer loop
      vertex -5 0 0
      vertex -5 -1.23665 15.8625
      vertex -5 -1.02776 16.15
    endloop
  endfacet
  facet normal -1 0 0
    outer loop
      vertex -5 0 0
      vertex -5 -1.50076 15.6247
      vertex -5 -1.23665 15.8625
    endloop
  endfacet
  facet normal -1 0 0
    outer loop
      vertex -5 0 0
      vertex -5 -1.80855 15.447
      vertex -5 -1.50076 15.6247
    endloop
  endfacet
  facet normal -1 0 0
    outer loop
      vertex -5 0 0
      vertex -5 -2.14655 15.3371
      vertex -5 -1.80855 15.447
    endloop
  endfacet
  facet normal -1 0 0
    outer loop
      vertex -5 0 0
      vertex -5 -2.5 15.3
      vertex -5 -2.14655 15.3371
    endloop
  endfacet
  facet normal -1 0 0
    outer loop
      vertex -5 0 0
      vertex -5 -2.85345 15.3371
      vertex -5 -2.5 15.3
    endloop
  endfacet
  facet normal -1 0 0
    outer loop
      vertex -5 -11 0
      vertex -5 -2.85345 15.3371
      vertex -5 0 0
    endloop
  endfacet
  facet normal -1 -0 0
    outer loop
      vertex -5 -2.85345 15.3371
      vertex -5 -11 0
      vertex -5 -3.19145 15.447
    endloop
  endfacet
  facet normal -1 -0 0
    outer loop
      vertex -5 -3.19145 15.447
      vertex -5 -11 0
      vertex -5 -3.49923 15.6247
    endloop
  endfacet
  facet normal -1 -0 0
    outer loop
      vertex -5 -3.49923 15.6247
      vertex -5 -11 0
      vertex -5 -3.76335 15.8625
    endloop
  endfacet
  facet normal -1 -0 0
    outer loop
      vertex -5 -3.76335 15.8625
      vertex -5 -11 0
      vertex -5 -3.97224 16.15
    endloop
  endfacet
  facet normal -1 0 0
    outer loop
      vertex -5 -4.1168 16.4747
      vertex -5 -11 21
      vertex -5 -4.19069 16.8223
    endloop
  endfacet
  facet normal -1 0 0
    outer loop
      vertex -5 -3.97224 16.15
      vertex -5 -11 21
      vertex -5 -4.1168 16.4747
    endloop
  endfacet
  facet normal -1 0 0
    outer loop
      vertex -5 -11 21
      vertex -5 -3.97224 16.15
      vertex -5 -11 0
    endloop
  endfacet
  facet normal -1 0 0
    outer loop
      vertex -5 -0.809312 17.1777
      vertex -5 0 21
      vertex -5 -0.809312 16.8223
    endloop
  endfacet
  facet normal -1 0 0
    outer loop
      vertex -5 -0.883204 17.5253
      vertex -5 0 21
      vertex -5 -0.809312 17.1777
    endloop
  endfacet
  facet normal -1 0 0
    outer loop
      vertex -5 -1.02776 17.85
      vertex -5 0 21
      vertex -5 -0.883204 17.5253
    endloop
  endfacet
  facet normal -1 0 0
    outer loop
      vertex -5 -1.23665 18.1375
      vertex -5 0 21
      vertex -5 -1.02776 17.85
    endloop
  endfacet
  facet normal -1 0 0
    outer loop
      vertex -5 -1.50076 18.3753
      vertex -5 0 21
      vertex -5 -1.23665 18.1375
    endloop
  endfacet
  facet normal -1 0 0
    outer loop
      vertex -5 -1.80855 18.553
      vertex -5 0 21
      vertex -5 -1.50076 18.3753
    endloop
  endfacet
  facet normal -1 0 0
    outer loop
      vertex -5 -2.14655 18.6628
      vertex -5 0 21
      vertex -5 -1.80855 18.553
    endloop
  endfacet
  facet normal -1 0 0
    outer loop
      vertex -5 -2.5 18.7
      vertex -5 0 21
      vertex -5 -2.14655 18.6628
    endloop
  endfacet
  facet normal -1 0 0
    outer loop
      vertex -5 -2.85345 18.6628
      vertex -5 0 21
      vertex -5 -2.5 18.7
    endloop
  endfacet
  facet normal -1 0 0
    outer loop
      vertex -5 -3.19145 18.553
      vertex -5 0 21
      vertex -5 -2.85345 18.6628
    endloop
  endfacet
  facet normal -1 0 0
    outer loop
      vertex -5 -11 21
      vertex -5 -3.19145 18.553
      vertex -5 -3.49923 18.3753
    endloop
  endfacet
  facet normal -1 0 0
    outer loop
      vertex -5 -4.19069 16.8223
      vertex -5 -11 21
      vertex -5 -4.19069 17.1777
    endloop
  endfacet
  facet normal -1 0 0
    outer loop
      vertex -5 -3.19145 18.553
      vertex -5 -11 21
      vertex -5 0 21
    endloop
  endfacet
  facet normal -1 0 0
    outer loop
      vertex -5 -3.76335 18.1375
      vertex -5 -11 21
      vertex -5 -3.49923 18.3753
    endloop
  endfacet
  facet normal -1 0 0
    outer loop
      vertex -5 -3.97224 17.85
      vertex -5 -11 21
      vertex -5 -3.76335 18.1375
    endloop
  endfacet
  facet normal -1 0 0
    outer loop
      vertex -5 -4.1168 17.5253
      vertex -5 -11 21
      vertex -5 -3.97224 17.85
    endloop
  endfacet
  facet normal -1 0 0
    outer loop
      vertex -5 -4.19069 17.1777
      vertex -5 -11 21
      vertex -5 -4.1168 17.5253
    endloop
  endfacet
  facet normal -0 0 1
    outer loop
      vertex 1.94164 -1.41068 21
      vertex 2 -1.51295 21
      vertex 2 -1.3096 21
    endloop
  endfacet
  facet normal 0 0 1
    outer loop
      vertex 1.60591 -1.78355 21
      vertex 2 -1.51295 21
      vertex 1.94164 -1.41068 21
    endloop
  endfacet
  facet normal 0 0 1
    outer loop
      vertex -3.47735 -11 21
      vertex 1.60591 -1.78355 21
      vertex 1.2 -2.07846 21
    endloop
  endfacet
  facet normal -0 0 1
    outer loop
      vertex 1.60591 -1.78355 21
      vertex -3.47735 -11 21
      vertex 2 -1.51295 21
    endloop
  endfacet
  facet normal -0 0 1
    outer loop
      vertex 0.74164 -2.28254 21
      vertex -3.47735 -11 21
      vertex 1.2 -2.07846 21
    endloop
  endfacet
  facet normal -0 0 1
    outer loop
      vertex 0.250868 -2.38685 21
      vertex -3.47735 -11 21
      vertex 0.74164 -2.28254 21
    endloop
  endfacet
  facet normal -0 0 1
    outer loop
      vertex -0.250868 -2.38685 21
      vertex -3.47735 -11 21
      vertex 0.250868 -2.38685 21
    endloop
  endfacet
  facet normal 0 0 1
    outer loop
      vertex -0.74164 -2.28254 21
      vertex -3.47735 -11 21
      vertex -0.250868 -2.38685 21
    endloop
  endfacet
  facet normal 0 0 1
    outer loop
      vertex -1.2 -2.07846 21
      vertex -3.47735 -11 21
      vertex -0.74164 -2.28254 21
    endloop
  endfacet
  facet normal 0 0 1
    outer loop
      vertex -5 -11 21
      vertex -1.2 -2.07846 21
      vertex -1.60591 -1.78355 21
    endloop
  endfacet
  facet normal 0 0 1
    outer loop
      vertex -5 0 21
      vertex -1.60591 -1.78355 21
      vertex -1.94164 -1.41068 21
    endloop
  endfacet
  facet normal 0 0 1
    outer loop
      vertex -5 0 21
      vertex -1.94164 -1.41068 21
      vertex -2.19251 -0.976168 21
    endloop
  endfacet
  facet normal 0 0 1
    outer loop
      vertex -5 0 21
      vertex -2.19251 -0.976168 21
      vertex -2.34755 -0.498987 21
    endloop
  endfacet
  facet normal -0 0 1
    outer loop
      vertex -5 0 21
      vertex -2.34755 -0.498987 21
      vertex -2.4 0 21
    endloop
  endfacet
  facet normal 0 0 1
    outer loop
      vertex -1.60591 -1.78355 21
      vertex -5 0 21
      vertex -5 -11 21
    endloop
  endfacet
  facet normal 0 0 1
    outer loop
      vertex -1.2 -2.07846 21
      vertex -5 -11 21
      vertex -3.47735 -11 21
    endloop
  endfacet
  facet normal 1 -0 0
    outer loop
      vertex 2 -1.51295 14.1836
      vertex 2 -1.3096 0
      vertex 2 -1.3096 14.2497
    endloop
  endfacet
  facet normal 1 0 0
    outer loop
      vertex 2 -1.3096 0
      vertex 2 -1.51295 14.1836
      vertex 2 -1.51295 0
    endloop
  endfacet
  facet normal 1 0 0
    outer loop
      vertex 2 -1.51295 19.8164
      vertex 2 -1.3096 21
      vertex 2 -1.51295 21
    endloop
  endfacet
  facet normal 1 0 0
    outer loop
      vertex 2 -1.3096 21
      vertex 2 -1.51295 19.8164
      vertex 2 -1.3096 19.7503
    endloop
  endfacet
  facet normal 0 -1 0
    outer loop
      vertex -5 -11 0
      vertex -3.47735 -11 21
      vertex -5 -11 21
    endloop
  endfacet
  facet normal 0 -1 -0
    outer loop
      vertex -3.47735 -11 21
      vertex -5 -11 0
      vertex -3.47735 -11 0
    endloop
  endfacet
  facet normal 0 1 -0
    outer loop
      vertex -2.4 0 0
      vertex -5 0 21
      vertex -2.4 0 21
    endloop
  endfacet
  facet normal 0 1 0
    outer loop
      vertex -5 0 21
      vertex -2.4 0 0
      vertex -5 0 0
    endloop
  endfacet
  facet normal 0 -0.104392 0.994536
    outer loop
      vertex -5 -2.14655 15.3371
      vertex -2 -2.5 15.3
      vertex -2 -2.14655 15.3371
    endloop
  endfacet
  facet normal 0 -0.104392 0.994536
    outer loop
      vertex -2 -2.5 15.3
      vertex -5 -2.14655 15.3371
      vertex -5 -2.5 15.3
    endloop
  endfacet
  facet normal 0 -0.10467 -0.994507
    outer loop
      vertex -5 -2.5 18.7
      vertex -2 -2.14655 18.6628
      vertex -2 -2.5 18.7
    endloop
  endfacet
  facet normal -0 -0.10467 -0.994507
    outer loop
      vertex -2 -2.14655 18.6628
      vertex -5 -2.5 18.7
      vertex -5 -2.14655 18.6628
    endloop
  endfacet
  facet normal 0 -1 0
    outer loop
      vertex -5 -0.809312 16.8223
      vertex -2 -0.809312 17.1777
      vertex -5 -0.809312 17.1777
    endloop
  endfacet
  facet normal 0 -1 -0
    outer loop
      vertex -2 -0.809312 17.1777
      vertex -5 -0.809312 16.8223
      vertex -2 -0.809312 16.8223
    endloop
  endfacet
  facet normal 0 1 -0
    outer loop
      vertex -2 -4.19069 16.8223
      vertex -5 -4.19069 17.1777
      vertex -2 -4.19069 17.1777
    endloop
  endfacet
  facet normal 0 1 0
    outer loop
      vertex -5 -4.19069 17.1777
      vertex -2 -4.19069 16.8223
      vertex -5 -4.19069 16.8223
    endloop
  endfacet
  facet normal 0 -0.309213 0.950993
    outer loop
      vertex -5 -1.80855 15.447
      vertex -2 -2.14655 15.3371
      vertex -2 -1.80855 15.447
    endloop
  endfacet
  facet normal 0 -0.309213 0.950993
    outer loop
      vertex -2 -2.14655 15.3371
      vertex -5 -1.80855 15.447
      vertex -5 -2.14655 15.3371
    endloop
  endfacet
  facet normal 0 -0.809005 -0.587802
    outer loop
      vertex -5 -1.02776 17.85
      vertex -2 -1.23665 18.1375
      vertex -5 -1.23665 18.1375
    endloop
  endfacet
  facet normal 0 -0.809005 -0.587802
    outer loop
      vertex -2 -1.23665 18.1375
      vertex -5 -1.02776 17.85
      vertex -2 -1.02776 17.85
    endloop
  endfacet
  facet normal 0 -0.978143 -0.207931
    outer loop
      vertex -5 -0.809312 17.1777
      vertex -2 -0.883204 17.5253
      vertex -5 -0.883204 17.5253
    endloop
  endfacet
  facet normal 0 -0.978143 -0.207931
    outer loop
      vertex -2 -0.883204 17.5253
      vertex -5 -0.809312 17.1777
      vertex -2 -0.809312 17.1777
    endloop
  endfacet
  facet normal -0 0.500007 0.866022
    outer loop
      vertex -5 -3.19145 15.447
      vertex -2 -3.49923 15.6247
      vertex -2 -3.19145 15.447
    endloop
  endfacet
  facet normal 0 0.500007 0.866022
    outer loop
      vertex -2 -3.49923 15.6247
      vertex -5 -3.19145 15.447
      vertex -5 -3.49923 15.6247
    endloop
  endfacet
  facet normal 0 -0.499994 0.866029
    outer loop
      vertex -5 -1.50076 15.6247
      vertex -2 -1.80855 15.447
      vertex -2 -1.50076 15.6247
    endloop
  endfacet
  facet normal 0 -0.499994 0.866029
    outer loop
      vertex -2 -1.80855 15.447
      vertex -5 -1.50076 15.6247
      vertex -5 -1.80855 15.447
    endloop
  endfacet
  facet normal 0 -0.978143 0.207931
    outer loop
      vertex -5 -0.883204 16.4747
      vertex -2 -0.809312 16.8223
      vertex -5 -0.809312 16.8223
    endloop
  endfacet
  facet normal 0 -0.978143 0.207931
    outer loop
      vertex -2 -0.809312 16.8223
      vertex -5 -0.883204 16.4747
      vertex -2 -0.883204 16.4747
    endloop
  endfacet
  facet normal 0 -0.809005 0.587802
    outer loop
      vertex -5 -1.23665 15.8625
      vertex -2 -1.02776 16.15
      vertex -5 -1.02776 16.15
    endloop
  endfacet
  facet normal 0 -0.809005 0.587802
    outer loop
      vertex -2 -1.02776 16.15
      vertex -5 -1.23665 15.8625
      vertex -2 -1.23665 15.8625
    endloop
  endfacet
  facet normal 0 -0.499994 -0.866029
    outer loop
      vertex -5 -1.80855 18.553
      vertex -2 -1.50076 18.3753
      vertex -2 -1.80855 18.553
    endloop
  endfacet
  facet normal -0 -0.499994 -0.866029
    outer loop
      vertex -2 -1.50076 18.3753
      vertex -5 -1.80855 18.553
      vertex -5 -1.50076 18.3753
    endloop
  endfacet
  facet normal 0 -0.669122 -0.743153
    outer loop
      vertex -5 -1.50076 18.3753
      vertex -2 -1.23665 18.1375
      vertex -2 -1.50076 18.3753
    endloop
  endfacet
  facet normal -0 -0.669122 -0.743153
    outer loop
      vertex -2 -1.23665 18.1375
      vertex -5 -1.50076 18.3753
      vertex -5 -1.23665 18.1375
    endloop
  endfacet
  facet normal 0 -0.308959 -0.951075
    outer loop
      vertex -5 -2.14655 18.6628
      vertex -2 -1.80855 18.553
      vertex -2 -2.14655 18.6628
    endloop
  endfacet
  facet normal -0 -0.308959 -0.951075
    outer loop
      vertex -2 -1.80855 18.553
      vertex -5 -2.14655 18.6628
      vertex -5 -1.80855 18.553
    endloop
  endfacet
  facet normal 0 -0.913556 -0.406714
    outer loop
      vertex -5 -0.883204 17.5253
      vertex -2 -1.02776 17.85
      vertex -5 -1.02776 17.85
    endloop
  endfacet
  facet normal 0 -0.913556 -0.406714
    outer loop
      vertex -2 -1.02776 17.85
      vertex -5 -0.883204 17.5253
      vertex -2 -0.883204 17.5253
    endloop
  endfacet
  facet normal -0 0.104392 0.994536
    outer loop
      vertex -5 -2.5 15.3
      vertex -2 -2.85345 15.3371
      vertex -2 -2.5 15.3
    endloop
  endfacet
  facet normal 0 0.104392 0.994536
    outer loop
      vertex -2 -2.85345 15.3371
      vertex -5 -2.5 15.3
      vertex -5 -2.85345 15.3371
    endloop
  endfacet
  facet normal 0 -0.669122 0.743153
    outer loop
      vertex -5 -1.23665 15.8625
      vertex -2 -1.50076 15.6247
      vertex -2 -1.23665 15.8625
    endloop
  endfacet
  facet normal 0 -0.669122 0.743153
    outer loop
      vertex -2 -1.50076 15.6247
      vertex -5 -1.23665 15.8625
      vertex -5 -1.50076 15.6247
    endloop
  endfacet
  facet normal 0 -0.913556 0.406714
    outer loop
      vertex -5 -1.02776 16.15
      vertex -2 -0.883204 16.4747
      vertex -5 -0.883204 16.4747
    endloop
  endfacet
  facet normal 0 -0.913556 0.406714
    outer loop
      vertex -2 -0.883204 16.4747
      vertex -5 -1.02776 16.15
      vertex -2 -1.02776 16.15
    endloop
  endfacet
  facet normal 0 0.809005 0.587802
    outer loop
      vertex -2 -3.76335 15.8625
      vertex -5 -3.97224 16.15
      vertex -2 -3.97224 16.15
    endloop
  endfacet
  facet normal 0 0.809005 0.587802
    outer loop
      vertex -5 -3.97224 16.15
      vertex -2 -3.76335 15.8625
      vertex -5 -3.76335 15.8625
    endloop
  endfacet
  facet normal -0 0.669108 0.743165
    outer loop
      vertex -5 -3.49923 15.6247
      vertex -2 -3.76335 15.8625
      vertex -2 -3.49923 15.6247
    endloop
  endfacet
  facet normal 0 0.669108 0.743165
    outer loop
      vertex -2 -3.76335 15.8625
      vertex -5 -3.49923 15.6247
      vertex -5 -3.76335 15.8625
    endloop
  endfacet
  facet normal -0 0.309213 0.950993
    outer loop
      vertex -5 -2.85345 15.3371
      vertex -2 -3.19145 15.447
      vertex -2 -2.85345 15.3371
    endloop
  endfacet
  facet normal 0 0.309213 0.950993
    outer loop
      vertex -2 -3.19145 15.447
      vertex -5 -2.85345 15.3371
      vertex -5 -3.19145 15.447
    endloop
  endfacet
  facet normal 0 0.809005 -0.587802
    outer loop
      vertex -2 -3.97224 17.85
      vertex -5 -3.76335 18.1375
      vertex -2 -3.76335 18.1375
    endloop
  endfacet
  facet normal 0 0.809005 -0.587802
    outer loop
      vertex -5 -3.76335 18.1375
      vertex -2 -3.97224 17.85
      vertex -5 -3.97224 17.85
    endloop
  endfacet
  facet normal 0 0.669108 -0.743165
    outer loop
      vertex -5 -3.76335 18.1375
      vertex -2 -3.49923 18.3753
      vertex -2 -3.76335 18.1375
    endloop
  endfacet
  facet normal 0 0.669108 -0.743165
    outer loop
      vertex -2 -3.49923 18.3753
      vertex -5 -3.76335 18.1375
      vertex -5 -3.49923 18.3753
    endloop
  endfacet
  facet normal 0 0.978145 0.207926
    outer loop
      vertex -2 -4.1168 16.4747
      vertex -5 -4.19069 16.8223
      vertex -2 -4.19069 16.8223
    endloop
  endfacet
  facet normal 0 0.978145 0.207926
    outer loop
      vertex -5 -4.19069 16.8223
      vertex -2 -4.1168 16.4747
      vertex -5 -4.1168 16.4747
    endloop
  endfacet
  facet normal 0 0.978145 -0.207926
    outer loop
      vertex -2 -4.19069 17.1777
      vertex -5 -4.1168 17.5253
      vertex -2 -4.1168 17.5253
    endloop
  endfacet
  facet normal 0 0.978145 -0.207926
    outer loop
      vertex -5 -4.1168 17.5253
      vertex -2 -4.19069 17.1777
      vertex -5 -4.19069 17.1777
    endloop
  endfacet
  facet normal 0 0.913551 -0.406723
    outer loop
      vertex -2 -4.1168 17.5253
      vertex -5 -3.97224 17.85
      vertex -2 -3.97224 17.85
    endloop
  endfacet
  facet normal 0 0.913551 -0.406723
    outer loop
      vertex -5 -3.97224 17.85
      vertex -2 -4.1168 17.5253
      vertex -5 -4.1168 17.5253
    endloop
  endfacet
  facet normal 0 0.500007 -0.866022
    outer loop
      vertex -5 -3.49923 18.3753
      vertex -2 -3.19145 18.553
      vertex -2 -3.49923 18.3753
    endloop
  endfacet
  facet normal 0 0.500007 -0.866022
    outer loop
      vertex -2 -3.19145 18.553
      vertex -5 -3.49923 18.3753
      vertex -5 -3.19145 18.553
    endloop
  endfacet
  facet normal 0 0.308959 -0.951075
    outer loop
      vertex -5 -3.19145 18.553
      vertex -2 -2.85345 18.6628
      vertex -2 -3.19145 18.553
    endloop
  endfacet
  facet normal 0 0.308959 -0.951075
    outer loop
      vertex -2 -2.85345 18.6628
      vertex -5 -3.19145 18.553
      vertex -5 -2.85345 18.6628
    endloop
  endfacet
  facet normal 0 0.10467 -0.994507
    outer loop
      vertex -5 -2.85345 18.6628
      vertex -2 -2.5 18.7
      vertex -2 -2.85345 18.6628
    endloop
  endfacet
  facet normal 0 0.10467 -0.994507
    outer loop
      vertex -2 -2.5 18.7
      vertex -5 -2.85345 18.6628
      vertex -5 -2.5 18.7
    endloop
  endfacet
  facet normal 0 0.913551 0.406723
    outer loop
      vertex -2 -3.97224 16.15
      vertex -5 -4.1168 16.4747
      vertex -2 -4.1168 16.4747
    endloop
  endfacet
  facet normal 0 0.913551 0.406723
    outer loop
      vertex -5 -4.1168 16.4747
      vertex -2 -3.97224 16.15
      vertex -5 -3.97224 16.15
    endloop
  endfacet
  facet normal 0 -0.104595 0.994515
    outer loop
      vertex -2 -1.87626 14.0656
      vertex 1.43013 -2.5 14
      vertex 1.79024 -1.87626 14.0656
    endloop
  endfacet
  facet normal 0 -0.104595 0.994515
    outer loop
      vertex 1.43013 -2.5 14
      vertex -2 -1.87626 14.0656
      vertex -2 -2.5 14
    endloop
  endfacet
  facet normal 0 -0.104595 -0.994515
    outer loop
      vertex -2 -1.87626 19.9344
      vertex 1.43013 -2.5 20
      vertex -2 -2.5 20
    endloop
  endfacet
  facet normal 0 -0.104595 -0.994515
    outer loop
      vertex 1.43013 -2.5 20
      vertex -2 -1.87626 19.9344
      vertex 1.79024 -1.87626 19.9344
    endloop
  endfacet
  facet normal 0 1 -0
    outer loop
      vertex -0.292435 -5.48357 16.6864
      vertex -2 -5.48357 17.3136
      vertex -0.292435 -5.48357 17.3136
    endloop
  endfacet
  facet normal 0 1 0
    outer loop
      vertex -2 -5.48357 17.3136
      vertex -0.292435 -5.48357 16.6864
      vertex -2 -5.48357 16.6864
    endloop
  endfacet
  facet normal 0.000232711 -0.669194 -0.743087
    outer loop
      vertex 2.27033 -0.736644 19.4271
      vertex 2.37156 -0.270565 19.0074
      vertex 2.34755 -0.498987 19.2131
    endloop
  endfacet
  facet normal 0 -0.669166 -0.743113
    outer loop
      vertex -2 -0.270565 19.0074
      vertex 2.27033 -0.736644 19.4271
      vertex -2 -0.736644 19.4271
    endloop
  endfacet
  facet normal 0 -0.669166 -0.743113
    outer loop
      vertex 2.27033 -0.736644 19.4271
      vertex -2 -0.270565 19.0074
      vertex 2.37156 -0.270565 19.0074
    endloop
  endfacet
  facet normal -0 -0.913533 -0.406765
    outer loop
      vertex 2.36288 0.353169 17.9271
      vertex -2 0.0980759 18.5
      vertex -2 0.353169 17.9271
    endloop
  endfacet
  facet normal 0 -0.913533 -0.406765
    outer loop
      vertex -2 0.0980759 18.5
      vertex 2.36288 0.353169 17.9271
      vertex 2.38969 0.0980759 18.5
    endloop
  endfacet
  facet normal -0 0.499895 0.866086
    outer loop
      vertex -2 -3.72021 14.2594
      vertex 0.412054 -4.26336 14.5729
      vertex 0.725639 -3.72021 14.2594
    endloop
  endfacet
  facet normal 0 0.499895 0.866086
    outer loop
      vertex 0.412054 -4.26336 14.5729
      vertex -2 -3.72021 14.2594
      vertex -2 -4.26336 14.5729
    endloop
  endfacet
  facet normal 0.000434566 -0.309134 0.951019
    outer loop
      vertex 2 -1.3096 14.2497
      vertex 1.79024 -1.87626 14.0656
      vertex 2 -1.51295 14.1836
    endloop
  endfacet
  facet normal 0 -0.309425 0.950924
    outer loop
      vertex -2 -1.27979 14.2594
      vertex 2 -1.3096 14.2497
      vertex 2.01721 -1.27979 14.2594
    endloop
  endfacet
  facet normal 3.59062e-06 -0.308989 0.951065
    outer loop
      vertex -2 -1.27979 14.2594
      vertex 1.79024 -1.87626 14.0656
      vertex 2 -1.3096 14.2497
    endloop
  endfacet
  facet normal 0 -0.30901 0.951059
    outer loop
      vertex 1.79024 -1.87626 14.0656
      vertex -2 -1.27979 14.2594
      vertex -2 -1.87626 14.0656
    endloop
  endfacet
  facet normal 0.000232711 -0.669194 0.743087
    outer loop
      vertex 2.37156 -0.270565 14.9926
      vertex 2.27033 -0.736644 14.5729
      vertex 2.34755 -0.498987 14.7869
    endloop
  endfacet
  facet normal 0 -0.669166 0.743113
    outer loop
      vertex -2 -0.270565 14.9926
      vertex 2.27033 -0.736644 14.5729
      vertex 2.37156 -0.270565 14.9926
    endloop
  endfacet
  facet normal 0 -0.669166 0.743113
    outer loop
      vertex 2.27033 -0.736644 14.5729
      vertex -2 -0.270565 14.9926
      vertex -2 -0.736644 14.5729
    endloop
  endfacet
  facet normal 0 -0.97815 0.2079
    outer loop
      vertex -2 0.353169 16.0729
      vertex 2.34918 0.483565 16.6864
      vertex -2 0.483565 16.6864
    endloop
  endfacet
  facet normal 0 -0.97815 0.2079
    outer loop
      vertex 2.34918 0.483565 16.6864
      vertex -2 0.353169 16.0729
      vertex 2.36288 0.353169 16.0729
    endloop
  endfacet
  facet normal 0 -0.809022 0.587778
    outer loop
      vertex 2.37156 -0.270565 14.9926
      vertex 2.38969 0.0980759 15.5
      vertex -2 0.0980759 15.5
    endloop
  endfacet
  facet normal 0 -0.809022 0.587778
    outer loop
      vertex 2.37156 -0.270565 14.9926
      vertex -2 0.0980759 15.5
      vertex -2 -0.270565 14.9926
    endloop
  endfacet
  facet normal 0.000296039 -0.809027 0.587771
    outer loop
      vertex 2.38969 0.0980759 15.5
      vertex 2.37156 -0.270565 14.9926
      vertex 2.4 0 15.365
    endloop
  endfacet
  facet normal -0.00132103 -0.499435 -0.86635
    outer loop
      vertex 2.01721 -1.27979 19.7406
      vertex 2.27033 -0.736644 19.4271
      vertex 2.19251 -0.976168 19.5653
    endloop
  endfacet
  facet normal 0 -0.499898 -0.866084
    outer loop
      vertex -2 -0.736644 19.4271
      vertex 2.01721 -1.27979 19.7406
      vertex -2 -1.27979 19.7406
    endloop
  endfacet
  facet normal 0 -0.499898 -0.866084
    outer loop
      vertex 2.01721 -1.27979 19.7406
      vertex -2 -0.736644 19.4271
      vertex 2.27033 -0.736644 19.4271
    endloop
  endfacet
  facet normal 0.000434566 -0.309134 -0.951019
    outer loop
      vertex 2 -1.51295 19.8164
      vertex 1.79024 -1.87626 19.9344
      vertex 2 -1.3096 19.7503
    endloop
  endfacet
  facet normal 0 -0.30901 -0.951059
    outer loop
      vertex -2 -1.27979 19.7406
      vertex 1.79024 -1.87626 19.9344
      vertex -2 -1.87626 19.9344
    endloop
  endfacet
  facet normal 3.59062e-06 -0.308989 -0.951065
    outer loop
      vertex 1.79024 -1.87626 19.9344
      vertex -2 -1.27979 19.7406
      vertex 2 -1.3096 19.7503
    endloop
  endfacet
  facet normal 0 -0.309425 -0.950924
    outer loop
      vertex 2 -1.3096 19.7503
      vertex -2 -1.27979 19.7406
      vertex 2.01721 -1.27979 19.7406
    endloop
  endfacet
  facet normal 0 -0.809022 -0.587778
    outer loop
      vertex -2 0.0980759 18.5
      vertex 2.37156 -0.270565 19.0074
      vertex -2 -0.270565 19.0074
    endloop
  endfacet
  facet normal -0 -0.809022 -0.587778
    outer loop
      vertex 2.38969 0.0980759 18.5
      vertex 2.37156 -0.270565 19.0074
      vertex -2 0.0980759 18.5
    endloop
  endfacet
  facet normal 0.000296039 -0.809027 -0.587771
    outer loop
      vertex 2.37156 -0.270565 19.0074
      vertex 2.38969 0.0980759 18.5
      vertex 2.4 0 18.635
    endloop
  endfacet
  facet normal -0 -0.97815 -0.2079
    outer loop
      vertex 2.34918 0.483565 17.3136
      vertex -2 0.353169 17.9271
      vertex -2 0.483565 17.3136
    endloop
  endfacet
  facet normal 0 -0.97815 -0.2079
    outer loop
      vertex -2 0.353169 17.9271
      vertex 2.34918 0.483565 17.3136
      vertex 2.36288 0.353169 17.9271
    endloop
  endfacet
  facet normal -0 0.104597 0.994515
    outer loop
      vertex -2 -2.5 14
      vertex 1.07001 -3.12373 14.0656
      vertex 1.43013 -2.5 14
    endloop
  endfacet
  facet normal 0 0.104597 0.994515
    outer loop
      vertex 1.07001 -3.12373 14.0656
      vertex -2 -2.5 14
      vertex -2 -3.12373 14.0656
    endloop
  endfacet
  facet normal -0 0.978149 0.207906
    outer loop
      vertex -2 -5.35317 16.0729
      vertex -0.292435 -5.48357 16.6864
      vertex -0.217151 -5.35317 16.0729
    endloop
  endfacet
  facet normal 0 0.978149 0.207906
    outer loop
      vertex -0.292435 -5.48357 16.6864
      vertex -2 -5.35317 16.0729
      vertex -2 -5.48357 16.6864
    endloop
  endfacet
  facet normal 1 0 0
    outer loop
      vertex -2 -0.809312 17.1777
      vertex -2 0.483565 17.3136
      vertex -2 0.353169 17.9271
    endloop
  endfacet
  facet normal 1 0 0
    outer loop
      vertex -2 0.483565 17.3136
      vertex -2 -0.809312 17.1777
      vertex -2 0.483565 16.6864
    endloop
  endfacet
  facet normal 1 0 0
    outer loop
      vertex -2 -0.883204 17.5253
      vertex -2 0.353169 17.9271
      vertex -2 0.0980759 18.5
    endloop
  endfacet
  facet normal 1 -0 0
    outer loop
      vertex -2 -0.809312 16.8223
      vertex -2 0.483565 16.6864
      vertex -2 -0.809312 17.1777
    endloop
  endfacet
  facet normal 1 0 0
    outer loop
      vertex -2 -1.02776 17.85
      vertex -2 0.0980759 18.5
      vertex -2 -0.270565 19.0074
    endloop
  endfacet
  facet normal 1 0 0
    outer loop
      vertex -2 0.483565 16.6864
      vertex -2 -0.809312 16.8223
      vertex -2 0.353169 16.0729
    endloop
  endfacet
  facet normal 1 0 0
    outer loop
      vertex -2 -1.23665 18.1375
      vertex -2 -0.270565 19.0074
      vertex -2 -0.736644 19.4271
    endloop
  endfacet
  facet normal 1 -0 0
    outer loop
      vertex -2 -0.883204 16.4747
      vertex -2 0.353169 16.0729
      vertex -2 -0.809312 16.8223
    endloop
  endfacet
  facet normal 1 0 0
    outer loop
      vertex -2 0.353169 16.0729
      vertex -2 -0.883204 16.4747
      vertex -2 0.0980759 15.5
    endloop
  endfacet
  facet normal 1 0 0
    outer loop
      vertex -2 0.353169 17.9271
      vertex -2 -0.883204 17.5253
      vertex -2 -0.809312 17.1777
    endloop
  endfacet
  facet normal 1 0 0
    outer loop
      vertex -2 0.0980759 18.5
      vertex -2 -1.02776 17.85
      vertex -2 -0.883204 17.5253
    endloop
  endfacet
  facet normal 1 0 0
    outer loop
      vertex -2 -0.270565 19.0074
      vertex -2 -1.23665 18.1375
      vertex -2 -1.02776 17.85
    endloop
  endfacet
  facet normal 1 0 0
    outer loop
      vertex -2 -1.50076 18.3753
      vertex -2 -0.736644 19.4271
      vertex -2 -1.27979 19.7406
    endloop
  endfacet
  facet normal 1 0 0
    outer loop
      vertex -2 -0.736644 19.4271
      vertex -2 -1.50076 18.3753
      vertex -2 -1.23665 18.1375
    endloop
  endfacet
  facet normal 1 0 0
    outer loop
      vertex -2 -1.27979 19.7406
      vertex -2 -1.80855 18.553
      vertex -2 -1.50076 18.3753
    endloop
  endfacet
  facet normal 1 0 0
    outer loop
      vertex -2 -1.87626 19.9344
      vertex -2 -1.80855 18.553
      vertex -2 -1.27979 19.7406
    endloop
  endfacet
  facet normal 1 0 0
    outer loop
      vertex -2 -1.87626 19.9344
      vertex -2 -2.14655 18.6628
      vertex -2 -1.80855 18.553
    endloop
  endfacet
  facet normal 1 0 0
    outer loop
      vertex -2 -2.5 20
      vertex -2 -2.14655 18.6628
      vertex -2 -1.87626 19.9344
    endloop
  endfacet
  facet normal 1 0 0
    outer loop
      vertex -2 -2.5 20
      vertex -2 -2.5 18.7
      vertex -2 -2.14655 18.6628
    endloop
  endfacet
  facet normal 1 0 0
    outer loop
      vertex -2 -2.5 20
      vertex -2 -2.85345 18.6628
      vertex -2 -2.5 18.7
    endloop
  endfacet
  facet normal 1 -0 0
    outer loop
      vertex -2 -3.12373 19.9344
      vertex -2 -2.85345 18.6628
      vertex -2 -2.5 20
    endloop
  endfacet
  facet normal 1 0 0
    outer loop
      vertex -2 -3.12373 19.9344
      vertex -2 -3.19145 18.553
      vertex -2 -2.85345 18.6628
    endloop
  endfacet
  facet normal 1 -0 0
    outer loop
      vertex -2 -3.72021 19.7406
      vertex -2 -3.19145 18.553
      vertex -2 -3.12373 19.9344
    endloop
  endfacet
  facet normal 1 0 0
    outer loop
      vertex -2 -3.19145 18.553
      vertex -2 -3.72021 19.7406
      vertex -2 -3.49923 18.3753
    endloop
  endfacet
  facet normal 1 -0 0
    outer loop
      vertex -2 -4.26336 19.4271
      vertex -2 -3.49923 18.3753
      vertex -2 -3.72021 19.7406
    endloop
  endfacet
  facet normal 1 0 0
    outer loop
      vertex -2 -3.49923 18.3753
      vertex -2 -4.26336 19.4271
      vertex -2 -3.76335 18.1375
    endloop
  endfacet
  facet normal 1 -0 0
    outer loop
      vertex -2 -4.72943 19.0074
      vertex -2 -3.76335 18.1375
      vertex -2 -4.26336 19.4271
    endloop
  endfacet
  facet normal 1 0 0
    outer loop
      vertex -2 -3.76335 18.1375
      vertex -2 -4.72943 19.0074
      vertex -2 -3.97224 17.85
    endloop
  endfacet
  facet normal 1 0 0
    outer loop
      vertex -2 -3.97224 17.85
      vertex -2 -5.09808 18.5
      vertex -2 -4.1168 17.5253
    endloop
  endfacet
  facet normal 1 -0 0
    outer loop
      vertex -2 -5.09808 18.5
      vertex -2 -3.97224 17.85
      vertex -2 -4.72943 19.0074
    endloop
  endfacet
  facet normal 1 -0 0
    outer loop
      vertex -2 -1.02776 16.15
      vertex -2 0.0980759 15.5
      vertex -2 -0.883204 16.4747
    endloop
  endfacet
  facet normal 1 0 0
    outer loop
      vertex -2 0.0980759 15.5
      vertex -2 -1.02776 16.15
      vertex -2 -0.270565 14.9926
    endloop
  endfacet
  facet normal 1 -0 0
    outer loop
      vertex -2 -1.23665 15.8625
      vertex -2 -0.270565 14.9926
      vertex -2 -1.02776 16.15
    endloop
  endfacet
  facet normal 1 0 0
    outer loop
      vertex -2 -0.270565 14.9926
      vertex -2 -1.23665 15.8625
      vertex -2 -0.736644 14.5729
    endloop
  endfacet
  facet normal 1 -0 0
    outer loop
      vertex -2 -1.50076 15.6247
      vertex -2 -0.736644 14.5729
      vertex -2 -1.23665 15.8625
    endloop
  endfacet
  facet normal 1 0 0
    outer loop
      vertex -2 -0.736644 14.5729
      vertex -2 -1.50076 15.6247
      vertex -2 -1.27979 14.2594
    endloop
  endfacet
  facet normal 1 -0 0
    outer loop
      vertex -2 -1.80855 15.447
      vertex -2 -1.27979 14.2594
      vertex -2 -1.50076 15.6247
    endloop
  endfacet
  facet normal 1 0 0
    outer loop
      vertex -2 -1.80855 15.447
      vertex -2 -1.87626 14.0656
      vertex -2 -1.27979 14.2594
    endloop
  endfacet
  facet normal 1 -0 0
    outer loop
      vertex -2 -2.14655 15.3371
      vertex -2 -1.87626 14.0656
      vertex -2 -1.80855 15.447
    endloop
  endfacet
  facet normal 1 -0 0
    outer loop
      vertex -2 -2.5 15.3
      vertex -2 -1.87626 14.0656
      vertex -2 -2.14655 15.3371
    endloop
  endfacet
  facet normal 1 0 0
    outer loop
      vertex -2 -2.5 15.3
      vertex -2 -2.5 14
      vertex -2 -1.87626 14.0656
    endloop
  endfacet
  facet normal 1 0 0
    outer loop
      vertex -2 -2.85345 15.3371
      vertex -2 -2.5 14
      vertex -2 -2.5 15.3
    endloop
  endfacet
  facet normal 1 0 0
    outer loop
      vertex -2 -2.85345 15.3371
      vertex -2 -3.12373 14.0656
      vertex -2 -2.5 14
    endloop
  endfacet
  facet normal 1 0 0
    outer loop
      vertex -2 -3.19145 15.447
      vertex -2 -3.12373 14.0656
      vertex -2 -2.85345 15.3371
    endloop
  endfacet
  facet normal 1 0 0
    outer loop
      vertex -2 -3.72021 14.2594
      vertex -2 -3.19145 15.447
      vertex -2 -3.49923 15.6247
    endloop
  endfacet
  facet normal 1 0 0
    outer loop
      vertex -2 -3.19145 15.447
      vertex -2 -3.72021 14.2594
      vertex -2 -3.12373 14.0656
    endloop
  endfacet
  facet normal 1 0 0
    outer loop
      vertex -2 -4.26336 14.5729
      vertex -2 -3.49923 15.6247
      vertex -2 -3.76335 15.8625
    endloop
  endfacet
  facet normal 1 0 0
    outer loop
      vertex -2 -4.72943 14.9926
      vertex -2 -3.76335 15.8625
      vertex -2 -3.97224 16.15
    endloop
  endfacet
  facet normal 1 0 0
    outer loop
      vertex -2 -5.09808 15.5
      vertex -2 -3.97224 16.15
      vertex -2 -4.1168 16.4747
    endloop
  endfacet
  facet normal 1 0 0
    outer loop
      vertex -2 -5.35317 16.0729
      vertex -2 -4.1168 16.4747
      vertex -2 -4.19069 16.8223
    endloop
  endfacet
  facet normal 1 0 0
    outer loop
      vertex -2 -3.49923 15.6247
      vertex -2 -4.26336 14.5729
      vertex -2 -3.72021 14.2594
    endloop
  endfacet
  facet normal 1 -0 0
    outer loop
      vertex -2 -5.35317 17.9271
      vertex -2 -4.1168 17.5253
      vertex -2 -5.09808 18.5
    endloop
  endfacet
  facet normal 1 0 0
    outer loop
      vertex -2 -4.1168 17.5253
      vertex -2 -5.35317 17.9271
      vertex -2 -4.19069 17.1777
    endloop
  endfacet
  facet normal 1 0 0
    outer loop
      vertex -2 -3.76335 15.8625
      vertex -2 -4.72943 14.9926
      vertex -2 -4.26336 14.5729
    endloop
  endfacet
  facet normal 1 -0 0
    outer loop
      vertex -2 -5.48357 17.3136
      vertex -2 -4.19069 17.1777
      vertex -2 -5.35317 17.9271
    endloop
  endfacet
  facet normal 1 0 0
    outer loop
      vertex -2 -3.97224 16.15
      vertex -2 -5.09808 15.5
      vertex -2 -4.72943 14.9926
    endloop
  endfacet
  facet normal 1 0 0
    outer loop
      vertex -2 -4.19069 17.1777
      vertex -2 -5.48357 17.3136
      vertex -2 -4.19069 16.8223
    endloop
  endfacet
  facet normal 1 0 0
    outer loop
      vertex -2 -4.1168 16.4747
      vertex -2 -5.35317 16.0729
      vertex -2 -5.09808 15.5
    endloop
  endfacet
  facet normal 1 0 0
    outer loop
      vertex -2 -5.48357 16.6864
      vertex -2 -4.19069 16.8223
      vertex -2 -5.48357 17.3136
    endloop
  endfacet
  facet normal 1 0 0
    outer loop
      vertex -2 -4.19069 16.8223
      vertex -2 -5.48357 16.6864
      vertex -2 -5.35317 16.0729
    endloop
  endfacet
  facet normal -0.00132103 -0.499435 0.86635
    outer loop
      vertex 2.27033 -0.736644 14.5729
      vertex 2.01721 -1.27979 14.2594
      vertex 2.19251 -0.976168 14.4347
    endloop
  endfacet
  facet normal 0 -0.499898 0.866084
    outer loop
      vertex -2 -0.736644 14.5729
      vertex 2.01721 -1.27979 14.2594
      vertex 2.27033 -0.736644 14.5729
    endloop
  endfacet
  facet normal 0 -0.499898 0.866084
    outer loop
      vertex 2.01721 -1.27979 14.2594
      vertex -2 -0.736644 14.5729
      vertex -2 -1.27979 14.2594
    endloop
  endfacet
  facet normal 0 -1 0
    outer loop
      vertex -2 0.483565 16.6864
      vertex 2.34918 0.483565 17.3136
      vertex -2 0.483565 17.3136
    endloop
  endfacet
  facet normal 0 -1 -0
    outer loop
      vertex 2.34918 0.483565 17.3136
      vertex -2 0.483565 16.6864
      vertex 2.34918 0.483565 16.6864
    endloop
  endfacet
  facet normal 0 -0.913533 0.406765
    outer loop
      vertex -2 0.0980759 15.5
      vertex 2.36288 0.353169 16.0729
      vertex -2 0.353169 16.0729
    endloop
  endfacet
  facet normal 0 -0.913533 0.406765
    outer loop
      vertex 2.36288 0.353169 16.0729
      vertex -2 0.0980759 15.5
      vertex 2.38969 0.0980759 15.5
    endloop
  endfacet
  facet normal -0 0.669173 0.743106
    outer loop
      vertex -2 -4.26336 14.5729
      vertex 0.142963 -4.72943 14.9926
      vertex 0.412054 -4.26336 14.5729
    endloop
  endfacet
  facet normal 0 0.669173 0.743106
    outer loop
      vertex 0.142963 -4.72943 14.9926
      vertex -2 -4.26336 14.5729
      vertex -2 -4.72943 14.9926
    endloop
  endfacet
  facet normal -0 0.309005 0.95106
    outer loop
      vertex -2 -3.12373 14.0656
      vertex 0.725639 -3.72021 14.2594
      vertex 1.07001 -3.12373 14.0656
    endloop
  endfacet
  facet normal 0 0.309005 0.95106
    outer loop
      vertex 0.725639 -3.72021 14.2594
      vertex -2 -3.12373 14.0656
      vertex -2 -3.72021 14.2594
    endloop
  endfacet
  facet normal -0 0.809015 0.587788
    outer loop
      vertex -2 -4.72943 14.9926
      vertex -0.0698726 -5.09808 15.5
      vertex 0.142963 -4.72943 14.9926
    endloop
  endfacet
  facet normal 0 0.809015 0.587788
    outer loop
      vertex -0.0698726 -5.09808 15.5
      vertex -2 -4.72943 14.9926
      vertex -2 -5.09808 15.5
    endloop
  endfacet
  facet normal -0 0.913535 0.406761
    outer loop
      vertex -2 -5.09808 15.5
      vertex -0.217151 -5.35317 16.0729
      vertex -0.0698726 -5.09808 15.5
    endloop
  endfacet
  facet normal 0 0.913535 0.406761
    outer loop
      vertex -0.217151 -5.35317 16.0729
      vertex -2 -5.09808 15.5
      vertex -2 -5.35317 16.0729
    endloop
  endfacet
  facet normal 0 0.978149 -0.207906
    outer loop
      vertex -0.292435 -5.48357 17.3136
      vertex -2 -5.35317 17.9271
      vertex -0.217151 -5.35317 17.9271
    endloop
  endfacet
  facet normal 0 0.978149 -0.207906
    outer loop
      vertex -2 -5.35317 17.9271
      vertex -0.292435 -5.48357 17.3136
      vertex -2 -5.48357 17.3136
    endloop
  endfacet
  facet normal 0 0.913535 -0.406761
    outer loop
      vertex -0.217151 -5.35317 17.9271
      vertex -2 -5.09808 18.5
      vertex -0.0698726 -5.09808 18.5
    endloop
  endfacet
  facet normal 0 0.913535 -0.406761
    outer loop
      vertex -2 -5.09808 18.5
      vertex -0.217151 -5.35317 17.9271
      vertex -2 -5.35317 17.9271
    endloop
  endfacet
  facet normal 0 0.669173 -0.743106
    outer loop
      vertex -2 -4.26336 19.4271
      vertex 0.142963 -4.72943 19.0074
      vertex -2 -4.72943 19.0074
    endloop
  endfacet
  facet normal 0 0.669173 -0.743106
    outer loop
      vertex 0.142963 -4.72943 19.0074
      vertex -2 -4.26336 19.4271
      vertex 0.412054 -4.26336 19.4271
    endloop
  endfacet
  facet normal 0 0.499895 -0.866086
    outer loop
      vertex -2 -3.72021 19.7406
      vertex 0.412054 -4.26336 19.4271
      vertex -2 -4.26336 19.4271
    endloop
  endfacet
  facet normal 0 0.499895 -0.866086
    outer loop
      vertex 0.412054 -4.26336 19.4271
      vertex -2 -3.72021 19.7406
      vertex 0.725639 -3.72021 19.7406
    endloop
  endfacet
  facet normal 0 0.309005 -0.95106
    outer loop
      vertex -2 -3.12373 19.9344
      vertex 0.725639 -3.72021 19.7406
      vertex -2 -3.72021 19.7406
    endloop
  endfacet
  facet normal 0 0.309005 -0.95106
    outer loop
      vertex 0.725639 -3.72021 19.7406
      vertex -2 -3.12373 19.9344
      vertex 1.07001 -3.12373 19.9344
    endloop
  endfacet
  facet normal 0 0.104597 -0.994515
    outer loop
      vertex -2 -2.5 20
      vertex 1.07001 -3.12373 19.9344
      vertex -2 -3.12373 19.9344
    endloop
  endfacet
  facet normal 0 0.104597 -0.994515
    outer loop
      vertex 1.07001 -3.12373 19.9344
      vertex -2 -2.5 20
      vertex 1.43013 -2.5 20
    endloop
  endfacet
  facet normal 0 0.809015 -0.587788
    outer loop
      vertex -0.0698726 -5.09808 18.5
      vertex -2 -4.72943 19.0074
      vertex 0.142963 -4.72943 19.0074
    endloop
  endfacet
  facet normal 0 0.809015 -0.587788
    outer loop
      vertex -2 -4.72943 19.0074
      vertex -0.0698726 -5.09808 18.5
      vertex -2 -5.09808 18.5
    endloop
  endfacet
  facet normal 0.866022 -0.500005 0
    outer loop
      vertex 2 -1.51295 21
      vertex 1.79024 -1.87626 19.9344
      vertex 2 -1.51295 19.8164
    endloop
  endfacet
  facet normal 0.866029 -0.499994 -5.20543e-06
    outer loop
      vertex 2 -1.51295 21
      vertex 1.43013 -2.5 20
      vertex 1.79024 -1.87626 19.9344
    endloop
  endfacet
  facet normal 0.866019 -0.500011 1.77097e-05
    outer loop
      vertex 2 -1.51295 21
      vertex 1.07001 -3.12373 19.9344
      vertex 1.43013 -2.5 20
    endloop
  endfacet
  facet normal 0.866035 -0.499983 -3.88672e-05
    outer loop
      vertex 2 -1.51295 21
      vertex 0.725639 -3.72021 19.7406
      vertex 1.07001 -3.12373 19.9344
    endloop
  endfacet
  facet normal 0.866025 -0.5 0
    outer loop
      vertex -0.292435 -5.48357 17.3136
      vertex -3.47735 -11 21
      vertex -0.292435 -5.48357 16.6864
    endloop
  endfacet
  facet normal 0.866026 -0.499999 3.13691e-06
    outer loop
      vertex -0.217151 -5.35317 17.9271
      vertex -3.47735 -11 21
      vertex -0.292435 -5.48357 17.3136
    endloop
  endfacet
  facet normal 0.866025 -0.500001 -2.56958e-06
    outer loop
      vertex -0.0698726 -5.09808 18.5
      vertex -3.47735 -11 21
      vertex -0.217151 -5.35317 17.9271
    endloop
  endfacet
  facet normal 0.866026 -0.499998 6.16067e-06
    outer loop
      vertex 0.142963 -4.72943 19.0074
      vertex -3.47735 -11 21
      vertex -0.0698726 -5.09808 18.5
    endloop
  endfacet
  facet normal 0.866024 -0.500002 -8.43342e-06
    outer loop
      vertex 0.412054 -4.26336 19.4271
      vertex -3.47735 -11 21
      vertex 0.142963 -4.72943 19.0074
    endloop
  endfacet
  facet normal 0.866026 -0.499999 5.9934e-06
    outer loop
      vertex 0.725639 -3.72021 19.7406
      vertex -3.47735 -11 21
      vertex 0.412054 -4.26336 19.4271
    endloop
  endfacet
  facet normal 0.866025 -0.5 6.54952e-07
    outer loop
      vertex -3.47735 -11 21
      vertex 0.725639 -3.72021 19.7406
      vertex 2 -1.51295 21
    endloop
  endfacet
  facet normal 0.866022 -0.500005 0
    outer loop
      vertex 1.79024 -1.87626 14.0656
      vertex 2 -1.51295 0
      vertex 2 -1.51295 14.1836
    endloop
  endfacet
  facet normal 0.866029 -0.499993 4.07394e-07
    outer loop
      vertex 1.43013 -2.5 14
      vertex 2 -1.51295 0
      vertex 1.79024 -1.87626 14.0656
    endloop
  endfacet
  facet normal 0.86602 -0.50001 -1.14213e-06
    outer loop
      vertex 1.07001 -3.12373 14.0656
      vertex 2 -1.51295 0
      vertex 1.43013 -2.5 14
    endloop
  endfacet
  facet normal 0.86603 -0.499992 1.55628e-06
    outer loop
      vertex 0.725639 -3.72021 14.2594
      vertex 2 -1.51295 0
      vertex 1.07001 -3.12373 14.0656
    endloop
  endfacet
  facet normal 0.866027 -0.499997 -1.77297e-06
    outer loop
      vertex -3.47735 -11 0
      vertex 0.725639 -3.72021 14.2594
      vertex 0.412054 -4.26336 14.5729
    endloop
  endfacet
  facet normal 0.866022 -0.500005 3.12149e-06
    outer loop
      vertex -3.47735 -11 0
      vertex 0.412054 -4.26336 14.5729
      vertex 0.142963 -4.72943 14.9926
    endloop
  endfacet
  facet normal 0.866028 -0.499995 -2.77042e-06
    outer loop
      vertex -3.47735 -11 0
      vertex 0.142963 -4.72943 14.9926
      vertex -0.0698726 -5.09808 15.5
    endloop
  endfacet
  facet normal 0.866027 -0.499997 5.22036e-06
    outer loop
      vertex -3.47735 -11 21
      vertex -0.0698726 -5.09808 15.5
      vertex -0.217151 -5.35317 16.0729
    endloop
  endfacet
  facet normal 0.866024 -0.500003 -4.29657e-06
    outer loop
      vertex -3.47735 -11 21
      vertex -0.217151 -5.35317 16.0729
      vertex -0.292435 -5.48357 16.6864
    endloop
  endfacet
  facet normal 0.866025 -0.5 0
    outer loop
      vertex -0.0698726 -5.09808 15.5
      vertex -3.47735 -11 21
      vertex -3.47735 -11 0
    endloop
  endfacet
  facet normal 0.866025 -0.5 -5.78458e-08
    outer loop
      vertex 0.725639 -3.72021 14.2594
      vertex -3.47735 -11 0
      vertex 2 -1.51295 0
    endloop
  endfacet
endsolid OpenSCAD_Model
