solid OpenSCAD_Model
  facet normal 0 -0.994522 0.104529
    outer loop
      vertex -9 -5.69615 10.0852
      vertex 9 -5.6 11
      vertex -9 -5.6 11
    endloop
  endfacet
  facet normal 0 -0.994522 0.104529
    outer loop
      vertex 9 -5.6 11
      vertex -9 -5.69615 10.0852
      vertex 9 -5.69615 10.0852
    endloop
  endfacet
  facet normal 0 0.994516 -0.104583
    outer loop
      vertex 9 -14.4 11
      vertex -9 -14.3038 11.9148
      vertex 9 -14.3038 11.9148
    endloop
  endfacet
  facet normal 0 0.994516 -0.104583
    outer loop
      vertex -9 -14.3038 11.9148
      vertex 9 -14.4 11
      vertex -9 -14.4 11
    endloop
  endfacet
  facet normal -0 0.207903 0.978149
    outer loop
      vertex -9 -10.4599 6.6241
      vertex 9 -11.3597 6.81535
      vertex 9 -10.4599 6.6241
    endloop
  endfacet
  facet normal 0 0.207903 0.978149
    outer loop
      vertex 9 -11.3597 6.81535
      vertex -9 -10.4599 6.6241
      vertex -9 -11.3597 6.81535
    endloop
  endfacet
  facet normal 0 -0.207966 -0.978136
    outer loop
      vertex -9 -9.54007 15.3759
      vertex 9 -8.64032 15.1846
      vertex 9 -9.54007 15.3759
    endloop
  endfacet
  facet normal -0 -0.207966 -0.978136
    outer loop
      vertex 9 -8.64032 15.1846
      vertex -9 -9.54007 15.3759
      vertex -9 -8.64032 15.1846
    endloop
  endfacet
  facet normal 0 -0.406705 -0.913559
    outer loop
      vertex -9 -8.64032 15.1846
      vertex 9 -7.8 14.8105
      vertex 9 -8.64032 15.1846
    endloop
  endfacet
  facet normal -0 -0.406705 -0.913559
    outer loop
      vertex 9 -7.8 14.8105
      vertex -9 -8.64032 15.1846
      vertex -9 -7.8 14.8105
    endloop
  endfacet
  facet normal 0 0.743144 0.669132
    outer loop
      vertex 9 -12.9442 7.73016
      vertex -9 -13.5597 8.41374
      vertex 9 -13.5597 8.41374
    endloop
  endfacet
  facet normal 0 0.743144 0.669132
    outer loop
      vertex -9 -13.5597 8.41374
      vertex 9 -12.9442 7.73016
      vertex -9 -12.9442 7.73016
    endloop
  endfacet
  facet normal -0 0.40675 0.91354
    outer loop
      vertex -9 -11.3597 6.81535
      vertex 9 -12.2 7.18949
      vertex 9 -11.3597 6.81535
    endloop
  endfacet
  facet normal 0 0.40675 0.91354
    outer loop
      vertex 9 -12.2 7.18949
      vertex -9 -11.3597 6.81535
      vertex -9 -12.2 7.18949
    endloop
  endfacet
  facet normal 0 -0.866051 -0.499955
    outer loop
      vertex -9 -5.9804 12.7896
      vertex 9 -6.44032 13.5863
      vertex -9 -6.44032 13.5863
    endloop
  endfacet
  facet normal 0 -0.866051 -0.499955
    outer loop
      vertex 9 -6.44032 13.5863
      vertex -9 -5.9804 12.7896
      vertex 9 -5.9804 12.7896
    endloop
  endfacet
  facet normal 0 -0.951057 0.309014
    outer loop
      vertex -9 -5.9804 9.21036
      vertex 9 -5.69615 10.0852
      vertex -9 -5.69615 10.0852
    endloop
  endfacet
  facet normal 0 -0.951057 0.309014
    outer loop
      vertex 9 -5.69615 10.0852
      vertex -9 -5.9804 9.21036
      vertex 9 -5.9804 9.21036
    endloop
  endfacet
  facet normal 0 -0.743138 0.669138
    outer loop
      vertex -9 -7.05583 7.73016
      vertex 9 -6.44032 8.41374
      vertex -9 -6.44032 8.41374
    endloop
  endfacet
  facet normal 0 -0.743138 0.669138
    outer loop
      vertex 9 -6.44032 8.41374
      vertex -9 -7.05583 7.73016
      vertex 9 -7.05583 7.73016
    endloop
  endfacet
  facet normal -0 0 1
    outer loop
      vertex -9 -9.54007 6.6241
      vertex 9 -10.4599 6.6241
      vertex 9 -9.54007 6.6241
    endloop
  endfacet
  facet normal 0 0 1
    outer loop
      vertex 9 -10.4599 6.6241
      vertex -9 -9.54007 6.6241
      vertex -9 -10.4599 6.6241
    endloop
  endfacet
  facet normal 0 -0.406742 0.913543
    outer loop
      vertex -9 -7.8 7.18949
      vertex 9 -8.64032 6.81535
      vertex 9 -7.8 7.18949
    endloop
  endfacet
  facet normal 0 -0.406742 0.913543
    outer loop
      vertex 9 -8.64032 6.81535
      vertex -9 -7.8 7.18949
      vertex -9 -8.64032 6.81535
    endloop
  endfacet
  facet normal 0 0.951073 0.308965
    outer loop
      vertex 9 -14.0196 9.21036
      vertex -9 -14.3038 10.0852
      vertex 9 -14.3038 10.0852
    endloop
  endfacet
  facet normal 0 0.951073 0.308965
    outer loop
      vertex -9 -14.3038 10.0852
      vertex 9 -14.0196 9.21036
      vertex -9 -14.0196 9.21036
    endloop
  endfacet
  facet normal 0 0.866039 0.499977
    outer loop
      vertex 9 -13.5597 8.41374
      vertex -9 -14.0196 9.21036
      vertex 9 -14.0196 9.21036
    endloop
  endfacet
  facet normal 0 0.866039 0.499977
    outer loop
      vertex -9 -14.0196 9.21036
      vertex 9 -13.5597 8.41374
      vertex -9 -13.5597 8.41374
    endloop
  endfacet
  facet normal 0 0.994516 0.104583
    outer loop
      vertex 9 -14.3038 10.0852
      vertex -9 -14.4 11
      vertex 9 -14.4 11
    endloop
  endfacet
  facet normal 0 0.994516 0.104583
    outer loop
      vertex -9 -14.4 11
      vertex 9 -14.3038 10.0852
      vertex -9 -14.3038 10.0852
    endloop
  endfacet
  facet normal -0 0.587769 0.809029
    outer loop
      vertex -9 -12.2 7.18949
      vertex 9 -12.9442 7.73016
      vertex 9 -12.2 7.18949
    endloop
  endfacet
  facet normal 0 0.587769 0.809029
    outer loop
      vertex 9 -12.9442 7.73016
      vertex -9 -12.2 7.18949
      vertex -9 -12.9442 7.73016
    endloop
  endfacet
  facet normal 0 -0.994522 -0.104529
    outer loop
      vertex -9 -5.6 11
      vertex 9 -5.69615 11.9148
      vertex -9 -5.69615 11.9148
    endloop
  endfacet
  facet normal 0 -0.994522 -0.104529
    outer loop
      vertex 9 -5.69615 11.9148
      vertex -9 -5.6 11
      vertex 9 -5.6 11
    endloop
  endfacet
  facet normal 0 -0.86603 0.499993
    outer loop
      vertex -9 -6.44032 8.41374
      vertex 9 -5.9804 9.21036
      vertex -9 -5.9804 9.21036
    endloop
  endfacet
  facet normal 0 -0.86603 0.499993
    outer loop
      vertex 9 -5.9804 9.21036
      vertex -9 -6.44032 8.41374
      vertex 9 -6.44032 8.41374
    endloop
  endfacet
  facet normal 0 -0.587784 0.809018
    outer loop
      vertex -9 -7.05583 7.73016
      vertex 9 -7.8 7.18949
      vertex 9 -7.05583 7.73016
    endloop
  endfacet
  facet normal 0 -0.587784 0.809018
    outer loop
      vertex 9 -7.8 7.18949
      vertex -9 -7.05583 7.73016
      vertex -9 -7.8 7.18949
    endloop
  endfacet
  facet normal 0 -0.207914 0.978147
    outer loop
      vertex -9 -8.64032 6.81535
      vertex 9 -9.54007 6.6241
      vertex 9 -8.64032 6.81535
    endloop
  endfacet
  facet normal 0 -0.207914 0.978147
    outer loop
      vertex 9 -9.54007 6.6241
      vertex -9 -8.64032 6.81535
      vertex -9 -9.54007 6.6241
    endloop
  endfacet
  facet normal 0 -0.951053 -0.309027
    outer loop
      vertex -9 -5.69615 11.9148
      vertex 9 -5.9804 12.7896
      vertex -9 -5.9804 12.7896
    endloop
  endfacet
  facet normal 0 -0.951053 -0.309027
    outer loop
      vertex 9 -5.9804 12.7896
      vertex -9 -5.69615 11.9148
      vertex 9 -5.69615 11.9148
    endloop
  endfacet
  facet normal 0 0.58779 -0.809013
    outer loop
      vertex -9 -12.9442 14.2698
      vertex 9 -12.2 14.8105
      vertex 9 -12.9442 14.2698
    endloop
  endfacet
  facet normal 0 0.58779 -0.809013
    outer loop
      vertex 9 -12.2 14.8105
      vertex -9 -12.9442 14.2698
      vertex -9 -12.2 14.8105
    endloop
  endfacet
  facet normal 0 -0.587806 -0.809002
    outer loop
      vertex -9 -7.8 14.8105
      vertex 9 -7.05583 14.2698
      vertex 9 -7.8 14.8105
    endloop
  endfacet
  facet normal -0 -0.587806 -0.809002
    outer loop
      vertex 9 -7.05583 14.2698
      vertex -9 -7.8 14.8105
      vertex -9 -7.05583 14.2698
    endloop
  endfacet
  facet normal 0 0 -1
    outer loop
      vertex -9 -10.4599 15.3759
      vertex 9 -9.54007 15.3759
      vertex 9 -10.4599 15.3759
    endloop
  endfacet
  facet normal -0 0 -1
    outer loop
      vertex 9 -9.54007 15.3759
      vertex -9 -10.4599 15.3759
      vertex -9 -9.54007 15.3759
    endloop
  endfacet
  facet normal 0 0.743105 -0.669175
    outer loop
      vertex 9 -13.5597 13.5863
      vertex -9 -12.9442 14.2698
      vertex 9 -12.9442 14.2698
    endloop
  endfacet
  facet normal 0 0.743105 -0.669175
    outer loop
      vertex -9 -12.9442 14.2698
      vertex 9 -13.5597 13.5863
      vertex -9 -13.5597 13.5863
    endloop
  endfacet
  facet normal 0 0.866061 -0.499939
    outer loop
      vertex 9 -14.0196 12.7896
      vertex -9 -13.5597 13.5863
      vertex 9 -13.5597 13.5863
    endloop
  endfacet
  facet normal 0 0.866061 -0.499939
    outer loop
      vertex -9 -13.5597 13.5863
      vertex 9 -14.0196 12.7896
      vertex -9 -14.0196 12.7896
    endloop
  endfacet
  facet normal 0 0.951069 -0.308978
    outer loop
      vertex 9 -14.3038 11.9148
      vertex -9 -14.0196 12.7896
      vertex 9 -14.0196 12.7896
    endloop
  endfacet
  facet normal 0 0.951069 -0.308978
    outer loop
      vertex -9 -14.0196 12.7896
      vertex 9 -14.3038 11.9148
      vertex -9 -14.3038 11.9148
    endloop
  endfacet
  facet normal 0 -0.7431 -0.669181
    outer loop
      vertex -9 -6.44032 13.5863
      vertex 9 -7.05583 14.2698
      vertex -9 -7.05583 14.2698
    endloop
  endfacet
  facet normal 0 -0.7431 -0.669181
    outer loop
      vertex 9 -7.05583 14.2698
      vertex -9 -6.44032 13.5863
      vertex 9 -6.44032 13.5863
    endloop
  endfacet
  facet normal 0 0.207955 -0.978138
    outer loop
      vertex -9 -11.3597 15.1846
      vertex 9 -10.4599 15.3759
      vertex 9 -11.3597 15.1846
    endloop
  endfacet
  facet normal 0 0.207955 -0.978138
    outer loop
      vertex 9 -10.4599 15.3759
      vertex -9 -11.3597 15.1846
      vertex -9 -10.4599 15.3759
    endloop
  endfacet
  facet normal 0 0.406713 -0.913556
    outer loop
      vertex -9 -12.2 14.8105
      vertex 9 -11.3597 15.1846
      vertex 9 -12.2 14.8105
    endloop
  endfacet
  facet normal 0 0.406713 -0.913556
    outer loop
      vertex 9 -11.3597 15.1846
      vertex -9 -12.2 14.8105
      vertex -9 -11.3597 15.1846
    endloop
  endfacet
  facet normal 0 -0.994527 0.104475
    outer loop
      vertex -9 -25.6961 10.0852
      vertex 9 -25.6 11
      vertex -9 -25.6 11
    endloop
  endfacet
  facet normal 0 -0.994527 0.104475
    outer loop
      vertex 9 -25.6 11
      vertex -9 -25.6961 10.0852
      vertex 9 -25.6961 10.0852
    endloop
  endfacet
  facet normal 0 0.994516 -0.104583
    outer loop
      vertex 9 -34.4 11
      vertex -9 -34.3038 11.9148
      vertex 9 -34.3038 11.9148
    endloop
  endfacet
  facet normal 0 0.994516 -0.104583
    outer loop
      vertex -9 -34.3038 11.9148
      vertex 9 -34.4 11
      vertex -9 -34.4 11
    endloop
  endfacet
  facet normal -0 0.207903 0.978149
    outer loop
      vertex -9 -30.4599 6.6241
      vertex 9 -31.3597 6.81535
      vertex 9 -30.4599 6.6241
    endloop
  endfacet
  facet normal 0 0.207903 0.978149
    outer loop
      vertex 9 -31.3597 6.81535
      vertex -9 -30.4599 6.6241
      vertex -9 -31.3597 6.81535
    endloop
  endfacet
  facet normal 0 -0.207955 -0.978138
    outer loop
      vertex -9 -29.5401 15.3759
      vertex 9 -28.6403 15.1846
      vertex 9 -29.5401 15.3759
    endloop
  endfacet
  facet normal -0 -0.207955 -0.978138
    outer loop
      vertex 9 -28.6403 15.1846
      vertex -9 -29.5401 15.3759
      vertex -9 -28.6403 15.1846
    endloop
  endfacet
  facet normal 0 -0.406713 -0.913556
    outer loop
      vertex -9 -28.6403 15.1846
      vertex 9 -27.8 14.8105
      vertex 9 -28.6403 15.1846
    endloop
  endfacet
  facet normal -0 -0.406713 -0.913556
    outer loop
      vertex 9 -27.8 14.8105
      vertex -9 -28.6403 15.1846
      vertex -9 -27.8 14.8105
    endloop
  endfacet
  facet normal 0 0.743144 0.669132
    outer loop
      vertex 9 -32.9442 7.73016
      vertex -9 -33.5597 8.41374
      vertex 9 -33.5597 8.41374
    endloop
  endfacet
  facet normal 0 0.743144 0.669132
    outer loop
      vertex -9 -33.5597 8.41374
      vertex 9 -32.9442 7.73016
      vertex -9 -32.9442 7.73016
    endloop
  endfacet
  facet normal -0 0.40675 0.91354
    outer loop
      vertex -9 -31.3597 6.81535
      vertex 9 -32.2 7.18949
      vertex 9 -31.3597 6.81535
    endloop
  endfacet
  facet normal 0 0.40675 0.91354
    outer loop
      vertex 9 -32.2 7.18949
      vertex -9 -31.3597 6.81535
      vertex -9 -32.2 7.18949
    endloop
  endfacet
  facet normal 0 -0.866061 -0.499939
    outer loop
      vertex -9 -25.9804 12.7896
      vertex 9 -26.4403 13.5863
      vertex -9 -26.4403 13.5863
    endloop
  endfacet
  facet normal 0 -0.866061 -0.499939
    outer loop
      vertex 9 -26.4403 13.5863
      vertex -9 -25.9804 12.7896
      vertex 9 -25.9804 12.7896
    endloop
  endfacet
  facet normal 0 -0.951041 0.309063
    outer loop
      vertex -9 -25.9804 9.21036
      vertex 9 -25.6961 10.0852
      vertex -9 -25.6961 10.0852
    endloop
  endfacet
  facet normal 0 -0.951041 0.309063
    outer loop
      vertex 9 -25.6961 10.0852
      vertex -9 -25.9804 9.21036
      vertex 9 -25.9804 9.21036
    endloop
  endfacet
  facet normal 0 -0.743144 0.669132
    outer loop
      vertex -9 -27.0558 7.73016
      vertex 9 -26.4403 8.41374
      vertex -9 -26.4403 8.41374
    endloop
  endfacet
  facet normal 0 -0.743144 0.669132
    outer loop
      vertex 9 -26.4403 8.41374
      vertex -9 -27.0558 7.73016
      vertex 9 -27.0558 7.73016
    endloop
  endfacet
  facet normal -0 0 1
    outer loop
      vertex -9 -29.5401 6.6241
      vertex 9 -30.4599 6.6241
      vertex 9 -29.5401 6.6241
    endloop
  endfacet
  facet normal 0 0 1
    outer loop
      vertex 9 -30.4599 6.6241
      vertex -9 -29.5401 6.6241
      vertex -9 -30.4599 6.6241
    endloop
  endfacet
  facet normal 0 -0.40675 0.91354
    outer loop
      vertex -9 -27.8 7.18949
      vertex 9 -28.6403 6.81535
      vertex 9 -27.8 7.18949
    endloop
  endfacet
  facet normal 0 -0.40675 0.91354
    outer loop
      vertex 9 -28.6403 6.81535
      vertex -9 -27.8 7.18949
      vertex -9 -28.6403 6.81535
    endloop
  endfacet
  facet normal 0 0.951073 0.308965
    outer loop
      vertex 9 -34.0196 9.21036
      vertex -9 -34.3038 10.0852
      vertex 9 -34.3038 10.0852
    endloop
  endfacet
  facet normal 0 0.951073 0.308965
    outer loop
      vertex -9 -34.3038 10.0852
      vertex 9 -34.0196 9.21036
      vertex -9 -34.0196 9.21036
    endloop
  endfacet
  facet normal 0 0.866039 0.499977
    outer loop
      vertex 9 -33.5597 8.41374
      vertex -9 -34.0196 9.21036
      vertex 9 -34.0196 9.21036
    endloop
  endfacet
  facet normal 0 0.866039 0.499977
    outer loop
      vertex -9 -34.0196 9.21036
      vertex 9 -33.5597 8.41374
      vertex -9 -33.5597 8.41374
    endloop
  endfacet
  facet normal 0 0.994516 0.104583
    outer loop
      vertex 9 -34.3038 10.0852
      vertex -9 -34.4 11
      vertex 9 -34.4 11
    endloop
  endfacet
  facet normal 0 0.994516 0.104583
    outer loop
      vertex -9 -34.4 11
      vertex 9 -34.3038 10.0852
      vertex -9 -34.3038 10.0852
    endloop
  endfacet
  facet normal -0 0.587769 0.809029
    outer loop
      vertex -9 -32.2 7.18949
      vertex 9 -32.9442 7.73016
      vertex 9 -32.2 7.18949
    endloop
  endfacet
  facet normal 0 0.587769 0.809029
    outer loop
      vertex 9 -32.9442 7.73016
      vertex -9 -32.2 7.18949
      vertex -9 -32.9442 7.73016
    endloop
  endfacet
  facet normal 0 -0.994527 -0.104475
    outer loop
      vertex -9 -25.6 11
      vertex 9 -25.6961 11.9148
      vertex -9 -25.6961 11.9148
    endloop
  endfacet
  facet normal 0 -0.994527 -0.104475
    outer loop
      vertex 9 -25.6961 11.9148
      vertex -9 -25.6 11
      vertex 9 -25.6 11
    endloop
  endfacet
  facet normal 0 -0.866039 0.499977
    outer loop
      vertex -9 -26.4403 8.41374
      vertex 9 -25.9804 9.21036
      vertex -9 -25.9804 9.21036
    endloop
  endfacet
  facet normal 0 -0.866039 0.499977
    outer loop
      vertex 9 -25.9804 9.21036
      vertex -9 -26.4403 8.41374
      vertex 9 -26.4403 8.41374
    endloop
  endfacet
  facet normal 0 -0.587769 0.809029
    outer loop
      vertex -9 -27.0558 7.73016
      vertex 9 -27.8 7.18949
      vertex 9 -27.0558 7.73016
    endloop
  endfacet
  facet normal 0 -0.587769 0.809029
    outer loop
      vertex 9 -27.8 7.18949
      vertex -9 -27.0558 7.73016
      vertex -9 -27.8 7.18949
    endloop
  endfacet
  facet normal 0 -0.207903 0.978149
    outer loop
      vertex -9 -28.6403 6.81535
      vertex 9 -29.5401 6.6241
      vertex 9 -28.6403 6.81535
    endloop
  endfacet
  facet normal 0 -0.207903 0.978149
    outer loop
      vertex 9 -29.5401 6.6241
      vertex -9 -28.6403 6.81535
      vertex -9 -29.5401 6.6241
    endloop
  endfacet
  facet normal 0 -0.951037 -0.309076
    outer loop
      vertex -9 -25.6961 11.9148
      vertex 9 -25.9804 12.7896
      vertex -9 -25.9804 12.7896
    endloop
  endfacet
  facet normal 0 -0.951037 -0.309076
    outer loop
      vertex 9 -25.9804 12.7896
      vertex -9 -25.6961 11.9148
      vertex 9 -25.6961 11.9148
    endloop
  endfacet
  facet normal 0 0.58779 -0.809013
    outer loop
      vertex -9 -32.9442 14.2698
      vertex 9 -32.2 14.8105
      vertex 9 -32.9442 14.2698
    endloop
  endfacet
  facet normal 0 0.58779 -0.809013
    outer loop
      vertex 9 -32.2 14.8105
      vertex -9 -32.9442 14.2698
      vertex -9 -32.2 14.8105
    endloop
  endfacet
  facet normal 0 -0.58779 -0.809013
    outer loop
      vertex -9 -27.8 14.8105
      vertex 9 -27.0558 14.2698
      vertex 9 -27.8 14.8105
    endloop
  endfacet
  facet normal -0 -0.58779 -0.809013
    outer loop
      vertex 9 -27.0558 14.2698
      vertex -9 -27.8 14.8105
      vertex -9 -27.0558 14.2698
    endloop
  endfacet
  facet normal 0 0 -1
    outer loop
      vertex -9 -30.4599 15.3759
      vertex 9 -29.5401 15.3759
      vertex 9 -30.4599 15.3759
    endloop
  endfacet
  facet normal -0 0 -1
    outer loop
      vertex 9 -29.5401 15.3759
      vertex -9 -30.4599 15.3759
      vertex -9 -29.5401 15.3759
    endloop
  endfacet
  facet normal 0 0.743105 -0.669175
    outer loop
      vertex 9 -33.5597 13.5863
      vertex -9 -32.9442 14.2698
      vertex 9 -32.9442 14.2698
    endloop
  endfacet
  facet normal 0 0.743105 -0.669175
    outer loop
      vertex -9 -32.9442 14.2698
      vertex 9 -33.5597 13.5863
      vertex -9 -33.5597 13.5863
    endloop
  endfacet
  facet normal 0 0.866061 -0.499939
    outer loop
      vertex 9 -34.0196 12.7896
      vertex -9 -33.5597 13.5863
      vertex 9 -33.5597 13.5863
    endloop
  endfacet
  facet normal 0 0.866061 -0.499939
    outer loop
      vertex -9 -33.5597 13.5863
      vertex 9 -34.0196 12.7896
      vertex -9 -34.0196 12.7896
    endloop
  endfacet
  facet normal 0 0.951069 -0.308978
    outer loop
      vertex 9 -34.3038 11.9148
      vertex -9 -34.0196 12.7896
      vertex 9 -34.0196 12.7896
    endloop
  endfacet
  facet normal 0 0.951069 -0.308978
    outer loop
      vertex -9 -34.0196 12.7896
      vertex 9 -34.3038 11.9148
      vertex -9 -34.3038 11.9148
    endloop
  endfacet
  facet normal 0 -0.743105 -0.669175
    outer loop
      vertex -9 -26.4403 13.5863
      vertex 9 -27.0558 14.2698
      vertex -9 -27.0558 14.2698
    endloop
  endfacet
  facet normal 0 -0.743105 -0.669175
    outer loop
      vertex 9 -27.0558 14.2698
      vertex -9 -26.4403 13.5863
      vertex 9 -26.4403 13.5863
    endloop
  endfacet
  facet normal 0 0.207955 -0.978138
    outer loop
      vertex -9 -31.3597 15.1846
      vertex 9 -30.4599 15.3759
      vertex 9 -31.3597 15.1846
    endloop
  endfacet
  facet normal 0 0.207955 -0.978138
    outer loop
      vertex 9 -30.4599 15.3759
      vertex -9 -31.3597 15.1846
      vertex -9 -30.4599 15.3759
    endloop
  endfacet
  facet normal 0 0.406713 -0.913556
    outer loop
      vertex -9 -32.2 14.8105
      vertex 9 -31.3597 15.1846
      vertex 9 -32.2 14.8105
    endloop
  endfacet
  facet normal 0 0.406713 -0.913556
    outer loop
      vertex 9 -31.3597 15.1846
      vertex -9 -32.2 14.8105
      vertex -9 -31.3597 15.1846
    endloop
  endfacet
  facet normal -0.104526 -0.994522 0
    outer loop
      vertex 0 -14.6 0
      vertex 1.12272 -14.718 20
      vertex 0 -14.6 20
    endloop
  endfacet
  facet normal -0.104526 -0.994522 -0
    outer loop
      vertex 1.12272 -14.718 20
      vertex 0 -14.6 0
      vertex 1.12272 -14.718 0
    endloop
  endfacet
  facet normal -1 0 0
    outer loop
      vertex 5.37042 -20.5645 0
      vertex 5.37042 -19.4355 20
      vertex 5.37042 -19.4355 0
    endloop
  endfacet
  facet normal -1 -0 0
    outer loop
      vertex 5.37042 -19.4355 20
      vertex 5.37042 -20.5645 0
      vertex 5.37042 -20.5645 20
    endloop
  endfacet
  facet normal 1 -0 0
    outer loop
      vertex -5.37042 -20.5645 20
      vertex -5.37042 -19.4355 0
      vertex -5.37042 -19.4355 20
    endloop
  endfacet
  facet normal 1 0 0
    outer loop
      vertex -5.37042 -19.4355 0
      vertex -5.37042 -20.5645 20
      vertex -5.37042 -20.5645 0
    endloop
  endfacet
  facet normal 0.669138 -0.743138 0
    outer loop
      vertex -4.01298 -16.3867 0
      vertex -3.17404 -15.6313 20
      vertex -4.01298 -16.3867 20
    endloop
  endfacet
  facet normal 0.669138 -0.743138 0
    outer loop
      vertex -3.17404 -15.6313 20
      vertex -4.01298 -16.3867 0
      vertex -3.17404 -15.6313 0
    endloop
  endfacet
  facet normal -0.809013 -0.58779 0
    outer loop
      vertex 4.67654 -17.3 0
      vertex 4.01298 -16.3867 20
      vertex 4.01298 -16.3867 0
    endloop
  endfacet
  facet normal -0.809013 -0.58779 0
    outer loop
      vertex 4.01298 -16.3867 20
      vertex 4.67654 -17.3 0
      vertex 4.67654 -17.3 20
    endloop
  endfacet
  facet normal -0.913544 -0.406741 0
    outer loop
      vertex 5.13571 -18.3313 0
      vertex 4.67654 -17.3 20
      vertex 4.67654 -17.3 0
    endloop
  endfacet
  facet normal -0.913544 -0.406741 0
    outer loop
      vertex 4.67654 -17.3 20
      vertex 5.13571 -18.3313 0
      vertex 5.13571 -18.3313 20
    endloop
  endfacet
  facet normal -0.809013 0.58779 0
    outer loop
      vertex 4.01298 -23.6133 0
      vertex 4.67654 -22.7 20
      vertex 4.67654 -22.7 0
    endloop
  endfacet
  facet normal -0.809013 0.58779 0
    outer loop
      vertex 4.67654 -22.7 20
      vertex 4.01298 -23.6133 0
      vertex 4.01298 -23.6133 20
    endloop
  endfacet
  facet normal -0.978147 0.207916 0
    outer loop
      vertex 5.13571 -21.6687 0
      vertex 5.37042 -20.5645 20
      vertex 5.37042 -20.5645 0
    endloop
  endfacet
  facet normal -0.978147 0.207916 0
    outer loop
      vertex 5.37042 -20.5645 20
      vertex 5.13571 -21.6687 0
      vertex 5.13571 -21.6687 20
    endloop
  endfacet
  facet normal 0.309054 -0.951044 0
    outer loop
      vertex -2.19638 -15.0669 0
      vertex -1.12272 -14.718 20
      vertex -2.19638 -15.0669 20
    endloop
  endfacet
  facet normal 0.309054 -0.951044 0
    outer loop
      vertex -1.12272 -14.718 20
      vertex -2.19638 -15.0669 0
      vertex -1.12272 -14.718 0
    endloop
  endfacet
  facet normal -0.499965 -0.866045 0
    outer loop
      vertex 2.19638 -15.0669 0
      vertex 3.17404 -15.6313 20
      vertex 2.19638 -15.0669 20
    endloop
  endfacet
  facet normal -0.499965 -0.866045 -0
    outer loop
      vertex 3.17404 -15.6313 20
      vertex 2.19638 -15.0669 0
      vertex 3.17404 -15.6313 0
    endloop
  endfacet
  facet normal -0.309054 -0.951044 0
    outer loop
      vertex 1.12272 -14.718 0
      vertex 2.19638 -15.0669 20
      vertex 1.12272 -14.718 20
    endloop
  endfacet
  facet normal -0.309054 -0.951044 -0
    outer loop
      vertex 2.19638 -15.0669 20
      vertex 1.12272 -14.718 0
      vertex 2.19638 -15.0669 0
    endloop
  endfacet
  facet normal -0.669138 -0.743138 0
    outer loop
      vertex 3.17404 -15.6313 0
      vertex 4.01298 -16.3867 20
      vertex 3.17404 -15.6313 20
    endloop
  endfacet
  facet normal -0.669138 -0.743138 -0
    outer loop
      vertex 4.01298 -16.3867 20
      vertex 3.17404 -15.6313 0
      vertex 4.01298 -16.3867 0
    endloop
  endfacet
  facet normal -0.978147 -0.207916 0
    outer loop
      vertex 5.37042 -19.4355 0
      vertex 5.13571 -18.3313 20
      vertex 5.13571 -18.3313 0
    endloop
  endfacet
  facet normal -0.978147 -0.207916 0
    outer loop
      vertex 5.13571 -18.3313 20
      vertex 5.37042 -19.4355 0
      vertex 5.37042 -19.4355 20
    endloop
  endfacet
  facet normal -0.669138 0.743138 0
    outer loop
      vertex 4.01298 -23.6133 0
      vertex 3.17404 -24.3687 20
      vertex 4.01298 -23.6133 20
    endloop
  endfacet
  facet normal -0.669138 0.743138 0
    outer loop
      vertex 3.17404 -24.3687 20
      vertex 4.01298 -23.6133 0
      vertex 3.17404 -24.3687 0
    endloop
  endfacet
  facet normal -0.309054 0.951044 0
    outer loop
      vertex 2.19638 -24.9331 0
      vertex 1.12272 -25.282 20
      vertex 2.19638 -24.9331 20
    endloop
  endfacet
  facet normal -0.309054 0.951044 0
    outer loop
      vertex 1.12272 -25.282 20
      vertex 2.19638 -24.9331 0
      vertex 1.12272 -25.282 0
    endloop
  endfacet
  facet normal -0.913544 0.406741 0
    outer loop
      vertex 4.67654 -22.7 0
      vertex 5.13571 -21.6687 20
      vertex 5.13571 -21.6687 0
    endloop
  endfacet
  facet normal -0.913544 0.406741 0
    outer loop
      vertex 5.13571 -21.6687 20
      vertex 4.67654 -22.7 0
      vertex 4.67654 -22.7 20
    endloop
  endfacet
  facet normal 0.104526 -0.994522 0
    outer loop
      vertex -1.12272 -14.718 0
      vertex 0 -14.6 20
      vertex -1.12272 -14.718 20
    endloop
  endfacet
  facet normal 0.104526 -0.994522 0
    outer loop
      vertex 0 -14.6 20
      vertex -1.12272 -14.718 0
      vertex 0 -14.6 0
    endloop
  endfacet
  facet normal -0.499965 0.866045 0
    outer loop
      vertex 3.17404 -24.3687 0
      vertex 2.19638 -24.9331 20
      vertex 3.17404 -24.3687 20
    endloop
  endfacet
  facet normal -0.499965 0.866045 0
    outer loop
      vertex 2.19638 -24.9331 20
      vertex 3.17404 -24.3687 0
      vertex 2.19638 -24.9331 0
    endloop
  endfacet
  facet normal -0.104526 0.994522 0
    outer loop
      vertex 1.12272 -25.282 0
      vertex 0 -25.4 20
      vertex 1.12272 -25.282 20
    endloop
  endfacet
  facet normal -0.104526 0.994522 0
    outer loop
      vertex 0 -25.4 20
      vertex 1.12272 -25.282 0
      vertex 0 -25.4 0
    endloop
  endfacet
  facet normal 0.499965 -0.866045 0
    outer loop
      vertex -3.17404 -15.6313 0
      vertex -2.19638 -15.0669 20
      vertex -3.17404 -15.6313 20
    endloop
  endfacet
  facet normal 0.499965 -0.866045 0
    outer loop
      vertex -2.19638 -15.0669 20
      vertex -3.17404 -15.6313 0
      vertex -2.19638 -15.0669 0
    endloop
  endfacet
  facet normal 0.499965 0.866045 -0
    outer loop
      vertex -2.19638 -24.9331 0
      vertex -3.17404 -24.3687 20
      vertex -2.19638 -24.9331 20
    endloop
  endfacet
  facet normal 0.499965 0.866045 0
    outer loop
      vertex -3.17404 -24.3687 20
      vertex -2.19638 -24.9331 0
      vertex -3.17404 -24.3687 0
    endloop
  endfacet
  facet normal 0.104526 0.994522 -0
    outer loop
      vertex 0 -25.4 0
      vertex -1.12272 -25.282 20
      vertex 0 -25.4 20
    endloop
  endfacet
  facet normal 0.104526 0.994522 0
    outer loop
      vertex -1.12272 -25.282 20
      vertex 0 -25.4 0
      vertex -1.12272 -25.282 0
    endloop
  endfacet
  facet normal 0.809013 -0.58779 0
    outer loop
      vertex -4.67654 -17.3 20
      vertex -4.01298 -16.3867 0
      vertex -4.01298 -16.3867 20
    endloop
  endfacet
  facet normal 0.809013 -0.58779 0
    outer loop
      vertex -4.01298 -16.3867 0
      vertex -4.67654 -17.3 20
      vertex -4.67654 -17.3 0
    endloop
  endfacet
  facet normal 0.913547 -0.406733 0
    outer loop
      vertex -5.1357 -18.3313 20
      vertex -4.67654 -17.3 0
      vertex -4.67654 -17.3 20
    endloop
  endfacet
  facet normal 0.913547 -0.406733 0
    outer loop
      vertex -4.67654 -17.3 0
      vertex -5.1357 -18.3313 20
      vertex -5.1357 -18.3313 0
    endloop
  endfacet
  facet normal 0.978145 -0.207924 0
    outer loop
      vertex -5.37042 -19.4355 20
      vertex -5.1357 -18.3313 0
      vertex -5.1357 -18.3313 20
    endloop
  endfacet
  facet normal 0.978145 -0.207924 0
    outer loop
      vertex -5.1357 -18.3313 0
      vertex -5.37042 -19.4355 20
      vertex -5.37042 -19.4355 0
    endloop
  endfacet
  facet normal 0.978145 0.207924 0
    outer loop
      vertex -5.1357 -21.6687 20
      vertex -5.37042 -20.5645 0
      vertex -5.37042 -20.5645 20
    endloop
  endfacet
  facet normal 0.978145 0.207924 0
    outer loop
      vertex -5.37042 -20.5645 0
      vertex -5.1357 -21.6687 20
      vertex -5.1357 -21.6687 0
    endloop
  endfacet
  facet normal 0.809013 0.58779 0
    outer loop
      vertex -4.01298 -23.6133 20
      vertex -4.67654 -22.7 0
      vertex -4.67654 -22.7 20
    endloop
  endfacet
  facet normal 0.809013 0.58779 0
    outer loop
      vertex -4.67654 -22.7 0
      vertex -4.01298 -23.6133 20
      vertex -4.01298 -23.6133 0
    endloop
  endfacet
  facet normal 0.669138 0.743138 -0
    outer loop
      vertex -3.17404 -24.3687 0
      vertex -4.01298 -23.6133 20
      vertex -3.17404 -24.3687 20
    endloop
  endfacet
  facet normal 0.669138 0.743138 0
    outer loop
      vertex -4.01298 -23.6133 20
      vertex -3.17404 -24.3687 0
      vertex -4.01298 -23.6133 0
    endloop
  endfacet
  facet normal 0.309054 0.951044 -0
    outer loop
      vertex -1.12272 -25.282 0
      vertex -2.19638 -24.9331 20
      vertex -1.12272 -25.282 20
    endloop
  endfacet
  facet normal 0.309054 0.951044 0
    outer loop
      vertex -2.19638 -24.9331 20
      vertex -1.12272 -25.282 0
      vertex -2.19638 -24.9331 0
    endloop
  endfacet
  facet normal 0.913547 0.406733 0
    outer loop
      vertex -4.67654 -22.7 20
      vertex -5.1357 -21.6687 0
      vertex -5.1357 -21.6687 20
    endloop
  endfacet
  facet normal 0.913547 0.406733 0
    outer loop
      vertex -5.1357 -21.6687 0
      vertex -4.67654 -22.7 20
      vertex -4.67654 -22.7 0
    endloop
  endfacet
  facet normal -0.10453 -0.994522 0
    outer loop
      vertex 0 -9 20
      vertex 2.28703 -9.24038 22
      vertex 0 -9 22
    endloop
  endfacet
  facet normal -0.10453 -0.994522 -0
    outer loop
      vertex 2.28703 -9.24038 22
      vertex 0 -9 20
      vertex 2.28703 -9.24038 20
    endloop
  endfacet
  facet normal -0.669146 -0.743131 -0
    outer loop
      vertex 6.46564 -11.1008 21.5344
      vertex 6.46564 -11.1008 20
      vertex 8 -12.4824 20
    endloop
  endfacet
  facet normal -0.309016 -0.951057 0
    outer loop
      vertex 2.28703 -9.24038 20
      vertex 4.4741 -9.951 22
      vertex 2.28703 -9.24038 22
    endloop
  endfacet
  facet normal -0.309016 -0.951057 -0
    outer loop
      vertex 4.4741 -9.951 22
      vertex 2.28703 -9.24038 20
      vertex 4.4741 -9.951 20
    endloop
  endfacet
  facet normal -0.500009 -0.86602 0
    outer loop
      vertex 4.4741 -9.951 20
      vertex 6 -10.832 22
      vertex 4.4741 -9.951 22
    endloop
  endfacet
  facet normal -0.499974 -0.86604 -3.53012e-05
    outer loop
      vertex 6 -10.832 22
      vertex 4.4741 -9.951 20
      vertex 6.46564 -11.1008 21.5344
    endloop
  endfacet
  facet normal -0.499995 -0.866028 -0
    outer loop
      vertex 6.46564 -11.1008 21.5344
      vertex 4.4741 -9.951 20
      vertex 6.46564 -11.1008 20
    endloop
  endfacet
  facet normal 0 0 1
    outer loop
      vertex 3.17404 -15.6313 20
      vertex 8 -12.4824 20
      vertex 6.46564 -11.1008 20
    endloop
  endfacet
  facet normal 0 0 1
    outer loop
      vertex 8 -12.4824 20
      vertex 5.37042 -19.4355 20
      vertex 8 -27.5176 20
    endloop
  endfacet
  facet normal -0 0 1
    outer loop
      vertex 5.37042 -20.5645 20
      vertex 8 -27.5176 20
      vertex 5.37042 -19.4355 20
    endloop
  endfacet
  facet normal 0 0 1
    outer loop
      vertex 8 -12.4824 20
      vertex 5.13571 -18.3313 20
      vertex 5.37042 -19.4355 20
    endloop
  endfacet
  facet normal 0 0 1
    outer loop
      vertex 8 -12.4824 20
      vertex 4.67654 -17.3 20
      vertex 5.13571 -18.3313 20
    endloop
  endfacet
  facet normal 0 0 1
    outer loop
      vertex 3.17404 -15.6313 20
      vertex 6.46564 -11.1008 20
      vertex 4.4741 -9.951 20
    endloop
  endfacet
  facet normal 0 0 1
    outer loop
      vertex 8 -12.4824 20
      vertex 4.01298 -16.3867 20
      vertex 4.67654 -17.3 20
    endloop
  endfacet
  facet normal 0 0 1
    outer loop
      vertex 8 -12.4824 20
      vertex 3.17404 -15.6313 20
      vertex 4.01298 -16.3867 20
    endloop
  endfacet
  facet normal 0 0 1
    outer loop
      vertex 2.19638 -15.0669 20
      vertex 4.4741 -9.951 20
      vertex 2.28703 -9.24038 20
    endloop
  endfacet
  facet normal 0 0 1
    outer loop
      vertex 4.4741 -9.951 20
      vertex 2.19638 -15.0669 20
      vertex 3.17404 -15.6313 20
    endloop
  endfacet
  facet normal 0 0 1
    outer loop
      vertex 2.28703 -9.24038 20
      vertex 1.12272 -14.718 20
      vertex 2.19638 -15.0669 20
    endloop
  endfacet
  facet normal 0 0 1
    outer loop
      vertex 0 -9 20
      vertex 1.12272 -14.718 20
      vertex 2.28703 -9.24038 20
    endloop
  endfacet
  facet normal 0 0 1
    outer loop
      vertex 0 -9 20
      vertex 0 -14.6 20
      vertex 1.12272 -14.718 20
    endloop
  endfacet
  facet normal 0 0 1
    outer loop
      vertex 0 -9 20
      vertex -1.12272 -14.718 20
      vertex 0 -14.6 20
    endloop
  endfacet
  facet normal -0 0 1
    outer loop
      vertex -2.28703 -9.24038 20
      vertex -1.12272 -14.718 20
      vertex 0 -9 20
    endloop
  endfacet
  facet normal 0 0 1
    outer loop
      vertex -1.12272 -14.718 20
      vertex -2.28703 -9.24038 20
      vertex -2.19638 -15.0669 20
    endloop
  endfacet
  facet normal -0 0 1
    outer loop
      vertex -4.4741 -9.951 20
      vertex -2.19638 -15.0669 20
      vertex -2.28703 -9.24038 20
    endloop
  endfacet
  facet normal 0 0 1
    outer loop
      vertex -2.19638 -15.0669 20
      vertex -4.4741 -9.951 20
      vertex -3.17404 -15.6313 20
    endloop
  endfacet
  facet normal -0 0 1
    outer loop
      vertex -6.46564 -11.1008 20
      vertex -3.17404 -15.6313 20
      vertex -4.4741 -9.951 20
    endloop
  endfacet
  facet normal -0 0 1
    outer loop
      vertex -8 -12.4824 20
      vertex -3.17404 -15.6313 20
      vertex -6.46564 -11.1008 20
    endloop
  endfacet
  facet normal 0 0 1
    outer loop
      vertex -3.17404 -15.6313 20
      vertex -8 -12.4824 20
      vertex -4.01298 -16.3867 20
    endloop
  endfacet
  facet normal 0 0 1
    outer loop
      vertex -4.01298 -16.3867 20
      vertex -8 -12.4824 20
      vertex -4.67654 -17.3 20
    endloop
  endfacet
  facet normal 0 0 1
    outer loop
      vertex -5.1357 -18.3313 20
      vertex -8 -12.4824 20
      vertex -5.37042 -19.4355 20
    endloop
  endfacet
  facet normal 0 0 1
    outer loop
      vertex -4.67654 -17.3 20
      vertex -8 -12.4824 20
      vertex -5.1357 -18.3313 20
    endloop
  endfacet
  facet normal -0 0 1
    outer loop
      vertex 5.13571 -21.6687 20
      vertex 8 -27.5176 20
      vertex 5.37042 -20.5645 20
    endloop
  endfacet
  facet normal -0 0 1
    outer loop
      vertex 4.67654 -22.7 20
      vertex 8 -27.5176 20
      vertex 5.13571 -21.6687 20
    endloop
  endfacet
  facet normal -0 0 1
    outer loop
      vertex 4.01298 -23.6133 20
      vertex 8 -27.5176 20
      vertex 4.67654 -22.7 20
    endloop
  endfacet
  facet normal -0 0 1
    outer loop
      vertex 3.17404 -24.3687 20
      vertex 8 -27.5176 20
      vertex 4.01298 -23.6133 20
    endloop
  endfacet
  facet normal 0 0 1
    outer loop
      vertex 8 -27.5176 20
      vertex 3.17404 -24.3687 20
      vertex 6.46564 -28.8992 20
    endloop
  endfacet
  facet normal 0 0 1
    outer loop
      vertex 6.46564 -28.8992 20
      vertex 3.17404 -24.3687 20
      vertex 4.4741 -30.049 20
    endloop
  endfacet
  facet normal -0 0 1
    outer loop
      vertex 2.19638 -24.9331 20
      vertex 4.4741 -30.049 20
      vertex 3.17404 -24.3687 20
    endloop
  endfacet
  facet normal 0 0 1
    outer loop
      vertex 4.4741 -30.049 20
      vertex 2.19638 -24.9331 20
      vertex 2.28703 -30.7596 20
    endloop
  endfacet
  facet normal -0 0 1
    outer loop
      vertex 1.12272 -25.282 20
      vertex 2.28703 -30.7596 20
      vertex 2.19638 -24.9331 20
    endloop
  endfacet
  facet normal -0 0 1
    outer loop
      vertex 0 -25.4 20
      vertex 2.28703 -30.7596 20
      vertex 1.12272 -25.282 20
    endloop
  endfacet
  facet normal 0 0 1
    outer loop
      vertex 0 -25.4 20
      vertex 0 -31 20
      vertex 2.28703 -30.7596 20
    endloop
  endfacet
  facet normal 0 0 1
    outer loop
      vertex -1.12272 -25.282 20
      vertex 0 -31 20
      vertex 0 -25.4 20
    endloop
  endfacet
  facet normal 0 0 1
    outer loop
      vertex -2.28703 -30.7596 20
      vertex -1.12272 -25.282 20
      vertex -2.19638 -24.9331 20
    endloop
  endfacet
  facet normal 0 0 1
    outer loop
      vertex -1.12272 -25.282 20
      vertex -2.28703 -30.7596 20
      vertex 0 -31 20
    endloop
  endfacet
  facet normal 0 0 1
    outer loop
      vertex -4.4741 -30.049 20
      vertex -2.19638 -24.9331 20
      vertex -3.17404 -24.3687 20
    endloop
  endfacet
  facet normal 0 0 1
    outer loop
      vertex -8 -27.5176 20
      vertex -3.17404 -24.3687 20
      vertex -4.01298 -23.6133 20
    endloop
  endfacet
  facet normal 0 0 1
    outer loop
      vertex -2.19638 -24.9331 20
      vertex -4.4741 -30.049 20
      vertex -2.28703 -30.7596 20
    endloop
  endfacet
  facet normal 0 0 1
    outer loop
      vertex -8 -27.5176 20
      vertex -4.01298 -23.6133 20
      vertex -4.67654 -22.7 20
    endloop
  endfacet
  facet normal 0 0 1
    outer loop
      vertex -8 -27.5176 20
      vertex -4.67654 -22.7 20
      vertex -5.1357 -21.6687 20
    endloop
  endfacet
  facet normal 0 0 1
    outer loop
      vertex -8 -27.5176 20
      vertex -5.1357 -21.6687 20
      vertex -5.37042 -20.5645 20
    endloop
  endfacet
  facet normal 0 0 1
    outer loop
      vertex -5.37042 -19.4355 20
      vertex -8 -12.4824 20
      vertex -5.37042 -20.5645 20
    endloop
  endfacet
  facet normal 0 0 1
    outer loop
      vertex -8 -27.5176 20
      vertex -5.37042 -20.5645 20
      vertex -8 -12.4824 20
    endloop
  endfacet
  facet normal 0 0 1
    outer loop
      vertex -3.17404 -24.3687 20
      vertex -8 -27.5176 20
      vertex -6.46564 -28.8992 20
    endloop
  endfacet
  facet normal 0 0 1
    outer loop
      vertex -3.17404 -24.3687 20
      vertex -6.46564 -28.8992 20
      vertex -4.4741 -30.049 20
    endloop
  endfacet
  facet normal -0.669146 0.743131 0
    outer loop
      vertex 6.46564 -28.8992 20
      vertex 6.46564 -28.8992 21.5344
      vertex 8 -27.5176 20
    endloop
  endfacet
  facet normal -0.309008 0.951059 0
    outer loop
      vertex 4.4741 -30.049 20
      vertex 2.28703 -30.7596 22
      vertex 4.4741 -30.049 22
    endloop
  endfacet
  facet normal -0.309008 0.951059 0
    outer loop
      vertex 2.28703 -30.7596 22
      vertex 4.4741 -30.049 20
      vertex 2.28703 -30.7596 20
    endloop
  endfacet
  facet normal 0.10453 -0.994522 0
    outer loop
      vertex -2.28703 -9.24038 20
      vertex 0 -9 22
      vertex -2.28703 -9.24038 22
    endloop
  endfacet
  facet normal 0.10453 -0.994522 0
    outer loop
      vertex 0 -9 22
      vertex -2.28703 -9.24038 20
      vertex 0 -9 20
    endloop
  endfacet
  facet normal -0.499974 0.86604 -3.53012e-05
    outer loop
      vertex 4.4741 -30.049 20
      vertex 6 -29.168 22
      vertex 6.46564 -28.8992 21.5344
    endloop
  endfacet
  facet normal -0.499995 0.866028 0
    outer loop
      vertex 4.4741 -30.049 20
      vertex 6.46564 -28.8992 21.5344
      vertex 6.46564 -28.8992 20
    endloop
  endfacet
  facet normal -0.500009 0.86602 0
    outer loop
      vertex 6 -29.168 22
      vertex 4.4741 -30.049 20
      vertex 4.4741 -30.049 22
    endloop
  endfacet
  facet normal -0.104539 0.994521 0
    outer loop
      vertex 2.28703 -30.7596 20
      vertex 0 -31 22
      vertex 2.28703 -30.7596 22
    endloop
  endfacet
  facet normal -0.104539 0.994521 0
    outer loop
      vertex 0 -31 22
      vertex 2.28703 -30.7596 20
      vertex 0 -31 20
    endloop
  endfacet
  facet normal 0.669146 -0.743131 0
    outer loop
      vertex -8 -12.4824 20
      vertex -6.46564 -11.1008 20
      vertex -6.46564 -11.1008 21.5344
    endloop
  endfacet
  facet normal 0.309016 -0.951057 0
    outer loop
      vertex -4.4741 -9.951 20
      vertex -2.28703 -9.24038 22
      vertex -4.4741 -9.951 22
    endloop
  endfacet
  facet normal 0.309016 -0.951057 0
    outer loop
      vertex -2.28703 -9.24038 22
      vertex -4.4741 -9.951 20
      vertex -2.28703 -9.24038 20
    endloop
  endfacet
  facet normal 0.499974 -0.86604 -3.53012e-05
    outer loop
      vertex -4.4741 -9.951 20
      vertex -6 -10.832 22
      vertex -6.46564 -11.1008 21.5344
    endloop
  endfacet
  facet normal 0.499995 -0.866028 0
    outer loop
      vertex -4.4741 -9.951 20
      vertex -6.46564 -11.1008 21.5344
      vertex -6.46564 -11.1008 20
    endloop
  endfacet
  facet normal 0.500009 -0.86602 0
    outer loop
      vertex -6 -10.832 22
      vertex -4.4741 -9.951 20
      vertex -4.4741 -9.951 22
    endloop
  endfacet
  facet normal 0.500009 0.86602 -0
    outer loop
      vertex -4.4741 -30.049 20
      vertex -6 -29.168 22
      vertex -4.4741 -30.049 22
    endloop
  endfacet
  facet normal 0.499974 0.86604 -3.53012e-05
    outer loop
      vertex -6 -29.168 22
      vertex -4.4741 -30.049 20
      vertex -6.46564 -28.8992 21.5344
    endloop
  endfacet
  facet normal 0.499995 0.866028 0
    outer loop
      vertex -6.46564 -28.8992 21.5344
      vertex -4.4741 -30.049 20
      vertex -6.46564 -28.8992 20
    endloop
  endfacet
  facet normal 0.669146 0.743131 -0
    outer loop
      vertex -6.46564 -28.8992 20
      vertex -8 -27.5176 20
      vertex -6.46564 -28.8992 21.5344
    endloop
  endfacet
  facet normal 0.309008 0.951059 -0
    outer loop
      vertex -2.28703 -30.7596 20
      vertex -4.4741 -30.049 22
      vertex -2.28703 -30.7596 22
    endloop
  endfacet
  facet normal 0.309008 0.951059 0
    outer loop
      vertex -4.4741 -30.049 22
      vertex -2.28703 -30.7596 20
      vertex -4.4741 -30.049 20
    endloop
  endfacet
  facet normal 0.104539 0.994521 -0
    outer loop
      vertex 0 -31 20
      vertex -2.28703 -30.7596 22
      vertex 0 -31 22
    endloop
  endfacet
  facet normal 0.104539 0.994521 0
    outer loop
      vertex -2.28703 -30.7596 22
      vertex 0 -31 20
      vertex -2.28703 -30.7596 20
    endloop
  endfacet
  facet normal -0.104551 -0.99452 0
    outer loop
      vertex 0 -42.8 16
      vertex 0.87323 -42.8918 19.25
      vertex 0 -42.8 19.25
    endloop
  endfacet
  facet normal -0.104551 -0.99452 -0
    outer loop
      vertex 0.87323 -42.8918 19.25
      vertex 0 -42.8 16
      vertex 0.87323 -42.8918 16
    endloop
  endfacet
  facet normal -0.104551 -0.99452 0
    outer loop
      vertex 0 -42.8 9.5
      vertex 0.87323 -42.8918 12.5
      vertex 0 -42.8 12.5
    endloop
  endfacet
  facet normal -0.104551 -0.99452 -0
    outer loop
      vertex 0.87323 -42.8918 12.5
      vertex 0 -42.8 9.5
      vertex 0.87323 -42.8918 9.5
    endloop
  endfacet
  facet normal -1 0 0
    outer loop
      vertex 4.17699 -47.439 9.5
      vertex 4.17699 -46.561 19.25
      vertex 4.17699 -46.561 9.5
    endloop
  endfacet
  facet normal -1 -0 0
    outer loop
      vertex 4.17699 -46.561 19.25
      vertex 4.17699 -47.439 9.5
      vertex 4.17699 -47.439 19.25
    endloop
  endfacet
  facet normal 1 -0 0
    outer loop
      vertex -4.17699 -47.439 19.25
      vertex -4.17699 -46.561 9.5
      vertex -4.17699 -46.561 19.25
    endloop
  endfacet
  facet normal 1 0 0
    outer loop
      vertex -4.17699 -46.561 9.5
      vertex -4.17699 -47.439 19.25
      vertex -4.17699 -47.439 9.5
    endloop
  endfacet
  facet normal 0.669179 -0.743101 0
    outer loop
      vertex -3.12121 -44.1897 9.5
      vertex -2.4687 -43.6021 19.25
      vertex -3.12121 -44.1897 19.25
    endloop
  endfacet
  facet normal 0.669179 -0.743101 0
    outer loop
      vertex -2.4687 -43.6021 19.25
      vertex -3.12121 -44.1897 9.5
      vertex -2.4687 -43.6021 9.5
    endloop
  endfacet
  facet normal -0.669179 -0.743101 0
    outer loop
      vertex 2.4687 -43.6021 9.5
      vertex 3.12121 -44.1897 19.25
      vertex 2.4687 -43.6021 19.25
    endloop
  endfacet
  facet normal -0.669179 -0.743101 -0
    outer loop
      vertex 3.12121 -44.1897 19.25
      vertex 2.4687 -43.6021 9.5
      vertex 3.12121 -44.1897 9.5
    endloop
  endfacet
  facet normal -0.978151 0.207896 0
    outer loop
      vertex 3.99444 -48.2979 9.5
      vertex 4.17699 -47.439 19.25
      vertex 4.17699 -47.439 9.5
    endloop
  endfacet
  facet normal -0.978151 0.207896 0
    outer loop
      vertex 4.17699 -47.439 19.25
      vertex 3.99444 -48.2979 9.5
      vertex 3.99444 -48.2979 19.25
    endloop
  endfacet
  facet normal 0.308988 -0.951066 -3.00047e-06
    outer loop
      vertex -1.70829 -43.1631 19.25
      vertex -1.2063 -43 16
      vertex -0.873229 -42.8918 19.25
    endloop
  endfacet
  facet normal 0.309006 -0.95106 0
    outer loop
      vertex -1.70829 -43.1631 9.5
      vertex -1.2063 -43 16
      vertex -1.70829 -43.1631 19.25
    endloop
  endfacet
  facet normal 0.309006 -0.95106 0
    outer loop
      vertex -1.2063 -43 16
      vertex -1.70829 -43.1631 9.5
      vertex -1.2063 -43 12.5
    endloop
  endfacet
  facet normal 0.308988 -0.951066 3.25051e-06
    outer loop
      vertex -0.873229 -42.8918 9.5
      vertex -1.2063 -43 12.5
      vertex -1.70829 -43.1631 9.5
    endloop
  endfacet
  facet normal 0.308962 -0.951074 0
    outer loop
      vertex -1.2063 -43 12.5
      vertex -0.873229 -42.8918 9.5
      vertex -0.873229 -42.8918 12.5
    endloop
  endfacet
  facet normal 0.308962 -0.951074 0
    outer loop
      vertex -0.873229 -42.8918 19.25
      vertex -1.2063 -43 16
      vertex -0.873229 -42.8918 16
    endloop
  endfacet
  facet normal -0.49998 -0.866037 0
    outer loop
      vertex 1.70829 -43.1631 9.5
      vertex 2.4687 -43.6021 19.25
      vertex 1.70829 -43.1631 19.25
    endloop
  endfacet
  facet normal -0.49998 -0.866037 -0
    outer loop
      vertex 2.4687 -43.6021 19.25
      vertex 1.70829 -43.1631 9.5
      vertex 2.4687 -43.6021 9.5
    endloop
  endfacet
  facet normal -0.308963 -0.951074 -0
    outer loop
      vertex 0.87323 -42.8918 12.5
      vertex 0.87323 -42.8918 9.5
      vertex 1.2063 -43 12.5
    endloop
  endfacet
  facet normal -0.308963 -0.951074 0
    outer loop
      vertex 1.2063 -43 16
      vertex 0.87323 -42.8918 19.25
      vertex 0.87323 -42.8918 16
    endloop
  endfacet
  facet normal -0.308989 -0.951066 -2.94332e-06
    outer loop
      vertex 0.87323 -42.8918 19.25
      vertex 1.2063 -43 16
      vertex 1.70829 -43.1631 19.25
    endloop
  endfacet
  facet normal -0.309006 -0.95106 0
    outer loop
      vertex 1.70829 -43.1631 9.5
      vertex 1.2063 -43 16
      vertex 1.2063 -43 12.5
    endloop
  endfacet
  facet normal -0.309006 -0.95106 0
    outer loop
      vertex 1.2063 -43 16
      vertex 1.70829 -43.1631 9.5
      vertex 1.70829 -43.1631 19.25
    endloop
  endfacet
  facet normal -0.308989 -0.951066 3.18859e-06
    outer loop
      vertex 1.70829 -43.1631 9.5
      vertex 1.2063 -43 12.5
      vertex 0.87323 -42.8918 9.5
    endloop
  endfacet
  facet normal -0.91354 -0.406748 0
    outer loop
      vertex 3.99444 -45.7021 9.5
      vertex 3.63731 -44.9 19.25
      vertex 3.63731 -44.9 9.5
    endloop
  endfacet
  facet normal -0.91354 -0.406748 0
    outer loop
      vertex 3.63731 -44.9 19.25
      vertex 3.99444 -45.7021 9.5
      vertex 3.99444 -45.7021 19.25
    endloop
  endfacet
  facet normal 0 0 -1
    outer loop
      vertex 3.99444 -48.2979 19.25
      vertex 4.17699 -46.561 19.25
      vertex 4.17699 -47.439 19.25
    endloop
  endfacet
  facet normal 0 0 -1
    outer loop
      vertex 3.68183 -49 19.25
      vertex 4.17699 -46.561 19.25
      vertex 3.99444 -48.2979 19.25
    endloop
  endfacet
  facet normal -0 0 -1
    outer loop
      vertex 4.17699 -46.561 19.25
      vertex 3.68183 -49 19.25
      vertex 3.99444 -45.7021 19.25
    endloop
  endfacet
  facet normal 0 0 -1
    outer loop
      vertex 3.68183 -49 19.25
      vertex 3.63731 -44.9 19.25
      vertex 3.99444 -45.7021 19.25
    endloop
  endfacet
  facet normal 0 0 -1
    outer loop
      vertex 3.68183 -49 19.25
      vertex 3.12121 -44.1897 19.25
      vertex 3.63731 -44.9 19.25
    endloop
  endfacet
  facet normal 0 0 -1
    outer loop
      vertex 3.68183 -49 19.25
      vertex 2.4687 -43.6021 19.25
      vertex 3.12121 -44.1897 19.25
    endloop
  endfacet
  facet normal 0 0 -1
    outer loop
      vertex 3.68183 -49 19.25
      vertex 1.70829 -43.1631 19.25
      vertex 2.4687 -43.6021 19.25
    endloop
  endfacet
  facet normal 0 0 -1
    outer loop
      vertex 3.68183 -49 19.25
      vertex 0.87323 -42.8918 19.25
      vertex 1.70829 -43.1631 19.25
    endloop
  endfacet
  facet normal 0 0 -1
    outer loop
      vertex 3.68183 -49 19.25
      vertex 0 -42.8 19.25
      vertex 0.87323 -42.8918 19.25
    endloop
  endfacet
  facet normal 0 0 -1
    outer loop
      vertex 3.68183 -49 19.25
      vertex -0.873229 -42.8918 19.25
      vertex 0 -42.8 19.25
    endloop
  endfacet
  facet normal 0 0 -1
    outer loop
      vertex 3.68183 -49 19.25
      vertex -1.70829 -43.1631 19.25
      vertex -0.873229 -42.8918 19.25
    endloop
  endfacet
  facet normal 0 0 -1
    outer loop
      vertex 3.68183 -49 19.25
      vertex -2.4687 -43.6021 19.25
      vertex -1.70829 -43.1631 19.25
    endloop
  endfacet
  facet normal 0 0 -1
    outer loop
      vertex 3.68183 -49 19.25
      vertex -3.12121 -44.1897 19.25
      vertex -2.4687 -43.6021 19.25
    endloop
  endfacet
  facet normal 0 0 -1
    outer loop
      vertex 3.68183 -49 19.25
      vertex -3.63731 -44.9 19.25
      vertex -3.12121 -44.1897 19.25
    endloop
  endfacet
  facet normal 0 0 -1
    outer loop
      vertex -3.68183 -49 19.25
      vertex -3.63731 -44.9 19.25
      vertex 3.68183 -49 19.25
    endloop
  endfacet
  facet normal 0 0 -1
    outer loop
      vertex -4.17699 -47.439 19.25
      vertex -3.68183 -49 19.25
      vertex -3.99444 -48.2979 19.25
    endloop
  endfacet
  facet normal 0 0 -1
    outer loop
      vertex -3.68183 -49 19.25
      vertex -3.99444 -45.7021 19.25
      vertex -3.63731 -44.9 19.25
    endloop
  endfacet
  facet normal 0 0 -1
    outer loop
      vertex -3.68183 -49 19.25
      vertex -4.17699 -47.439 19.25
      vertex -3.99444 -45.7021 19.25
    endloop
  endfacet
  facet normal 0 0 -1
    outer loop
      vertex -3.99444 -45.7021 19.25
      vertex -4.17699 -47.439 19.25
      vertex -4.17699 -46.561 19.25
    endloop
  endfacet
  facet normal -0.978151 -0.207896 0
    outer loop
      vertex 4.17699 -46.561 9.5
      vertex 3.99444 -45.7021 19.25
      vertex 3.99444 -45.7021 9.5
    endloop
  endfacet
  facet normal -0.978151 -0.207896 0
    outer loop
      vertex 3.99444 -45.7021 19.25
      vertex 4.17699 -46.561 9.5
      vertex 4.17699 -46.561 19.25
    endloop
  endfacet
  facet normal -0 0 -1
    outer loop
      vertex -4.17699 -47.439 9.5
      vertex -7 -49 9.5
      vertex -4.17699 -46.561 9.5
    endloop
  endfacet
  facet normal -0 0 -1
    outer loop
      vertex -3.99444 -48.2979 9.5
      vertex -7 -49 9.5
      vertex -4.17699 -47.439 9.5
    endloop
  endfacet
  facet normal 0 0 -1
    outer loop
      vertex -7 -49 9.5
      vertex -3.99444 -48.2979 9.5
      vertex -3.68183 -49 9.5
    endloop
  endfacet
  facet normal 0 0 -1
    outer loop
      vertex 7 -49 9.5
      vertex 3.99444 -48.2979 9.5
      vertex 4.17699 -47.439 9.5
    endloop
  endfacet
  facet normal 0 -0 -1
    outer loop
      vertex 3.99444 -48.2979 9.5
      vertex 7 -49 9.5
      vertex 3.68183 -49 9.5
    endloop
  endfacet
  facet normal 0 0 -1
    outer loop
      vertex 4.17699 -46.561 9.5
      vertex 9 -47 9.5
      vertex 7 -49 9.5
    endloop
  endfacet
  facet normal 0 0 -1
    outer loop
      vertex 4.17699 -46.561 9.5
      vertex 7 -49 9.5
      vertex 4.17699 -47.439 9.5
    endloop
  endfacet
  facet normal 0 0 -1
    outer loop
      vertex 9 -47 9.5
      vertex 4.17699 -46.561 9.5
      vertex 3.99444 -45.7021 9.5
    endloop
  endfacet
  facet normal 0 0 -1
    outer loop
      vertex 3.63731 -44.9 9.5
      vertex 9 -47 9.5
      vertex 3.99444 -45.7021 9.5
    endloop
  endfacet
  facet normal 0 0 -1
    outer loop
      vertex 9 -47 9.5
      vertex 3.63731 -44.9 9.5
      vertex 9 -35.8 9.5
    endloop
  endfacet
  facet normal 0 0 -1
    outer loop
      vertex 3.12121 -44.1897 9.5
      vertex 9 -35.8 9.5
      vertex 3.63731 -44.9 9.5
    endloop
  endfacet
  facet normal 0 0 -1
    outer loop
      vertex 2.4687 -43.6021 9.5
      vertex 9 -35.8 9.5
      vertex 3.12121 -44.1897 9.5
    endloop
  endfacet
  facet normal 0 0 -1
    outer loop
      vertex 1.70829 -43.1631 9.5
      vertex 9 -35.8 9.5
      vertex 2.4687 -43.6021 9.5
    endloop
  endfacet
  facet normal 0 0 -1
    outer loop
      vertex 0.87323 -42.8918 9.5
      vertex 9 -35.8 9.5
      vertex 1.70829 -43.1631 9.5
    endloop
  endfacet
  facet normal 0 0 -1
    outer loop
      vertex 0 -42.8 9.5
      vertex 9 -35.8 9.5
      vertex 0.87323 -42.8918 9.5
    endloop
  endfacet
  facet normal 0 0 -1
    outer loop
      vertex -9 -35.8 9.5
      vertex 0 -42.8 9.5
      vertex -0.873229 -42.8918 9.5
    endloop
  endfacet
  facet normal 0 0 -1
    outer loop
      vertex -9 -35.8 9.5
      vertex -0.873229 -42.8918 9.5
      vertex -1.70829 -43.1631 9.5
    endloop
  endfacet
  facet normal 0 0 -1
    outer loop
      vertex -9 -35.8 9.5
      vertex -1.70829 -43.1631 9.5
      vertex -2.4687 -43.6021 9.5
    endloop
  endfacet
  facet normal 0 0 -1
    outer loop
      vertex -9 -47 9.5
      vertex -4.17699 -46.561 9.5
      vertex -7 -49 9.5
    endloop
  endfacet
  facet normal -0 0 -1
    outer loop
      vertex -4.17699 -46.561 9.5
      vertex -9 -47 9.5
      vertex -3.99444 -45.7021 9.5
    endloop
  endfacet
  facet normal -0 0 -1
    outer loop
      vertex -3.99444 -45.7021 9.5
      vertex -9 -47 9.5
      vertex -3.63731 -44.9 9.5
    endloop
  endfacet
  facet normal 0 0 -1
    outer loop
      vertex -9 -35.8 9.5
      vertex -3.63731 -44.9 9.5
      vertex -9 -47 9.5
    endloop
  endfacet
  facet normal 0 0 -1
    outer loop
      vertex -3.63731 -44.9 9.5
      vertex -9 -35.8 9.5
      vertex -3.12121 -44.1897 9.5
    endloop
  endfacet
  facet normal 0 0 -1
    outer loop
      vertex -3.12121 -44.1897 9.5
      vertex -9 -35.8 9.5
      vertex -2.4687 -43.6021 9.5
    endloop
  endfacet
  facet normal 0 0 -1
    outer loop
      vertex 0 -42.8 9.5
      vertex -9 -35.8 9.5
      vertex 9 -35.8 9.5
    endloop
  endfacet
  facet normal -0.808997 -0.587813 0
    outer loop
      vertex 3.63731 -44.9 9.5
      vertex 3.12121 -44.1897 19.25
      vertex 3.12121 -44.1897 9.5
    endloop
  endfacet
  facet normal -0.808997 -0.587813 0
    outer loop
      vertex 3.12121 -44.1897 19.25
      vertex 3.63731 -44.9 9.5
      vertex 3.63731 -44.9 19.25
    endloop
  endfacet
  facet normal -0.913538 0.406753 0
    outer loop
      vertex 3.68183 -49 9.5
      vertex 3.99444 -48.2979 19.25
      vertex 3.99444 -48.2979 9.5
    endloop
  endfacet
  facet normal -0.913538 0.406753 0
    outer loop
      vertex 3.99444 -48.2979 19.25
      vertex 3.68183 -49 9.5
      vertex 3.68183 -49 19.25
    endloop
  endfacet
  facet normal 0.104551 -0.99452 0
    outer loop
      vertex -0.873229 -42.8918 9.5
      vertex 0 -42.8 12.5
      vertex -0.873229 -42.8918 12.5
    endloop
  endfacet
  facet normal 0.104551 -0.99452 0
    outer loop
      vertex 0 -42.8 12.5
      vertex -0.873229 -42.8918 9.5
      vertex 0 -42.8 9.5
    endloop
  endfacet
  facet normal 0.104551 -0.99452 0
    outer loop
      vertex -0.873229 -42.8918 16
      vertex 0 -42.8 19.25
      vertex -0.873229 -42.8918 19.25
    endloop
  endfacet
  facet normal 0.104551 -0.99452 0
    outer loop
      vertex 0 -42.8 19.25
      vertex -0.873229 -42.8918 16
      vertex 0 -42.8 16
    endloop
  endfacet
  facet normal 0.49998 -0.866037 0
    outer loop
      vertex -2.4687 -43.6021 9.5
      vertex -1.70829 -43.1631 19.25
      vertex -2.4687 -43.6021 19.25
    endloop
  endfacet
  facet normal 0.49998 -0.866037 0
    outer loop
      vertex -1.70829 -43.1631 19.25
      vertex -2.4687 -43.6021 9.5
      vertex -1.70829 -43.1631 9.5
    endloop
  endfacet
  facet normal 0.91354 -0.406748 0
    outer loop
      vertex -3.99444 -45.7021 19.25
      vertex -3.63731 -44.9 9.5
      vertex -3.63731 -44.9 19.25
    endloop
  endfacet
  facet normal 0.91354 -0.406748 0
    outer loop
      vertex -3.63731 -44.9 9.5
      vertex -3.99444 -45.7021 19.25
      vertex -3.99444 -45.7021 9.5
    endloop
  endfacet
  facet normal 0.978151 -0.207896 0
    outer loop
      vertex -4.17699 -46.561 19.25
      vertex -3.99444 -45.7021 9.5
      vertex -3.99444 -45.7021 19.25
    endloop
  endfacet
  facet normal 0.978151 -0.207896 0
    outer loop
      vertex -3.99444 -45.7021 9.5
      vertex -4.17699 -46.561 19.25
      vertex -4.17699 -46.561 9.5
    endloop
  endfacet
  facet normal 0.978151 0.207896 0
    outer loop
      vertex -3.99444 -48.2979 19.25
      vertex -4.17699 -47.439 9.5
      vertex -4.17699 -47.439 19.25
    endloop
  endfacet
  facet normal 0.978151 0.207896 0
    outer loop
      vertex -4.17699 -47.439 9.5
      vertex -3.99444 -48.2979 19.25
      vertex -3.99444 -48.2979 9.5
    endloop
  endfacet
  facet normal 0.808997 -0.587813 0
    outer loop
      vertex -3.63731 -44.9 19.25
      vertex -3.12121 -44.1897 9.5
      vertex -3.12121 -44.1897 19.25
    endloop
  endfacet
  facet normal 0.808997 -0.587813 0
    outer loop
      vertex -3.12121 -44.1897 9.5
      vertex -3.63731 -44.9 19.25
      vertex -3.63731 -44.9 9.5
    endloop
  endfacet
  facet normal 0.913538 0.406753 0
    outer loop
      vertex -3.68183 -49 19.25
      vertex -3.99444 -48.2979 9.5
      vertex -3.99444 -48.2979 19.25
    endloop
  endfacet
  facet normal 0.913538 0.406753 0
    outer loop
      vertex -3.99444 -48.2979 9.5
      vertex -3.68183 -49 19.25
      vertex -3.68183 -49 9.5
    endloop
  endfacet
  facet normal 0 1 -0
    outer loop
      vertex -1.2063 -43 12.5
      vertex -9 -43 16
      vertex -1.2063 -43 16
    endloop
  endfacet
  facet normal 0 1 0
    outer loop
      vertex -9 -43 16
      vertex -1.2063 -43 12.5
      vertex -9 -43 12.5
    endloop
  endfacet
  facet normal 0 1 -0
    outer loop
      vertex 9 -43 12.5
      vertex 1.2063 -43 16
      vertex 9 -43 16
    endloop
  endfacet
  facet normal 0 1 0
    outer loop
      vertex 1.2063 -43 16
      vertex 9 -43 12.5
      vertex 1.2063 -43 12.5
    endloop
  endfacet
  facet normal 0 0 1
    outer loop
      vertex 9 -41 12.5
      vertex 1.2063 -43 12.5
      vertex 9 -43 12.5
    endloop
  endfacet
  facet normal 0 0 1
    outer loop
      vertex 9 -41 12.5
      vertex 0.87323 -42.8918 12.5
      vertex 1.2063 -43 12.5
    endloop
  endfacet
  facet normal 0 0 1
    outer loop
      vertex 9 -41 12.5
      vertex 0 -42.8 12.5
      vertex 0.87323 -42.8918 12.5
    endloop
  endfacet
  facet normal -0 0 1
    outer loop
      vertex -9 -41 12.5
      vertex 0 -42.8 12.5
      vertex 9 -41 12.5
    endloop
  endfacet
  facet normal 0 0 1
    outer loop
      vertex 0 -42.8 12.5
      vertex -9 -41 12.5
      vertex -0.873229 -42.8918 12.5
    endloop
  endfacet
  facet normal 0 0 1
    outer loop
      vertex -9 -41 12.5
      vertex -1.2063 -43 12.5
      vertex -0.873229 -42.8918 12.5
    endloop
  endfacet
  facet normal 0 0 1
    outer loop
      vertex -1.2063 -43 12.5
      vertex -9 -41 12.5
      vertex -9 -43 12.5
    endloop
  endfacet
  facet normal 0 -1 0
    outer loop
      vertex -9 -41 12.5
      vertex 9 -41 16
      vertex -9 -41 16
    endloop
  endfacet
  facet normal 0 -1 -0
    outer loop
      vertex 9 -41 16
      vertex -9 -41 12.5
      vertex 9 -41 12.5
    endloop
  endfacet
  facet normal 0 0 -1
    outer loop
      vertex 1.2063 -43 16
      vertex 9 -41 16
      vertex 9 -43 16
    endloop
  endfacet
  facet normal 0 0 -1
    outer loop
      vertex 0.87323 -42.8918 16
      vertex 9 -41 16
      vertex 1.2063 -43 16
    endloop
  endfacet
  facet normal 0 0 -1
    outer loop
      vertex 0 -42.8 16
      vertex 9 -41 16
      vertex 0.87323 -42.8918 16
    endloop
  endfacet
  facet normal 0 0 -1
    outer loop
      vertex -9 -41 16
      vertex 0 -42.8 16
      vertex -0.873229 -42.8918 16
    endloop
  endfacet
  facet normal 0 0 -1
    outer loop
      vertex -9 -41 16
      vertex -1.2063 -43 16
      vertex -9 -43 16
    endloop
  endfacet
  facet normal 0 0 -1
    outer loop
      vertex -1.2063 -43 16
      vertex -9 -41 16
      vertex -0.873229 -42.8918 16
    endloop
  endfacet
  facet normal 0 0 -1
    outer loop
      vertex 0 -42.8 16
      vertex -9 -41 16
      vertex 9 -41 16
    endloop
  endfacet
  facet normal 0 0 1
    outer loop
      vertex 9 -36 9.3
      vertex 7 -49 9.3
      vertex 9 -47 9.3
    endloop
  endfacet
  facet normal 0 0 1
    outer loop
      vertex 9 -36 9.3
      vertex -7 -49 9.3
      vertex 7 -49 9.3
    endloop
  endfacet
  facet normal -0 0 1
    outer loop
      vertex -9 -36 9.3
      vertex -7 -49 9.3
      vertex 9 -36 9.3
    endloop
  endfacet
  facet normal 0 0 1
    outer loop
      vertex -7 -49 9.3
      vertex -9 -36 9.3
      vertex -9 -47 9.3
    endloop
  endfacet
  facet normal 0 -1 0
    outer loop
      vertex -9 -35.8 0
      vertex 9 -35.8 9.5
      vertex -9 -35.8 9.5
    endloop
  endfacet
  facet normal 0 -1 -0
    outer loop
      vertex 9 -35.8 9.5
      vertex -9 -35.8 0
      vertex 9 -35.8 0
    endloop
  endfacet
  facet normal 0 1 -0
    outer loop
      vertex 9 -36 0
      vertex -9 -36 9.3
      vertex 9 -36 9.3
    endloop
  endfacet
  facet normal 0 1 0
    outer loop
      vertex -9 -36 9.3
      vertex 9 -36 0
      vertex -9 -36 0
    endloop
  endfacet
  facet normal 0.707107 -0 0.707107
    outer loop
      vertex 6 -10.832 22
      vertex 9 0 19
      vertex 6 0 22
    endloop
  endfacet
  facet normal 0.707081 1.45048e-05 0.707133
    outer loop
      vertex 6.46564 -11.1008 21.5344
      vertex 9 0 19
      vertex 6 -10.832 22
    endloop
  endfacet
  facet normal 0.707115 -1.37741e-06 0.707098
    outer loop
      vertex 8 -12.4824 20
      vertex 9 0 19
      vertex 6.46564 -11.1008 21.5344
    endloop
  endfacet
  facet normal 0.707107 -0 0.707107
    outer loop
      vertex 8 -27.5176 20
      vertex 9 0 19
      vertex 8 -12.4824 20
    endloop
  endfacet
  facet normal 0.707107 0 0.707107
    outer loop
      vertex 8 -27.5176 20
      vertex 9 -47 19
      vertex 9 0 19
    endloop
  endfacet
  facet normal 0.707116 9.04373e-07 0.707098
    outer loop
      vertex 6.46564 -28.8992 21.5344
      vertex 9 -47 19
      vertex 8 -27.5176 20
    endloop
  endfacet
  facet normal 0.707079 -9.31493e-06 0.707134
    outer loop
      vertex 6 -29.168 22
      vertex 9 -47 19
      vertex 6.46564 -28.8992 21.5344
    endloop
  endfacet
  facet normal 0.707107 -0 0.707107
    outer loop
      vertex 6 -47.5 22
      vertex 9 -47 19
      vertex 6 -29.168 22
    endloop
  endfacet
  facet normal 0.707107 0 0.707107
    outer loop
      vertex 9 -47 19
      vertex 6 -47.5 22
      vertex 7.25 -48.75 20.75
    endloop
  endfacet
  facet normal -0.707107 0 0.707107
    outer loop
      vertex -9 0 19
      vertex -6 -10.832 22
      vertex -6 0 22
    endloop
  endfacet
  facet normal -0.707081 1.45048e-05 0.707133
    outer loop
      vertex -9 0 19
      vertex -6.46564 -11.1008 21.5344
      vertex -6 -10.832 22
    endloop
  endfacet
  facet normal -0.707115 -1.37741e-06 0.707098
    outer loop
      vertex -9 0 19
      vertex -8 -12.4824 20
      vertex -6.46564 -11.1008 21.5344
    endloop
  endfacet
  facet normal -0.707107 0 0.707107
    outer loop
      vertex -9 0 19
      vertex -8 -27.5176 20
      vertex -8 -12.4824 20
    endloop
  endfacet
  facet normal -0.707107 0 0.707107
    outer loop
      vertex -9 -47 19
      vertex -8 -27.5176 20
      vertex -9 0 19
    endloop
  endfacet
  facet normal -0.707116 9.04373e-07 0.707098
    outer loop
      vertex -9 -47 19
      vertex -6.46564 -28.8992 21.5344
      vertex -8 -27.5176 20
    endloop
  endfacet
  facet normal -0.707079 -9.31493e-06 0.707134
    outer loop
      vertex -9 -47 19
      vertex -6 -29.168 22
      vertex -6.46564 -28.8992 21.5344
    endloop
  endfacet
  facet normal -0.707107 0 0.707107
    outer loop
      vertex -9 -47 19
      vertex -6 -47.5 22
      vertex -6 -29.168 22
    endloop
  endfacet
  facet normal -0.707107 0 0.707107
    outer loop
      vertex -6 -47.5 22
      vertex -9 -47 19
      vertex -7.25 -48.75 20.75
    endloop
  endfacet
  facet normal -0.707107 -0.707107 0
    outer loop
      vertex -9 -47 19
      vertex -7 -49 20.5
      vertex -7.25 -48.75 20.75
    endloop
  endfacet
  facet normal -0.707107 -0.707107 0
    outer loop
      vertex -7 -49 9.5
      vertex -9 -47 19
      vertex -9 -47 9.5
    endloop
  endfacet
  facet normal -0.707107 -0.707107 0
    outer loop
      vertex -9 -47 19
      vertex -7 -49 9.5
      vertex -7 -49 20.5
    endloop
  endfacet
  facet normal -0.707107 -0.707107 0
    outer loop
      vertex -9 -47 0
      vertex -7 -49 9.3
      vertex -9 -47 9.3
    endloop
  endfacet
  facet normal -0.707107 -0.707107 -0
    outer loop
      vertex -7 -49 9.3
      vertex -9 -47 0
      vertex -7 -49 0
    endloop
  endfacet
  facet normal 0.707107 -0.707107 0
    outer loop
      vertex 7 -49 20.5
      vertex 9 -47 19
      vertex 7.25 -48.75 20.75
    endloop
  endfacet
  facet normal 0.707107 -0.707107 0
    outer loop
      vertex 7 -49 9.5
      vertex 9 -47 19
      vertex 7 -49 20.5
    endloop
  endfacet
  facet normal 0.707107 -0.707107 0
    outer loop
      vertex 9 -47 19
      vertex 7 -49 9.5
      vertex 9 -47 9.5
    endloop
  endfacet
  facet normal 0.707107 -0.707107 0
    outer loop
      vertex 7 -49 0
      vertex 9 -47 9.3
      vertex 7 -49 9.3
    endloop
  endfacet
  facet normal 0.707107 -0.707107 0
    outer loop
      vertex 9 -47 9.3
      vertex 7 -49 0
      vertex 9 -47 0
    endloop
  endfacet
  facet normal 0 -0.707107 0.707107
    outer loop
      vertex -7 -49 20.5
      vertex -6 -47.5 22
      vertex -7.25 -48.75 20.75
    endloop
  endfacet
  facet normal 0 -0.707107 0.707107
    outer loop
      vertex -6 -47.5 22
      vertex -7 -49 20.5
      vertex 6 -47.5 22
    endloop
  endfacet
  facet normal 0 -0.707107 0.707107
    outer loop
      vertex 7 -49 20.5
      vertex 6 -47.5 22
      vertex -7 -49 20.5
    endloop
  endfacet
  facet normal 0 -0.707107 0.707107
    outer loop
      vertex 6 -47.5 22
      vertex 7 -49 20.5
      vertex 7.25 -48.75 20.75
    endloop
  endfacet
  facet normal 1 0 0
    outer loop
      vertex 9 0 19
      vertex 9 -5.6 11
      vertex 9 0 0
    endloop
  endfacet
  facet normal 1 0 0
    outer loop
      vertex 9 0 19
      vertex 9 -5.69615 11.9148
      vertex 9 -5.6 11
    endloop
  endfacet
  facet normal 1 0 0
    outer loop
      vertex 9 0 19
      vertex 9 -5.9804 12.7896
      vertex 9 -5.69615 11.9148
    endloop
  endfacet
  facet normal 1 0 0
    outer loop
      vertex 9 0 19
      vertex 9 -6.44032 13.5863
      vertex 9 -5.9804 12.7896
    endloop
  endfacet
  facet normal 1 0 0
    outer loop
      vertex 9 0 19
      vertex 9 -7.05583 14.2698
      vertex 9 -6.44032 13.5863
    endloop
  endfacet
  facet normal 1 0 0
    outer loop
      vertex 9 0 19
      vertex 9 -7.8 14.8105
      vertex 9 -7.05583 14.2698
    endloop
  endfacet
  facet normal 1 0 0
    outer loop
      vertex 9 0 19
      vertex 9 -8.64032 15.1846
      vertex 9 -7.8 14.8105
    endloop
  endfacet
  facet normal 1 0 0
    outer loop
      vertex 9 0 19
      vertex 9 -9.54007 15.3759
      vertex 9 -8.64032 15.1846
    endloop
  endfacet
  facet normal 1 0 0
    outer loop
      vertex 9 0 19
      vertex 9 -10.4599 15.3759
      vertex 9 -9.54007 15.3759
    endloop
  endfacet
  facet normal 1 0 0
    outer loop
      vertex 9 0 19
      vertex 9 -11.3597 15.1846
      vertex 9 -10.4599 15.3759
    endloop
  endfacet
  facet normal 1 0 0
    outer loop
      vertex 9 -14.3038 11.9148
      vertex 9 -25.6 11
      vertex 9 -14.4 11
    endloop
  endfacet
  facet normal 1 0 0
    outer loop
      vertex 9 -25.6961 11.9148
      vertex 9 -14.3038 11.9148
      vertex 9 -14.0196 12.7896
    endloop
  endfacet
  facet normal 1 0 0
    outer loop
      vertex 9 -25.9804 12.7896
      vertex 9 -14.0196 12.7896
      vertex 9 -13.5597 13.5863
    endloop
  endfacet
  facet normal 1 0 0
    outer loop
      vertex 9 -26.4403 13.5863
      vertex 9 -13.5597 13.5863
      vertex 9 -12.9442 14.2698
    endloop
  endfacet
  facet normal 1 0 0
    outer loop
      vertex 9 -27.0558 14.2698
      vertex 9 -12.9442 14.2698
      vertex 9 -12.2 14.8105
    endloop
  endfacet
  facet normal 1 0 0
    outer loop
      vertex 9 -27.8 14.8105
      vertex 9 -12.2 14.8105
      vertex 9 -11.3597 15.1846
    endloop
  endfacet
  facet normal 1 0 0
    outer loop
      vertex 9 -28.6403 15.1846
      vertex 9 -11.3597 15.1846
      vertex 9 0 19
    endloop
  endfacet
  facet normal 1 0 0
    outer loop
      vertex 9 -14.3038 11.9148
      vertex 9 -25.6961 11.9148
      vertex 9 -25.6 11
    endloop
  endfacet
  facet normal 1 0 0
    outer loop
      vertex 9 -14.0196 12.7896
      vertex 9 -25.9804 12.7896
      vertex 9 -25.6961 11.9148
    endloop
  endfacet
  facet normal 1 0 0
    outer loop
      vertex 9 -13.5597 13.5863
      vertex 9 -26.4403 13.5863
      vertex 9 -25.9804 12.7896
    endloop
  endfacet
  facet normal 1 0 0
    outer loop
      vertex 9 -12.9442 14.2698
      vertex 9 -27.0558 14.2698
      vertex 9 -26.4403 13.5863
    endloop
  endfacet
  facet normal 1 0 0
    outer loop
      vertex 9 -12.2 14.8105
      vertex 9 -27.8 14.8105
      vertex 9 -27.0558 14.2698
    endloop
  endfacet
  facet normal 1 0 0
    outer loop
      vertex 9 -11.3597 15.1846
      vertex 9 -28.6403 15.1846
      vertex 9 -27.8 14.8105
    endloop
  endfacet
  facet normal 1 0 0
    outer loop
      vertex 9 0 19
      vertex 9 -29.5401 15.3759
      vertex 9 -28.6403 15.1846
    endloop
  endfacet
  facet normal 1 -0 0
    outer loop
      vertex 9 -47 19
      vertex 9 -29.5401 15.3759
      vertex 9 0 19
    endloop
  endfacet
  facet normal 1 0 0
    outer loop
      vertex 9 -34.3038 11.9148
      vertex 9 -35.8 9.5
      vertex 9 -34.4 11
    endloop
  endfacet
  facet normal 1 -0 0
    outer loop
      vertex 9 -41 12.5
      vertex 9 -34.3038 11.9148
      vertex 9 -34.0196 12.7896
    endloop
  endfacet
  facet normal 1 0 0
    outer loop
      vertex 9 -41 12.5
      vertex 9 -34.0196 12.7896
      vertex 9 -41 16
    endloop
  endfacet
  facet normal 1 0 0
    outer loop
      vertex 9 -33.5597 13.5863
      vertex 9 -41 16
      vertex 9 -34.0196 12.7896
    endloop
  endfacet
  facet normal 1 0 0
    outer loop
      vertex 9 -32.9442 14.2698
      vertex 9 -41 16
      vertex 9 -33.5597 13.5863
    endloop
  endfacet
  facet normal 1 0 0
    outer loop
      vertex 9 -32.2 14.8105
      vertex 9 -41 16
      vertex 9 -32.9442 14.2698
    endloop
  endfacet
  facet normal 1 0 0
    outer loop
      vertex 9 -31.3597 15.1846
      vertex 9 -41 16
      vertex 9 -32.2 14.8105
    endloop
  endfacet
  facet normal 1 0 0
    outer loop
      vertex 9 -30.4599 15.3759
      vertex 9 -41 16
      vertex 9 -31.3597 15.1846
    endloop
  endfacet
  facet normal 1 0 0
    outer loop
      vertex 9 -29.5401 15.3759
      vertex 9 -47 19
      vertex 9 -30.4599 15.3759
    endloop
  endfacet
  facet normal 1 0 0
    outer loop
      vertex 9 -30.4599 15.3759
      vertex 9 -47 19
      vertex 9 -41 16
    endloop
  endfacet
  facet normal 1 0 0
    outer loop
      vertex 9 -43 16
      vertex 9 -47 19
      vertex 9 -43 12.5
    endloop
  endfacet
  facet normal 1 0 0
    outer loop
      vertex 9 -41 16
      vertex 9 -47 19
      vertex 9 -43 16
    endloop
  endfacet
  facet normal 1 -0 0
    outer loop
      vertex 9 -5.69615 10.0852
      vertex 9 0 0
      vertex 9 -5.6 11
    endloop
  endfacet
  facet normal 1 -0 0
    outer loop
      vertex 9 -5.9804 9.21036
      vertex 9 0 0
      vertex 9 -5.69615 10.0852
    endloop
  endfacet
  facet normal 1 -0 0
    outer loop
      vertex 9 -6.44032 8.41374
      vertex 9 0 0
      vertex 9 -5.9804 9.21036
    endloop
  endfacet
  facet normal 1 -0 0
    outer loop
      vertex 9 -7.05583 7.73016
      vertex 9 0 0
      vertex 9 -6.44032 8.41374
    endloop
  endfacet
  facet normal 1 -0 0
    outer loop
      vertex 9 -7.8 7.18949
      vertex 9 0 0
      vertex 9 -7.05583 7.73016
    endloop
  endfacet
  facet normal 1 -0 0
    outer loop
      vertex 9 -8.64032 6.81535
      vertex 9 0 0
      vertex 9 -7.8 7.18949
    endloop
  endfacet
  facet normal 1 -0 0
    outer loop
      vertex 9 -9.54007 6.6241
      vertex 9 0 0
      vertex 9 -8.64032 6.81535
    endloop
  endfacet
  facet normal 1 -0 0
    outer loop
      vertex 9 -10.4599 6.6241
      vertex 9 0 0
      vertex 9 -9.54007 6.6241
    endloop
  endfacet
  facet normal 1 0 0
    outer loop
      vertex 9 -11.3597 6.81535
      vertex 9 0 0
      vertex 9 -10.4599 6.6241
    endloop
  endfacet
  facet normal 1 0 0
    outer loop
      vertex 9 -35.8 0
      vertex 9 -11.3597 6.81535
      vertex 9 -12.2 7.18949
    endloop
  endfacet
  facet normal 1 -0 0
    outer loop
      vertex 9 -25.6 11
      vertex 9 -14.3038 10.0852
      vertex 9 -14.4 11
    endloop
  endfacet
  facet normal 1 0 0
    outer loop
      vertex 9 -25.6961 10.0852
      vertex 9 -14.3038 10.0852
      vertex 9 -25.6 11
    endloop
  endfacet
  facet normal 1 0 0
    outer loop
      vertex 9 -14.3038 10.0852
      vertex 9 -25.6961 10.0852
      vertex 9 -14.0196 9.21036
    endloop
  endfacet
  facet normal 1 0 0
    outer loop
      vertex 9 -25.9804 9.21036
      vertex 9 -14.0196 9.21036
      vertex 9 -25.6961 10.0852
    endloop
  endfacet
  facet normal 1 0 0
    outer loop
      vertex 9 -14.0196 9.21036
      vertex 9 -25.9804 9.21036
      vertex 9 -13.5597 8.41374
    endloop
  endfacet
  facet normal 1 0 0
    outer loop
      vertex 9 -26.4403 8.41374
      vertex 9 -13.5597 8.41374
      vertex 9 -25.9804 9.21036
    endloop
  endfacet
  facet normal 1 0 0
    outer loop
      vertex 9 -13.5597 8.41374
      vertex 9 -26.4403 8.41374
      vertex 9 -12.9442 7.73016
    endloop
  endfacet
  facet normal 1 0 0
    outer loop
      vertex 9 -27.0558 7.73016
      vertex 9 -12.9442 7.73016
      vertex 9 -26.4403 8.41374
    endloop
  endfacet
  facet normal 1 0 0
    outer loop
      vertex 9 -12.9442 7.73016
      vertex 9 -27.0558 7.73016
      vertex 9 -12.2 7.18949
    endloop
  endfacet
  facet normal 1 0 0
    outer loop
      vertex 9 -27.8 7.18949
      vertex 9 -12.2 7.18949
      vertex 9 -27.0558 7.73016
    endloop
  endfacet
  facet normal 1 0 0
    outer loop
      vertex 9 -35.8 0
      vertex 9 -12.2 7.18949
      vertex 9 -27.8 7.18949
    endloop
  endfacet
  facet normal 1 0 0
    outer loop
      vertex 9 -35.8 0
      vertex 9 -27.8 7.18949
      vertex 9 -28.6403 6.81535
    endloop
  endfacet
  facet normal 1 0 0
    outer loop
      vertex 9 -35.8 0
      vertex 9 -28.6403 6.81535
      vertex 9 -29.5401 6.6241
    endloop
  endfacet
  facet normal 1 0 0
    outer loop
      vertex 9 -35.8 0
      vertex 9 -29.5401 6.6241
      vertex 9 -30.4599 6.6241
    endloop
  endfacet
  facet normal 1 0 0
    outer loop
      vertex 9 -35.8 0
      vertex 9 -30.4599 6.6241
      vertex 9 -31.3597 6.81535
    endloop
  endfacet
  facet normal 1 0 0
    outer loop
      vertex 9 -35.8 9.5
      vertex 9 -34.3038 10.0852
      vertex 9 -34.4 11
    endloop
  endfacet
  facet normal 1 -0 0
    outer loop
      vertex 9 -35.8 9.5
      vertex 9 -34.0196 9.21036
      vertex 9 -34.3038 10.0852
    endloop
  endfacet
  facet normal 1 0 0
    outer loop
      vertex 9 -35.8 9.5
      vertex 9 -33.5597 8.41374
      vertex 9 -34.0196 9.21036
    endloop
  endfacet
  facet normal 1 0 0
    outer loop
      vertex 9 -35.8 9.5
      vertex 9 -32.9442 7.73016
      vertex 9 -33.5597 8.41374
    endloop
  endfacet
  facet normal 1 0 0
    outer loop
      vertex 9 -35.8 0
      vertex 9 -32.9442 7.73016
      vertex 9 -35.8 9.5
    endloop
  endfacet
  facet normal 1 0 0
    outer loop
      vertex 9 -11.3597 6.81535
      vertex 9 -35.8 0
      vertex 9 0 0
    endloop
  endfacet
  facet normal 1 0 0
    outer loop
      vertex 9 -32.2 7.18949
      vertex 9 -35.8 0
      vertex 9 -31.3597 6.81535
    endloop
  endfacet
  facet normal 1 0 0
    outer loop
      vertex 9 -32.9442 7.73016
      vertex 9 -35.8 0
      vertex 9 -32.2 7.18949
    endloop
  endfacet
  facet normal 1 0 0
    outer loop
      vertex 9 -34.3038 11.9148
      vertex 9 -41 12.5
      vertex 9 -35.8 9.5
    endloop
  endfacet
  facet normal 1 0 0
    outer loop
      vertex 9 -47 9.5
      vertex 9 -41 12.5
      vertex 9 -43 12.5
    endloop
  endfacet
  facet normal 1 0 0
    outer loop
      vertex 9 -41 12.5
      vertex 9 -47 9.5
      vertex 9 -35.8 9.5
    endloop
  endfacet
  facet normal 1 0 0
    outer loop
      vertex 9 -47 9.5
      vertex 9 -43 12.5
      vertex 9 -47 19
    endloop
  endfacet
  facet normal 1 -0 0
    outer loop
      vertex 9 -47 9.3
      vertex 9 -36 0
      vertex 9 -36 9.3
    endloop
  endfacet
  facet normal 1 0 0
    outer loop
      vertex 9 -36 0
      vertex 9 -47 9.3
      vertex 9 -47 0
    endloop
  endfacet
  facet normal 0 -1 0
    outer loop
      vertex -7 -49 20.5
      vertex -3.68183 -49 19.25
      vertex 7 -49 20.5
    endloop
  endfacet
  facet normal 0 -1 0
    outer loop
      vertex -7 -49 9.5
      vertex -3.68183 -49 19.25
      vertex -7 -49 20.5
    endloop
  endfacet
  facet normal 0 -1 -0
    outer loop
      vertex -3.68183 -49 19.25
      vertex -7 -49 9.5
      vertex -3.68183 -49 9.5
    endloop
  endfacet
  facet normal 0 -1 0
    outer loop
      vertex 3.68183 -49 19.25
      vertex 7 -49 20.5
      vertex -3.68183 -49 19.25
    endloop
  endfacet
  facet normal 0 -1 0
    outer loop
      vertex 7 -49 9.5
      vertex 3.68183 -49 19.25
      vertex 3.68183 -49 9.5
    endloop
  endfacet
  facet normal 0 -1 0
    outer loop
      vertex 3.68183 -49 19.25
      vertex 7 -49 9.5
      vertex 7 -49 20.5
    endloop
  endfacet
  facet normal 0 -1 0
    outer loop
      vertex -7 -49 0
      vertex 7 -49 9.3
      vertex -7 -49 9.3
    endloop
  endfacet
  facet normal 0 -1 -0
    outer loop
      vertex 7 -49 9.3
      vertex -7 -49 0
      vertex 7 -49 0
    endloop
  endfacet
  facet normal -1 0 0
    outer loop
      vertex -9 -47 9.5
      vertex -9 -41 12.5
      vertex -9 -35.8 9.5
    endloop
  endfacet
  facet normal -1 -0 0
    outer loop
      vertex -9 -43 12.5
      vertex -9 -47 9.5
      vertex -9 -43 16
    endloop
  endfacet
  facet normal -1 -0 0
    outer loop
      vertex -9 -41 12.5
      vertex -9 -47 9.5
      vertex -9 -43 12.5
    endloop
  endfacet
  facet normal -1 0 0
    outer loop
      vertex -9 0 0
      vertex -9 -5.6 11
      vertex -9 0 19
    endloop
  endfacet
  facet normal -1 0 0
    outer loop
      vertex -9 0 0
      vertex -9 -5.69615 10.0852
      vertex -9 -5.6 11
    endloop
  endfacet
  facet normal -1 0 0
    outer loop
      vertex -9 0 0
      vertex -9 -5.9804 9.21036
      vertex -9 -5.69615 10.0852
    endloop
  endfacet
  facet normal -1 0 0
    outer loop
      vertex -9 0 0
      vertex -9 -6.44032 8.41374
      vertex -9 -5.9804 9.21036
    endloop
  endfacet
  facet normal -1 0 0
    outer loop
      vertex -9 0 0
      vertex -9 -7.05583 7.73016
      vertex -9 -6.44032 8.41374
    endloop
  endfacet
  facet normal -1 0 0
    outer loop
      vertex -9 0 0
      vertex -9 -7.8 7.18949
      vertex -9 -7.05583 7.73016
    endloop
  endfacet
  facet normal -1 0 0
    outer loop
      vertex -9 0 0
      vertex -9 -8.64032 6.81535
      vertex -9 -7.8 7.18949
    endloop
  endfacet
  facet normal -1 0 0
    outer loop
      vertex -9 0 0
      vertex -9 -9.54007 6.6241
      vertex -9 -8.64032 6.81535
    endloop
  endfacet
  facet normal -1 0 0
    outer loop
      vertex -9 0 0
      vertex -9 -10.4599 6.6241
      vertex -9 -9.54007 6.6241
    endloop
  endfacet
  facet normal -1 0 0
    outer loop
      vertex -9 0 0
      vertex -9 -11.3597 6.81535
      vertex -9 -10.4599 6.6241
    endloop
  endfacet
  facet normal -1 0 0
    outer loop
      vertex -9 -35.8 0
      vertex -9 -11.3597 6.81535
      vertex -9 0 0
    endloop
  endfacet
  facet normal -1 0 0
    outer loop
      vertex -9 -14.3038 10.0852
      vertex -9 -25.6 11
      vertex -9 -14.4 11
    endloop
  endfacet
  facet normal -1 0 0
    outer loop
      vertex -9 -25.6961 10.0852
      vertex -9 -14.3038 10.0852
      vertex -9 -14.0196 9.21036
    endloop
  endfacet
  facet normal -1 0 0
    outer loop
      vertex -9 -25.9804 9.21036
      vertex -9 -14.0196 9.21036
      vertex -9 -13.5597 8.41374
    endloop
  endfacet
  facet normal -1 0 0
    outer loop
      vertex -9 -26.4403 8.41374
      vertex -9 -13.5597 8.41374
      vertex -9 -12.9442 7.73016
    endloop
  endfacet
  facet normal -1 0 0
    outer loop
      vertex -9 -27.0558 7.73016
      vertex -9 -12.9442 7.73016
      vertex -9 -12.2 7.18949
    endloop
  endfacet
  facet normal -1 -0 0
    outer loop
      vertex -9 -11.3597 6.81535
      vertex -9 -35.8 0
      vertex -9 -12.2 7.18949
    endloop
  endfacet
  facet normal -1 0 0
    outer loop
      vertex -9 -14.3038 10.0852
      vertex -9 -25.6961 10.0852
      vertex -9 -25.6 11
    endloop
  endfacet
  facet normal -1 0 0
    outer loop
      vertex -9 -14.0196 9.21036
      vertex -9 -25.9804 9.21036
      vertex -9 -25.6961 10.0852
    endloop
  endfacet
  facet normal -1 0 0
    outer loop
      vertex -9 -13.5597 8.41374
      vertex -9 -26.4403 8.41374
      vertex -9 -25.9804 9.21036
    endloop
  endfacet
  facet normal -1 0 0
    outer loop
      vertex -9 -12.9442 7.73016
      vertex -9 -27.0558 7.73016
      vertex -9 -26.4403 8.41374
    endloop
  endfacet
  facet normal -1 0 0
    outer loop
      vertex -9 -12.2 7.18949
      vertex -9 -27.8 7.18949
      vertex -9 -27.0558 7.73016
    endloop
  endfacet
  facet normal -1 -0 0
    outer loop
      vertex -9 -12.2 7.18949
      vertex -9 -35.8 0
      vertex -9 -27.8 7.18949
    endloop
  endfacet
  facet normal -1 0 0
    outer loop
      vertex -9 -27.8 7.18949
      vertex -9 -35.8 0
      vertex -9 -28.6403 6.81535
    endloop
  endfacet
  facet normal -1 0 0
    outer loop
      vertex -9 -28.6403 6.81535
      vertex -9 -35.8 0
      vertex -9 -29.5401 6.6241
    endloop
  endfacet
  facet normal -1 -0 0
    outer loop
      vertex -9 -29.5401 6.6241
      vertex -9 -35.8 0
      vertex -9 -30.4599 6.6241
    endloop
  endfacet
  facet normal -1 0 0
    outer loop
      vertex -9 -34.0196 9.21036
      vertex -9 -35.8 9.5
      vertex -9 -34.3038 10.0852
    endloop
  endfacet
  facet normal -1 0 0
    outer loop
      vertex -9 -33.5597 8.41374
      vertex -9 -35.8 9.5
      vertex -9 -34.0196 9.21036
    endloop
  endfacet
  facet normal -1 0 0
    outer loop
      vertex -9 -32.9442 7.73016
      vertex -9 -35.8 9.5
      vertex -9 -33.5597 8.41374
    endloop
  endfacet
  facet normal -1 0 0
    outer loop
      vertex -9 -35.8 9.5
      vertex -9 -32.9442 7.73016
      vertex -9 -35.8 0
    endloop
  endfacet
  facet normal -1 -0 0
    outer loop
      vertex -9 -32.2 7.18949
      vertex -9 -35.8 0
      vertex -9 -32.9442 7.73016
    endloop
  endfacet
  facet normal -1 -0 0
    outer loop
      vertex -9 -31.3597 6.81535
      vertex -9 -35.8 0
      vertex -9 -32.2 7.18949
    endloop
  endfacet
  facet normal -1 -0 0
    outer loop
      vertex -9 -30.4599 6.6241
      vertex -9 -35.8 0
      vertex -9 -31.3597 6.81535
    endloop
  endfacet
  facet normal -1 0 0
    outer loop
      vertex -9 -5.69615 11.9148
      vertex -9 0 19
      vertex -9 -5.6 11
    endloop
  endfacet
  facet normal -1 0 0
    outer loop
      vertex -9 -5.9804 12.7896
      vertex -9 0 19
      vertex -9 -5.69615 11.9148
    endloop
  endfacet
  facet normal -1 0 0
    outer loop
      vertex -9 -6.44032 13.5863
      vertex -9 0 19
      vertex -9 -5.9804 12.7896
    endloop
  endfacet
  facet normal -1 0 0
    outer loop
      vertex -9 -7.05583 14.2698
      vertex -9 0 19
      vertex -9 -6.44032 13.5863
    endloop
  endfacet
  facet normal -1 0 0
    outer loop
      vertex -9 -7.8 14.8105
      vertex -9 0 19
      vertex -9 -7.05583 14.2698
    endloop
  endfacet
  facet normal -1 0 0
    outer loop
      vertex -9 -8.64032 15.1846
      vertex -9 0 19
      vertex -9 -7.8 14.8105
    endloop
  endfacet
  facet normal -1 0 0
    outer loop
      vertex -9 -9.54007 15.3759
      vertex -9 0 19
      vertex -9 -8.64032 15.1846
    endloop
  endfacet
  facet normal -1 0 0
    outer loop
      vertex -9 -10.4599 15.3759
      vertex -9 0 19
      vertex -9 -9.54007 15.3759
    endloop
  endfacet
  facet normal -1 0 0
    outer loop
      vertex -9 -11.3597 15.1846
      vertex -9 0 19
      vertex -9 -10.4599 15.3759
    endloop
  endfacet
  facet normal -1 0 0
    outer loop
      vertex -9 -25.6 11
      vertex -9 -14.3038 11.9148
      vertex -9 -14.4 11
    endloop
  endfacet
  facet normal -1 0 0
    outer loop
      vertex -9 -25.6961 11.9148
      vertex -9 -14.3038 11.9148
      vertex -9 -25.6 11
    endloop
  endfacet
  facet normal -1 0 0
    outer loop
      vertex -9 -14.3038 11.9148
      vertex -9 -25.6961 11.9148
      vertex -9 -14.0196 12.7896
    endloop
  endfacet
  facet normal -1 0 0
    outer loop
      vertex -9 -25.9804 12.7896
      vertex -9 -14.0196 12.7896
      vertex -9 -25.6961 11.9148
    endloop
  endfacet
  facet normal -1 0 0
    outer loop
      vertex -9 -14.0196 12.7896
      vertex -9 -25.9804 12.7896
      vertex -9 -13.5597 13.5863
    endloop
  endfacet
  facet normal -1 0 0
    outer loop
      vertex -9 -26.4403 13.5863
      vertex -9 -13.5597 13.5863
      vertex -9 -25.9804 12.7896
    endloop
  endfacet
  facet normal -1 0 0
    outer loop
      vertex -9 -13.5597 13.5863
      vertex -9 -26.4403 13.5863
      vertex -9 -12.9442 14.2698
    endloop
  endfacet
  facet normal -1 0 0
    outer loop
      vertex -9 -27.0558 14.2698
      vertex -9 -12.9442 14.2698
      vertex -9 -26.4403 13.5863
    endloop
  endfacet
  facet normal -1 0 0
    outer loop
      vertex -9 -12.9442 14.2698
      vertex -9 -27.0558 14.2698
      vertex -9 -12.2 14.8105
    endloop
  endfacet
  facet normal -1 0 0
    outer loop
      vertex -9 -27.8 14.8105
      vertex -9 -12.2 14.8105
      vertex -9 -27.0558 14.2698
    endloop
  endfacet
  facet normal -1 0 0
    outer loop
      vertex -9 -12.2 14.8105
      vertex -9 -27.8 14.8105
      vertex -9 -11.3597 15.1846
    endloop
  endfacet
  facet normal -1 0 0
    outer loop
      vertex -9 -28.6403 15.1846
      vertex -9 -11.3597 15.1846
      vertex -9 -27.8 14.8105
    endloop
  endfacet
  facet normal -1 0 0
    outer loop
      vertex -9 -11.3597 15.1846
      vertex -9 -28.6403 15.1846
      vertex -9 0 19
    endloop
  endfacet
  facet normal -1 0 0
    outer loop
      vertex -9 -29.5401 15.3759
      vertex -9 0 19
      vertex -9 -28.6403 15.1846
    endloop
  endfacet
  facet normal -1 0 0
    outer loop
      vertex -9 -47 19
      vertex -9 -29.5401 15.3759
      vertex -9 -30.4599 15.3759
    endloop
  endfacet
  facet normal -1 -0 0
    outer loop
      vertex -9 -34.3038 10.0852
      vertex -9 -35.8 9.5
      vertex -9 -34.4 11
    endloop
  endfacet
  facet normal -1 -0 0
    outer loop
      vertex -9 -34.4 11
      vertex -9 -35.8 9.5
      vertex -9 -34.3038 11.9148
    endloop
  endfacet
  facet normal -1 0 0
    outer loop
      vertex -9 -41 12.5
      vertex -9 -34.3038 11.9148
      vertex -9 -35.8 9.5
    endloop
  endfacet
  facet normal -1 0 0
    outer loop
      vertex -9 -34.3038 11.9148
      vertex -9 -41 12.5
      vertex -9 -34.0196 12.7896
    endloop
  endfacet
  facet normal -1 0 0
    outer loop
      vertex -9 -41 16
      vertex -9 -34.0196 12.7896
      vertex -9 -41 12.5
    endloop
  endfacet
  facet normal -1 0 0
    outer loop
      vertex -9 -34.0196 12.7896
      vertex -9 -41 16
      vertex -9 -33.5597 13.5863
    endloop
  endfacet
  facet normal -1 0 0
    outer loop
      vertex -9 -33.5597 13.5863
      vertex -9 -41 16
      vertex -9 -32.9442 14.2698
    endloop
  endfacet
  facet normal -1 0 0
    outer loop
      vertex -9 -32.9442 14.2698
      vertex -9 -41 16
      vertex -9 -32.2 14.8105
    endloop
  endfacet
  facet normal -1 0 0
    outer loop
      vertex -9 -32.2 14.8105
      vertex -9 -41 16
      vertex -9 -31.3597 15.1846
    endloop
  endfacet
  facet normal -1 0 0
    outer loop
      vertex -9 -41 16
      vertex -9 -30.4599 15.3759
      vertex -9 -31.3597 15.1846
    endloop
  endfacet
  facet normal -1 0 0
    outer loop
      vertex -9 -47 19
      vertex -9 -30.4599 15.3759
      vertex -9 -41 16
    endloop
  endfacet
  facet normal -1 0 0
    outer loop
      vertex -9 -47 19
      vertex -9 -41 16
      vertex -9 -43 16
    endloop
  endfacet
  facet normal -1 0 0
    outer loop
      vertex -9 -29.5401 15.3759
      vertex -9 -47 19
      vertex -9 0 19
    endloop
  endfacet
  facet normal -1 0 0
    outer loop
      vertex -9 -47 19
      vertex -9 -43 16
      vertex -9 -47 9.5
    endloop
  endfacet
  facet normal -1 0 0
    outer loop
      vertex -9 -47 0
      vertex -9 -36 9.3
      vertex -9 -36 0
    endloop
  endfacet
  facet normal -1 -0 0
    outer loop
      vertex -9 -36 9.3
      vertex -9 -47 0
      vertex -9 -47 9.3
    endloop
  endfacet
  facet normal 0 0 -1
    outer loop
      vertex 5.37042 -19.4355 0
      vertex 9 -35.8 0
      vertex 5.37042 -20.5645 0
    endloop
  endfacet
  facet normal 0 0 -1
    outer loop
      vertex 9 -35.8 0
      vertex 5.13571 -21.6687 0
      vertex 5.37042 -20.5645 0
    endloop
  endfacet
  facet normal 0 0 -1
    outer loop
      vertex 9 -35.8 0
      vertex 4.67654 -22.7 0
      vertex 5.13571 -21.6687 0
    endloop
  endfacet
  facet normal 0 0 -1
    outer loop
      vertex 9 -35.8 0
      vertex 4.01298 -23.6133 0
      vertex 4.67654 -22.7 0
    endloop
  endfacet
  facet normal 0 0 -1
    outer loop
      vertex 9 -35.8 0
      vertex 3.17404 -24.3687 0
      vertex 4.01298 -23.6133 0
    endloop
  endfacet
  facet normal 0 0 -1
    outer loop
      vertex 9 -35.8 0
      vertex 2.19638 -24.9331 0
      vertex 3.17404 -24.3687 0
    endloop
  endfacet
  facet normal 0 0 -1
    outer loop
      vertex 9 -35.8 0
      vertex 1.12272 -25.282 0
      vertex 2.19638 -24.9331 0
    endloop
  endfacet
  facet normal 0 0 -1
    outer loop
      vertex 9 -35.8 0
      vertex 0 -25.4 0
      vertex 1.12272 -25.282 0
    endloop
  endfacet
  facet normal 0 0 -1
    outer loop
      vertex -9 -35.8 0
      vertex 0 -25.4 0
      vertex 9 -35.8 0
    endloop
  endfacet
  facet normal -0 0 -1
    outer loop
      vertex 0 -25.4 0
      vertex -9 -35.8 0
      vertex -1.12272 -25.282 0
    endloop
  endfacet
  facet normal -0 0 -1
    outer loop
      vertex -1.12272 -25.282 0
      vertex -9 -35.8 0
      vertex -2.19638 -24.9331 0
    endloop
  endfacet
  facet normal -0 0 -1
    outer loop
      vertex -2.19638 -24.9331 0
      vertex -9 -35.8 0
      vertex -3.17404 -24.3687 0
    endloop
  endfacet
  facet normal -0 0 -1
    outer loop
      vertex -5.37042 -20.5645 0
      vertex -9 -35.8 0
      vertex -5.37042 -19.4355 0
    endloop
  endfacet
  facet normal -0 0 -1
    outer loop
      vertex -5.1357 -21.6687 0
      vertex -9 -35.8 0
      vertex -5.37042 -20.5645 0
    endloop
  endfacet
  facet normal -0 0 -1
    outer loop
      vertex -4.67654 -22.7 0
      vertex -9 -35.8 0
      vertex -5.1357 -21.6687 0
    endloop
  endfacet
  facet normal -0 0 -1
    outer loop
      vertex -4.01298 -23.6133 0
      vertex -9 -35.8 0
      vertex -4.67654 -22.7 0
    endloop
  endfacet
  facet normal -0 0 -1
    outer loop
      vertex -3.17404 -24.3687 0
      vertex -9 -35.8 0
      vertex -4.01298 -23.6133 0
    endloop
  endfacet
  facet normal 0 0 -1
    outer loop
      vertex 9 -35.8 0
      vertex 5.37042 -19.4355 0
      vertex 9 0 0
    endloop
  endfacet
  facet normal 0 0 -1
    outer loop
      vertex 5.13571 -18.3313 0
      vertex 9 0 0
      vertex 5.37042 -19.4355 0
    endloop
  endfacet
  facet normal 0 0 -1
    outer loop
      vertex 4.67654 -17.3 0
      vertex 9 0 0
      vertex 5.13571 -18.3313 0
    endloop
  endfacet
  facet normal 0 0 -1
    outer loop
      vertex 4.01298 -16.3867 0
      vertex 9 0 0
      vertex 4.67654 -17.3 0
    endloop
  endfacet
  facet normal 0 0 -1
    outer loop
      vertex 3.17404 -15.6313 0
      vertex 9 0 0
      vertex 4.01298 -16.3867 0
    endloop
  endfacet
  facet normal 0 0 -1
    outer loop
      vertex 2.19638 -15.0669 0
      vertex 9 0 0
      vertex 3.17404 -15.6313 0
    endloop
  endfacet
  facet normal 0 0 -1
    outer loop
      vertex 1.12272 -14.718 0
      vertex 9 0 0
      vertex 2.19638 -15.0669 0
    endloop
  endfacet
  facet normal 0 0 -1
    outer loop
      vertex 0 -14.6 0
      vertex 9 0 0
      vertex 1.12272 -14.718 0
    endloop
  endfacet
  facet normal 0 0 -1
    outer loop
      vertex -9 0 0
      vertex 0 -14.6 0
      vertex -1.12272 -14.718 0
    endloop
  endfacet
  facet normal 0 0 -1
    outer loop
      vertex -9 0 0
      vertex -1.12272 -14.718 0
      vertex -2.19638 -15.0669 0
    endloop
  endfacet
  facet normal 0 0 -1
    outer loop
      vertex -9 0 0
      vertex -2.19638 -15.0669 0
      vertex -3.17404 -15.6313 0
    endloop
  endfacet
  facet normal 0 0 -1
    outer loop
      vertex -9 0 0
      vertex -3.17404 -15.6313 0
      vertex -4.01298 -16.3867 0
    endloop
  endfacet
  facet normal 0 0 -1
    outer loop
      vertex -9 0 0
      vertex -5.37042 -19.4355 0
      vertex -9 -35.8 0
    endloop
  endfacet
  facet normal 0 0 -1
    outer loop
      vertex 0 -14.6 0
      vertex -9 0 0
      vertex 9 0 0
    endloop
  endfacet
  facet normal 0 0 -1
    outer loop
      vertex -4.67654 -17.3 0
      vertex -9 0 0
      vertex -4.01298 -16.3867 0
    endloop
  endfacet
  facet normal 0 0 -1
    outer loop
      vertex -5.1357 -18.3313 0
      vertex -9 0 0
      vertex -4.67654 -17.3 0
    endloop
  endfacet
  facet normal 0 0 -1
    outer loop
      vertex -5.37042 -19.4355 0
      vertex -9 0 0
      vertex -5.1357 -18.3313 0
    endloop
  endfacet
  facet normal 0 0 -1
    outer loop
      vertex 7 -49 0
      vertex 9 -36 0
      vertex 9 -47 0
    endloop
  endfacet
  facet normal 0 0 -1
    outer loop
      vertex -7 -49 0
      vertex 9 -36 0
      vertex 7 -49 0
    endloop
  endfacet
  facet normal 0 0 -1
    outer loop
      vertex -9 -36 0
      vertex -7 -49 0
      vertex -9 -47 0
    endloop
  endfacet
  facet normal 0 0 -1
    outer loop
      vertex -7 -49 0
      vertex -9 -36 0
      vertex 9 -36 0
    endloop
  endfacet
  facet normal 0 1 0
    outer loop
      vertex 9 0 19
      vertex -6 0 22
      vertex 6 0 22
    endloop
  endfacet
  facet normal 0 1 0
    outer loop
      vertex 9 0 19
      vertex -9 0 19
      vertex -6 0 22
    endloop
  endfacet
  facet normal 0 1 -0
    outer loop
      vertex 9 0 0
      vertex -9 0 19
      vertex 9 0 19
    endloop
  endfacet
  facet normal 0 1 0
    outer loop
      vertex -9 0 19
      vertex 9 0 0
      vertex -9 0 0
    endloop
  endfacet
  facet normal -0 0 1
    outer loop
      vertex 4.4741 -30.049 22
      vertex 6 -47.5 22
      vertex 6 -29.168 22
    endloop
  endfacet
  facet normal -0 0 1
    outer loop
      vertex 2.28703 -30.7596 22
      vertex 6 -47.5 22
      vertex 4.4741 -30.049 22
    endloop
  endfacet
  facet normal -0 0 1
    outer loop
      vertex 0 -31 22
      vertex 6 -47.5 22
      vertex 2.28703 -30.7596 22
    endloop
  endfacet
  facet normal 0 0 1
    outer loop
      vertex -6 -47.5 22
      vertex 0 -31 22
      vertex -2.28703 -30.7596 22
    endloop
  endfacet
  facet normal 0 0 1
    outer loop
      vertex -6 -47.5 22
      vertex -2.28703 -30.7596 22
      vertex -4.4741 -30.049 22
    endloop
  endfacet
  facet normal 0 0 1
    outer loop
      vertex -6 -47.5 22
      vertex -4.4741 -30.049 22
      vertex -6 -29.168 22
    endloop
  endfacet
  facet normal 0 0 1
    outer loop
      vertex 0 -31 22
      vertex -6 -47.5 22
      vertex 6 -47.5 22
    endloop
  endfacet
  facet normal 0 0 1
    outer loop
      vertex 6 0 22
      vertex 4.4741 -9.951 22
      vertex 6 -10.832 22
    endloop
  endfacet
  facet normal 0 0 1
    outer loop
      vertex 6 0 22
      vertex 2.28703 -9.24038 22
      vertex 4.4741 -9.951 22
    endloop
  endfacet
  facet normal 0 0 1
    outer loop
      vertex 6 0 22
      vertex 0 -9 22
      vertex 2.28703 -9.24038 22
    endloop
  endfacet
  facet normal -0 0 1
    outer loop
      vertex -6 0 22
      vertex 0 -9 22
      vertex 6 0 22
    endloop
  endfacet
  facet normal 0 0 1
    outer loop
      vertex 0 -9 22
      vertex -6 0 22
      vertex -2.28703 -9.24038 22
    endloop
  endfacet
  facet normal 0 0 1
    outer loop
      vertex -2.28703 -9.24038 22
      vertex -6 0 22
      vertex -4.4741 -9.951 22
    endloop
  endfacet
  facet normal 0 0 1
    outer loop
      vertex -4.4741 -9.951 22
      vertex -6 0 22
      vertex -6 -10.832 22
    endloop
  endfacet
endsolid OpenSCAD_Model
